<?xml version="1.0" encoding="utf-8" standalone="no"?>
<!DOCTYPE svg PUBLIC "-//W3C//DTD SVG 1.1//EN"
  "http://www.w3.org/Graphics/SVG/1.1/DTD/svg11.dtd">
<svg xmlns:xlink="http://www.w3.org/1999/xlink" width="460.8pt" height="345.6pt" viewBox="0 0 460.8 345.6" xmlns="http://www.w3.org/2000/svg" version="1.1">
 <metadata>
  <rdf:RDF xmlns:dc="http://purl.org/dc/elements/1.1/" xmlns:cc="http://creativecommons.org/ns#" xmlns:rdf="http://www.w3.org/1999/02/22-rdf-syntax-ns#">
   <cc:Work>
    <dc:type rdf:resource="http://purl.org/dc/dcmitype/StillImage"/>
    <dc:date>2024-03-29T18:34:25.959231</dc:date>
    <dc:format>image/svg+xml</dc:format>
    <dc:creator>
     <cc:Agent>
      <dc:title>Matplotlib v3.7.1, https://matplotlib.org/</dc:title>
     </cc:Agent>
    </dc:creator>
   </cc:Work>
  </rdf:RDF>
 </metadata>
 <defs>
  <style type="text/css">*{stroke-linejoin: round; stroke-linecap: butt}</style>
 </defs>
 <g id="figure_1">
  <g id="patch_1">
   <path d="M 0 345.6 
L 460.8 345.6 
L 460.8 0 
L 0 0 
z
" style="fill: #ffffff"/>
  </g>
  <g id="axes_1">
   <g id="patch_2">
    <path d="M 54.806865 302.18325 
L 450 302.18325 
L 450 10.8 
L 54.806865 10.8 
z
" style="fill: #ffffff"/>
   </g>
   <g id="PathCollection_1">
    <defs>
     <path id="mf85e540dac" d="M 0 3 
C 0.795609 3 1.55874 2.683901 2.12132 2.12132 
C 2.683901 1.55874 3 0.795609 3 0 
C 3 -0.795609 2.683901 -1.55874 2.12132 -2.12132 
C 1.55874 -2.683901 0.795609 -3 0 -3 
C -0.795609 -3 -1.55874 -2.683901 -2.12132 -2.12132 
C -2.683901 -1.55874 -3 -0.795609 -3 0 
C -3 0.795609 -2.683901 1.55874 -2.12132 2.12132 
C -1.55874 2.683901 -0.795609 3 0 3 
z
" style="stroke: #1f77b4"/>
    </defs>
    <g clip-path="url(#p5d6aea9101)">
     <use xlink:href="#mf85e540dac" x="236.768187" y="230.415896" style="fill: #1f77b4; stroke: #1f77b4"/>
    </g>
   </g>
   <g id="matplotlib.axis_1">
    <g id="xtick_1">
     <g id="line2d_1">
      <path d="M 88.57452 302.18325 
L 88.57452 10.8 
" clip-path="url(#p5d6aea9101)" style="fill: none; stroke-dasharray: 2.96,1.28; stroke-dashoffset: 0; stroke: #b0b0b0; stroke-opacity: 0.5; stroke-width: 0.8"/>
     </g>
     <g id="line2d_2">
      <defs>
       <path id="mbab9339d81" d="M 0 0 
L 0 -6 
" style="stroke: #000000; stroke-width: 2"/>
      </defs>
      <g>
       <use xlink:href="#mbab9339d81" x="88.57452" y="302.18325" style="stroke: #000000; stroke-width: 2"/>
      </g>
     </g>
     <g id="text_1">
      <!-- 0.264 -->
      <g transform="translate(76.19952 313.195906) scale(0.11 -0.11)">
       <defs>
        <path id="STIXGeneral-Regular-30" d="M 3046 2112 
Q 3046 1683 2963 1302 
Q 2880 922 2717 602 
Q 2554 282 2266 96 
Q 1978 -90 1600 -90 
Q 1210 -90 915 108 
Q 621 307 461 640 
Q 301 973 227 1350 
Q 154 1728 154 2150 
Q 154 2746 301 3222 
Q 448 3699 790 4012 
Q 1133 4326 1626 4326 
Q 2253 4326 2649 3712 
Q 3046 3098 3046 2112 
z
M 2432 2080 
Q 2432 3091 2217 3625 
Q 2003 4160 1587 4160 
Q 1190 4160 979 3622 
Q 768 3085 768 2106 
Q 768 1120 979 598 
Q 1190 77 1600 77 
Q 2003 77 2217 598 
Q 2432 1120 2432 2080 
z
" transform="scale(0.015625)"/>
        <path id="STIXGeneral-Regular-2e" d="M 1158 275 
Q 1158 134 1052 32 
Q 947 -70 800 -70 
Q 653 -70 550 32 
Q 448 134 448 281 
Q 448 429 553 534 
Q 659 640 806 640 
Q 947 640 1052 531 
Q 1158 422 1158 275 
z
" transform="scale(0.015625)"/>
        <path id="STIXGeneral-Regular-32" d="M 3034 877 
L 2688 0 
L 186 0 
L 186 77 
L 1325 1286 
Q 1773 1754 1965 2144 
Q 2157 2534 2157 2950 
Q 2157 3379 1920 3616 
Q 1683 3853 1267 3853 
Q 922 3853 720 3673 
Q 518 3494 326 3021 
L 192 3053 
Q 301 3648 630 3987 
Q 960 4326 1523 4326 
Q 2054 4326 2380 4006 
Q 2707 3686 2707 3200 
Q 2707 2477 1888 1613 
L 832 486 
L 2330 486 
Q 2541 486 2665 569 
Q 2790 653 2944 915 
L 3034 877 
z
" transform="scale(0.015625)"/>
        <path id="STIXGeneral-Regular-36" d="M 2854 4378 
L 2867 4275 
Q 2112 4154 1606 3664 
Q 1101 3174 973 2451 
Q 1344 2739 1786 2739 
Q 2349 2739 2672 2380 
Q 2995 2022 2995 1402 
Q 2995 774 2669 378 
Q 2291 -90 1651 -90 
Q 870 -90 518 557 
Q 218 1107 218 1786 
Q 218 2835 915 3552 
Q 1312 3962 1731 4131 
Q 2150 4301 2854 4378 
z
M 2419 1203 
Q 2419 2445 1555 2445 
Q 1235 2445 1024 2275 
Q 813 2106 813 1702 
Q 813 954 1046 522 
Q 1280 90 1722 90 
Q 2061 90 2240 394 
Q 2419 698 2419 1203 
z
" transform="scale(0.015625)"/>
        <path id="STIXGeneral-Regular-34" d="M 3027 1069 
L 2368 1069 
L 2368 0 
L 1869 0 
L 1869 1069 
L 77 1069 
L 77 1478 
L 2086 4326 
L 2368 4326 
L 2368 1478 
L 3027 1478 
L 3027 1069 
z
M 1869 1478 
L 1869 3674 
L 333 1478 
L 1869 1478 
z
" transform="scale(0.015625)"/>
       </defs>
       <use xlink:href="#STIXGeneral-Regular-30"/>
       <use xlink:href="#STIXGeneral-Regular-2e" x="49.999985"/>
       <use xlink:href="#STIXGeneral-Regular-32" x="74.999969"/>
       <use xlink:href="#STIXGeneral-Regular-36" x="124.999954"/>
       <use xlink:href="#STIXGeneral-Regular-34" x="174.999939"/>
      </g>
     </g>
    </g>
    <g id="xtick_2">
     <g id="line2d_3">
      <path d="M 346.962012 302.18325 
L 346.962012 10.8 
" clip-path="url(#p5d6aea9101)" style="fill: none; stroke-dasharray: 2.96,1.28; stroke-dashoffset: 0; stroke: #b0b0b0; stroke-opacity: 0.5; stroke-width: 0.8"/>
     </g>
     <g id="line2d_4">
      <g>
       <use xlink:href="#mbab9339d81" x="346.962012" y="302.18325" style="stroke: #000000; stroke-width: 2"/>
      </g>
     </g>
     <g id="text_2">
      <!-- 0.282 -->
      <g transform="translate(334.587012 313.195906) scale(0.11 -0.11)">
       <defs>
        <path id="STIXGeneral-Regular-38" d="M 2848 992 
Q 2848 499 2505 204 
Q 2163 -90 1587 -90 
Q 1050 -90 704 204 
Q 358 499 358 954 
Q 358 1293 524 1533 
Q 691 1773 1190 2125 
Q 710 2522 553 2765 
Q 397 3008 397 3328 
Q 397 3782 745 4054 
Q 1094 4326 1638 4326 
Q 2106 4326 2410 4060 
Q 2714 3795 2714 3411 
Q 2714 3059 2531 2848 
Q 2349 2637 1856 2374 
Q 2432 1990 2640 1689 
Q 2848 1389 2848 992 
z
M 2272 3411 
Q 2272 3744 2086 3945 
Q 1901 4147 1574 4147 
Q 1248 4147 1059 3977 
Q 870 3808 870 3513 
Q 870 3219 1059 2979 
Q 1248 2739 1670 2490 
Q 1997 2682 2134 2896 
Q 2272 3110 2272 3411 
z
M 1734 1741 
L 1357 1997 
Q 1075 1766 960 1545 
Q 845 1325 845 1011 
Q 845 576 1065 333 
Q 1286 90 1658 90 
Q 1971 90 2166 285 
Q 2362 480 2362 794 
Q 2362 1082 2214 1299 
Q 2067 1517 1734 1741 
z
" transform="scale(0.015625)"/>
       </defs>
       <use xlink:href="#STIXGeneral-Regular-30"/>
       <use xlink:href="#STIXGeneral-Regular-2e" x="49.999985"/>
       <use xlink:href="#STIXGeneral-Regular-32" x="74.999969"/>
       <use xlink:href="#STIXGeneral-Regular-38" x="124.999954"/>
       <use xlink:href="#STIXGeneral-Regular-32" x="174.999939"/>
      </g>
     </g>
    </g>
    <g id="xtick_3">
     <g id="line2d_5">
      <path d="M 260.832848 302.18325 
L 260.832848 10.8 
" clip-path="url(#p5d6aea9101)" style="fill: none; stroke-dasharray: 2.96,1.28; stroke-dashoffset: 0; stroke: #b0b0b0; stroke-opacity: 0.5; stroke-width: 0.8"/>
     </g>
     <g id="line2d_6">
      <g>
       <use xlink:href="#mbab9339d81" x="260.832848" y="302.18325" style="stroke: #000000; stroke-width: 2"/>
      </g>
     </g>
     <g id="text_3">
      <!-- 0.276 -->
      <g transform="translate(248.457848 313.195906) scale(0.11 -0.11)">
       <defs>
        <path id="STIXGeneral-Regular-37" d="M 2874 4134 
L 1517 -51 
L 1101 -51 
L 2368 3763 
L 992 3763 
Q 717 3763 582 3667 
Q 448 3571 243 3238 
L 128 3296 
L 512 4237 
L 2874 4237 
L 2874 4134 
z
" transform="scale(0.015625)"/>
       </defs>
       <use xlink:href="#STIXGeneral-Regular-30"/>
       <use xlink:href="#STIXGeneral-Regular-2e" x="49.999985"/>
       <use xlink:href="#STIXGeneral-Regular-32" x="74.999969"/>
       <use xlink:href="#STIXGeneral-Regular-37" x="124.999954"/>
       <use xlink:href="#STIXGeneral-Regular-36" x="174.999939"/>
      </g>
     </g>
    </g>
    <g id="xtick_4">
     <g id="line2d_7">
      <path d="M 174.703684 302.18325 
L 174.703684 10.8 
" clip-path="url(#p5d6aea9101)" style="fill: none; stroke-dasharray: 2.96,1.28; stroke-dashoffset: 0; stroke: #b0b0b0; stroke-opacity: 0.5; stroke-width: 0.8"/>
     </g>
     <g id="line2d_8">
      <g>
       <use xlink:href="#mbab9339d81" x="174.703684" y="302.18325" style="stroke: #000000; stroke-width: 2"/>
      </g>
     </g>
     <g id="text_4">
      <!-- 0.270 -->
      <g transform="translate(162.328684 313.195906) scale(0.11 -0.11)">
       <use xlink:href="#STIXGeneral-Regular-30"/>
       <use xlink:href="#STIXGeneral-Regular-2e" x="49.999985"/>
       <use xlink:href="#STIXGeneral-Regular-32" x="74.999969"/>
       <use xlink:href="#STIXGeneral-Regular-37" x="124.999954"/>
       <use xlink:href="#STIXGeneral-Regular-30" x="174.999939"/>
      </g>
     </g>
    </g>
    <g id="xtick_5">
     <g id="line2d_9">
      <path d="M 433.091175 302.18325 
L 433.091175 10.8 
" clip-path="url(#p5d6aea9101)" style="fill: none; stroke-dasharray: 2.96,1.28; stroke-dashoffset: 0; stroke: #b0b0b0; stroke-opacity: 0.5; stroke-width: 0.8"/>
     </g>
     <g id="line2d_10">
      <g>
       <use xlink:href="#mbab9339d81" x="433.091175" y="302.18325" style="stroke: #000000; stroke-width: 2"/>
      </g>
     </g>
     <g id="text_5">
      <!-- 0.288 -->
      <g transform="translate(420.716175 313.195906) scale(0.11 -0.11)">
       <use xlink:href="#STIXGeneral-Regular-30"/>
       <use xlink:href="#STIXGeneral-Regular-2e" x="49.999985"/>
       <use xlink:href="#STIXGeneral-Regular-32" x="74.999969"/>
       <use xlink:href="#STIXGeneral-Regular-38" x="124.999954"/>
       <use xlink:href="#STIXGeneral-Regular-38" x="174.999939"/>
      </g>
     </g>
    </g>
    <g id="xtick_6">
     <g id="line2d_11">
      <defs>
       <path id="mab0a1ea216" d="M 0 0 
L 0 -4 
" style="stroke: #000000"/>
      </defs>
      <g>
       <use xlink:href="#mab0a1ea216" x="71.348687" y="302.18325" style="stroke: #000000"/>
      </g>
     </g>
    </g>
    <g id="xtick_7">
     <g id="line2d_12">
      <g>
       <use xlink:href="#mab0a1ea216" x="140.252018" y="302.18325" style="stroke: #000000"/>
      </g>
     </g>
    </g>
    <g id="xtick_8">
     <g id="line2d_13">
      <g>
       <use xlink:href="#mab0a1ea216" x="123.026186" y="302.18325" style="stroke: #000000"/>
      </g>
     </g>
    </g>
    <g id="xtick_9">
     <g id="line2d_14">
      <g>
       <use xlink:href="#mab0a1ea216" x="105.800353" y="302.18325" style="stroke: #000000"/>
      </g>
     </g>
    </g>
    <g id="xtick_10">
     <g id="line2d_15">
      <g>
       <use xlink:href="#mab0a1ea216" x="157.477851" y="302.18325" style="stroke: #000000"/>
      </g>
     </g>
    </g>
    <g id="xtick_11">
     <g id="line2d_16">
      <g>
       <use xlink:href="#mab0a1ea216" x="191.929517" y="302.18325" style="stroke: #000000"/>
      </g>
     </g>
    </g>
    <g id="xtick_12">
     <g id="line2d_17">
      <g>
       <use xlink:href="#mab0a1ea216" x="209.155349" y="302.18325" style="stroke: #000000"/>
      </g>
     </g>
    </g>
    <g id="xtick_13">
     <g id="line2d_18">
      <g>
       <use xlink:href="#mab0a1ea216" x="226.381182" y="302.18325" style="stroke: #000000"/>
      </g>
     </g>
    </g>
    <g id="xtick_14">
     <g id="line2d_19">
      <g>
       <use xlink:href="#mab0a1ea216" x="243.607015" y="302.18325" style="stroke: #000000"/>
      </g>
     </g>
    </g>
    <g id="xtick_15">
     <g id="line2d_20">
      <g>
       <use xlink:href="#mab0a1ea216" x="381.413677" y="302.18325" style="stroke: #000000"/>
      </g>
     </g>
    </g>
    <g id="xtick_16">
     <g id="line2d_21">
      <g>
       <use xlink:href="#mab0a1ea216" x="295.284513" y="302.18325" style="stroke: #000000"/>
      </g>
     </g>
    </g>
    <g id="xtick_17">
     <g id="line2d_22">
      <g>
       <use xlink:href="#mab0a1ea216" x="415.865343" y="302.18325" style="stroke: #000000"/>
      </g>
     </g>
    </g>
    <g id="xtick_18">
     <g id="line2d_23">
      <g>
       <use xlink:href="#mab0a1ea216" x="329.736179" y="302.18325" style="stroke: #000000"/>
      </g>
     </g>
    </g>
    <g id="xtick_19">
     <g id="line2d_24">
      <g>
       <use xlink:href="#mab0a1ea216" x="364.187844" y="302.18325" style="stroke: #000000"/>
      </g>
     </g>
    </g>
    <g id="xtick_20">
     <g id="line2d_25">
      <g>
       <use xlink:href="#mab0a1ea216" x="278.05868" y="302.18325" style="stroke: #000000"/>
      </g>
     </g>
    </g>
    <g id="xtick_21">
     <g id="line2d_26">
      <g>
       <use xlink:href="#mab0a1ea216" x="398.63951" y="302.18325" style="stroke: #000000"/>
      </g>
     </g>
    </g>
    <g id="xtick_22">
     <g id="line2d_27">
      <g>
       <use xlink:href="#mab0a1ea216" x="312.510346" y="302.18325" style="stroke: #000000"/>
      </g>
     </g>
    </g>
    <g id="text_6">
     <!-- $T~/~J_\parallel$ -->
     <g transform="translate(235.743433 329.10325) scale(0.14 -0.14)">
      <defs>
       <path id="STIXGeneral-Italic-54" d="M 4051 4179 
L 3770 3130 
L 3661 3142 
Q 3680 3302 3680 3437 
Q 3680 3955 3034 3955 
L 2662 3955 
L 1786 819 
Q 1696 506 1696 397 
Q 1696 250 1766 195 
Q 1837 141 2035 122 
L 2259 102 
L 2259 0 
L 416 0 
L 416 102 
Q 749 134 889 230 
Q 1030 326 1101 582 
L 2016 3955 
Q 1254 3955 988 3817 
Q 723 3680 493 3162 
L 378 3187 
L 646 4179 
L 4051 4179 
z
" transform="scale(0.015625)"/>
       <path id="STIXGeneral-Regular-2f" d="M 1837 4326 
L 378 -90 
L -58 -90 
L 1408 4326 
L 1837 4326 
z
" transform="scale(0.015625)"/>
       <path id="STIXGeneral-Italic-4a" d="M 3142 4179 
L 3142 4077 
Q 2867 4038 2784 3964 
Q 2701 3891 2618 3603 
L 1958 1254 
Q 1773 589 1504 237 
Q 1235 -115 710 -115 
Q 371 -115 166 38 
Q -38 192 -38 448 
Q -38 602 42 704 
Q 122 806 250 806 
Q 378 806 477 720 
Q 576 634 576 512 
Q 576 474 566 419 
Q 557 365 557 339 
Q 557 90 781 90 
Q 1005 90 1120 499 
L 1933 3405 
Q 2010 3686 2010 3814 
Q 2010 3942 1914 3996 
Q 1818 4051 1517 4077 
L 1517 4179 
L 3142 4179 
z
" transform="scale(0.015625)"/>
       <path id="STIXGeneral-Regular-2225" d="M 2522 -1210 
L 2099 -1210 
L 2099 4416 
L 2522 4416 
L 2522 -1210 
z
M 1248 -1210 
L 826 -1210 
L 826 4416 
L 1248 4416 
L 1248 -1210 
z
" transform="scale(0.015625)"/>
      </defs>
      <use xlink:href="#STIXGeneral-Italic-54" transform="translate(0 0.40625)"/>
      <use xlink:href="#STIXGeneral-Regular-2f" transform="translate(79.666411 0.40625)"/>
      <use xlink:href="#STIXGeneral-Italic-4a" transform="translate(131.532818 0.40625)"/>
      <use xlink:href="#STIXGeneral-Regular-2225" transform="translate(186.04081 -12.821875) scale(0.7)"/>
     </g>
    </g>
   </g>
   <g id="matplotlib.axis_2">
    <g id="ytick_1">
     <g id="line2d_28">
      <path d="M 54.806865 253.773082 
L 450 253.773082 
" clip-path="url(#p5d6aea9101)" style="fill: none; stroke-dasharray: 2.96,1.28; stroke-dashoffset: 0; stroke: #b0b0b0; stroke-opacity: 0.5; stroke-width: 0.8"/>
     </g>
     <g id="line2d_29">
      <defs>
       <path id="mcaef504fdb" d="M 0 0 
L 6 0 
" style="stroke: #000000; stroke-width: 2"/>
      </defs>
      <g>
       <use xlink:href="#mcaef504fdb" x="54.806865" y="253.773082" style="stroke: #000000; stroke-width: 2"/>
      </g>
     </g>
     <g id="text_7">
      <!-- 1.12 -->
      <g transform="translate(32.056865 257.52941) scale(0.11 -0.11)">
       <defs>
        <path id="STIXGeneral-Regular-31" d="M 2522 0 
L 755 0 
L 755 96 
Q 1107 115 1235 227 
Q 1363 339 1363 608 
L 1363 3482 
Q 1363 3795 1171 3795 
Q 1082 3795 883 3718 
L 710 3654 
L 710 3744 
L 1856 4326 
L 1914 4307 
L 1914 486 
Q 1914 275 2042 185 
Q 2170 96 2522 96 
L 2522 0 
z
" transform="scale(0.015625)"/>
       </defs>
       <use xlink:href="#STIXGeneral-Regular-31"/>
       <use xlink:href="#STIXGeneral-Regular-2e" x="49.999985"/>
       <use xlink:href="#STIXGeneral-Regular-31" x="74.999969"/>
       <use xlink:href="#STIXGeneral-Regular-32" x="124.999954"/>
      </g>
     </g>
    </g>
    <g id="ytick_2">
     <g id="line2d_30">
      <path d="M 54.806865 77.775485 
L 450 77.775485 
" clip-path="url(#p5d6aea9101)" style="fill: none; stroke-dasharray: 2.96,1.28; stroke-dashoffset: 0; stroke: #b0b0b0; stroke-opacity: 0.5; stroke-width: 0.8"/>
     </g>
     <g id="line2d_31">
      <g>
       <use xlink:href="#mcaef504fdb" x="54.806865" y="77.775485" style="stroke: #000000; stroke-width: 2"/>
      </g>
     </g>
     <g id="text_8">
      <!-- 1.60 -->
      <g transform="translate(32.056865 81.531813) scale(0.11 -0.11)">
       <use xlink:href="#STIXGeneral-Regular-31"/>
       <use xlink:href="#STIXGeneral-Regular-2e" x="49.999985"/>
       <use xlink:href="#STIXGeneral-Regular-36" x="74.999969"/>
       <use xlink:href="#STIXGeneral-Regular-30" x="124.999954"/>
      </g>
     </g>
    </g>
    <g id="ytick_3">
     <g id="line2d_32">
      <path d="M 54.806865 136.441351 
L 450 136.441351 
" clip-path="url(#p5d6aea9101)" style="fill: none; stroke-dasharray: 2.96,1.28; stroke-dashoffset: 0; stroke: #b0b0b0; stroke-opacity: 0.5; stroke-width: 0.8"/>
     </g>
     <g id="line2d_33">
      <g>
       <use xlink:href="#mcaef504fdb" x="54.806865" y="136.441351" style="stroke: #000000; stroke-width: 2"/>
      </g>
     </g>
     <g id="text_9">
      <!-- 1.44 -->
      <g transform="translate(32.056865 140.197679) scale(0.11 -0.11)">
       <use xlink:href="#STIXGeneral-Regular-31"/>
       <use xlink:href="#STIXGeneral-Regular-2e" x="49.999985"/>
       <use xlink:href="#STIXGeneral-Regular-34" x="74.999969"/>
       <use xlink:href="#STIXGeneral-Regular-34" x="124.999954"/>
      </g>
     </g>
    </g>
    <g id="ytick_4">
     <g id="line2d_34">
      <path d="M 54.806865 195.107216 
L 450 195.107216 
" clip-path="url(#p5d6aea9101)" style="fill: none; stroke-dasharray: 2.96,1.28; stroke-dashoffset: 0; stroke: #b0b0b0; stroke-opacity: 0.5; stroke-width: 0.8"/>
     </g>
     <g id="line2d_35">
      <g>
       <use xlink:href="#mcaef504fdb" x="54.806865" y="195.107216" style="stroke: #000000; stroke-width: 2"/>
      </g>
     </g>
     <g id="text_10">
      <!-- 1.28 -->
      <g transform="translate(32.056865 198.863544) scale(0.11 -0.11)">
       <use xlink:href="#STIXGeneral-Regular-31"/>
       <use xlink:href="#STIXGeneral-Regular-2e" x="49.999985"/>
       <use xlink:href="#STIXGeneral-Regular-32" x="74.999969"/>
       <use xlink:href="#STIXGeneral-Regular-38" x="124.999954"/>
      </g>
     </g>
    </g>
    <g id="ytick_5">
     <g id="line2d_36">
      <path d="M 54.806865 19.109619 
L 450 19.109619 
" clip-path="url(#p5d6aea9101)" style="fill: none; stroke-dasharray: 2.96,1.28; stroke-dashoffset: 0; stroke: #b0b0b0; stroke-opacity: 0.5; stroke-width: 0.8"/>
     </g>
     <g id="line2d_37">
      <g>
       <use xlink:href="#mcaef504fdb" x="54.806865" y="19.109619" style="stroke: #000000; stroke-width: 2"/>
      </g>
     </g>
     <g id="text_11">
      <!-- 1.76 -->
      <g transform="translate(32.056865 22.865947) scale(0.11 -0.11)">
       <use xlink:href="#STIXGeneral-Regular-31"/>
       <use xlink:href="#STIXGeneral-Regular-2e" x="49.999985"/>
       <use xlink:href="#STIXGeneral-Regular-37" x="74.999969"/>
       <use xlink:href="#STIXGeneral-Regular-36" x="124.999954"/>
      </g>
     </g>
    </g>
    <g id="ytick_6">
     <g id="line2d_38">
      <defs>
       <path id="ma4b6cc5dfd" d="M 0 0 
L 4 0 
" style="stroke: #000000"/>
      </defs>
      <g>
       <use xlink:href="#ma4b6cc5dfd" x="54.806865" y="288.972601" style="stroke: #000000"/>
      </g>
     </g>
    </g>
    <g id="ytick_7">
     <g id="line2d_39">
      <g>
       <use xlink:href="#ma4b6cc5dfd" x="54.806865" y="242.039909" style="stroke: #000000"/>
      </g>
     </g>
    </g>
    <g id="ytick_8">
     <g id="line2d_40">
      <g>
       <use xlink:href="#ma4b6cc5dfd" x="54.806865" y="265.506255" style="stroke: #000000"/>
      </g>
     </g>
    </g>
    <g id="ytick_9">
     <g id="line2d_41">
      <g>
       <use xlink:href="#ma4b6cc5dfd" x="54.806865" y="277.239428" style="stroke: #000000"/>
      </g>
     </g>
    </g>
    <g id="ytick_10">
     <g id="line2d_42">
      <g>
       <use xlink:href="#ma4b6cc5dfd" x="54.806865" y="230.306736" style="stroke: #000000"/>
      </g>
     </g>
    </g>
    <g id="ytick_11">
     <g id="line2d_43">
      <g>
       <use xlink:href="#ma4b6cc5dfd" x="54.806865" y="218.573562" style="stroke: #000000"/>
      </g>
     </g>
    </g>
    <g id="ytick_12">
     <g id="line2d_44">
      <g>
       <use xlink:href="#ma4b6cc5dfd" x="54.806865" y="206.840389" style="stroke: #000000"/>
      </g>
     </g>
    </g>
    <g id="ytick_13">
     <g id="line2d_45">
      <g>
       <use xlink:href="#ma4b6cc5dfd" x="54.806865" y="183.374043" style="stroke: #000000"/>
      </g>
     </g>
    </g>
    <g id="ytick_14">
     <g id="line2d_46">
      <g>
       <use xlink:href="#ma4b6cc5dfd" x="54.806865" y="171.64087" style="stroke: #000000"/>
      </g>
     </g>
    </g>
    <g id="ytick_15">
     <g id="line2d_47">
      <g>
       <use xlink:href="#ma4b6cc5dfd" x="54.806865" y="159.907697" style="stroke: #000000"/>
      </g>
     </g>
    </g>
    <g id="ytick_16">
     <g id="line2d_48">
      <g>
       <use xlink:href="#ma4b6cc5dfd" x="54.806865" y="54.309139" style="stroke: #000000"/>
      </g>
     </g>
    </g>
    <g id="ytick_17">
     <g id="line2d_49">
      <g>
       <use xlink:href="#ma4b6cc5dfd" x="54.806865" y="42.575965" style="stroke: #000000"/>
      </g>
     </g>
    </g>
    <g id="ytick_18">
     <g id="line2d_50">
      <g>
       <use xlink:href="#ma4b6cc5dfd" x="54.806865" y="30.842792" style="stroke: #000000"/>
      </g>
     </g>
    </g>
    <g id="ytick_19">
     <g id="line2d_51">
      <g>
       <use xlink:href="#ma4b6cc5dfd" x="54.806865" y="148.174524" style="stroke: #000000"/>
      </g>
     </g>
    </g>
    <g id="ytick_20">
     <g id="line2d_52">
      <g>
       <use xlink:href="#ma4b6cc5dfd" x="54.806865" y="124.708177" style="stroke: #000000"/>
      </g>
     </g>
    </g>
    <g id="ytick_21">
     <g id="line2d_53">
      <g>
       <use xlink:href="#ma4b6cc5dfd" x="54.806865" y="112.975004" style="stroke: #000000"/>
      </g>
     </g>
    </g>
    <g id="ytick_22">
     <g id="line2d_54">
      <g>
       <use xlink:href="#ma4b6cc5dfd" x="54.806865" y="101.241831" style="stroke: #000000"/>
      </g>
     </g>
    </g>
    <g id="ytick_23">
     <g id="line2d_55">
      <g>
       <use xlink:href="#ma4b6cc5dfd" x="54.806865" y="89.508658" style="stroke: #000000"/>
      </g>
     </g>
    </g>
    <g id="ytick_24">
     <g id="line2d_56">
      <g>
       <use xlink:href="#ma4b6cc5dfd" x="54.806865" y="66.042312" style="stroke: #000000"/>
      </g>
     </g>
    </g>
    <g id="text_12">
     <!-- $U_L$ -->
     <g transform="translate(11.816865 159.753187) scale(0.14 -0.14)">
      <defs>
       <path id="STIXGeneral-Italic-55" d="M 4896 4179 
L 4896 4077 
Q 4762 4045 4694 4016 
Q 4627 3987 4563 3945 
Q 4499 3904 4451 3789 
Q 4403 3674 4358 3539 
Q 4314 3405 4230 3123 
L 3699 1299 
Q 3482 557 3078 218 
Q 2694 -115 2067 -115 
Q 1440 -115 1046 179 
Q 653 474 653 934 
Q 653 1286 934 2317 
L 1267 3526 
Q 1325 3731 1325 3814 
Q 1325 3942 1213 4006 
Q 1101 4070 813 4077 
L 813 4179 
L 2554 4179 
L 2554 4077 
Q 2227 4045 2102 3936 
Q 1978 3827 1888 3494 
L 1485 2048 
Q 1229 1146 1229 902 
Q 1229 563 1481 355 
Q 1734 147 2112 147 
Q 2650 147 2976 492 
Q 3302 838 3520 1632 
L 3930 3123 
Q 4077 3667 4077 3782 
Q 4077 3923 3981 3987 
Q 3885 4051 3629 4077 
L 3629 4179 
L 4896 4179 
z
" transform="scale(0.015625)"/>
       <path id="STIXGeneral-Italic-4c" d="M 3578 1152 
L 3206 0 
L -51 0 
L -51 102 
Q 218 128 301 211 
Q 384 294 474 602 
L 1254 3405 
Q 1325 3642 1325 3802 
Q 1325 3942 1225 4000 
Q 1126 4058 832 4077 
L 832 4179 
L 2579 4179 
L 2579 4077 
Q 2285 4058 2147 3955 
Q 2010 3853 1933 3584 
L 1165 838 
Q 1101 595 1101 493 
Q 1101 346 1241 288 
Q 1382 230 1773 230 
Q 2266 230 2480 275 
Q 2694 320 2925 474 
Q 3187 646 3450 1190 
L 3578 1152 
z
" transform="scale(0.015625)"/>
      </defs>
      <use xlink:href="#STIXGeneral-Italic-55" transform="translate(0 0.703125)"/>
      <use xlink:href="#STIXGeneral-Italic-4c" transform="translate(72.199982 -12.525) scale(0.7)"/>
     </g>
    </g>
   </g>
   <g id="line2d_57">
    <defs>
     <path id="maf9c8e8a0b" d="M -3 3 
L 3 3 
L 3 -3 
L -3 -3 
z
" style="stroke: #00305d; stroke-linejoin: miter"/>
    </defs>
    <g clip-path="url(#p5d6aea9101)">
     <use xlink:href="#maf9c8e8a0b" x="92.745406" y="264.830924" style="fill-opacity: 0; stroke: #00305d; stroke-linejoin: miter"/>
     <use xlink:href="#maf9c8e8a0b" x="127.873685" y="259.149708" style="fill-opacity: 0; stroke: #00305d; stroke-linejoin: miter"/>
     <use xlink:href="#maf9c8e8a0b" x="163.001963" y="250.847411" style="fill-opacity: 0; stroke: #00305d; stroke-linejoin: miter"/>
     <use xlink:href="#maf9c8e8a0b" x="198.130242" y="242.534964" style="fill-opacity: 0; stroke: #00305d; stroke-linejoin: miter"/>
     <use xlink:href="#maf9c8e8a0b" x="233.258521" y="231.551156" style="fill-opacity: 0; stroke: #00305d; stroke-linejoin: miter"/>
     <use xlink:href="#maf9c8e8a0b" x="268.386799" y="220.18833" style="fill-opacity: 0; stroke: #00305d; stroke-linejoin: miter"/>
     <use xlink:href="#maf9c8e8a0b" x="303.515078" y="204.060962" style="fill-opacity: 0; stroke: #00305d; stroke-linejoin: miter"/>
     <use xlink:href="#maf9c8e8a0b" x="338.643357" y="190.788128" style="fill-opacity: 0; stroke: #00305d; stroke-linejoin: miter"/>
     <use xlink:href="#maf9c8e8a0b" x="373.771635" y="174.287003" style="fill-opacity: 0; stroke: #00305d; stroke-linejoin: miter"/>
     <use xlink:href="#maf9c8e8a0b" x="408.899914" y="154.562547" style="fill-opacity: 0; stroke: #00305d; stroke-linejoin: miter"/>
    </g>
   </g>
   <g id="line2d_58">
    <path d="M 92.745406 264.830924 
L 127.873685 259.149708 
L 163.001963 250.847411 
L 198.130242 242.534964 
L 233.258521 231.551156 
L 268.386799 220.18833 
L 303.515078 204.060962 
L 338.643357 190.788128 
L 373.771635 174.287003 
L 408.899914 154.562547 
" clip-path="url(#p5d6aea9101)" style="fill: none; stroke: #00305d; stroke-opacity: 0.5; stroke-width: 1.5; stroke-linecap: square"/>
   </g>
   <g id="line2d_59">
    <defs>
     <path id="m5d6ef376d3" d="M -3 3 
L 3 3 
L 3 -3 
L -3 -3 
z
" style="stroke: #94c356; stroke-linejoin: miter"/>
    </defs>
    <g clip-path="url(#p5d6aea9101)">
     <use xlink:href="#m5d6ef376d3" x="92.745406" y="277.901312" style="fill-opacity: 0; stroke: #94c356; stroke-linejoin: miter"/>
     <use xlink:href="#m5d6ef376d3" x="127.873685" y="274.892986" style="fill-opacity: 0; stroke: #94c356; stroke-linejoin: miter"/>
     <use xlink:href="#m5d6ef376d3" x="163.001963" y="266.15228" style="fill-opacity: 0; stroke: #94c356; stroke-linejoin: miter"/>
     <use xlink:href="#m5d6ef376d3" x="198.130242" y="252.501751" style="fill-opacity: 0; stroke: #94c356; stroke-linejoin: miter"/>
     <use xlink:href="#m5d6ef376d3" x="233.258521" y="232.978181" style="fill-opacity: 0; stroke: #94c356; stroke-linejoin: miter"/>
     <use xlink:href="#m5d6ef376d3" x="268.386799" y="207.228615" style="fill-opacity: 0; stroke: #94c356; stroke-linejoin: miter"/>
     <use xlink:href="#m5d6ef376d3" x="303.515078" y="175.595824" style="fill-opacity: 0; stroke: #94c356; stroke-linejoin: miter"/>
     <use xlink:href="#m5d6ef376d3" x="338.643357" y="129.064631" style="fill-opacity: 0; stroke: #94c356; stroke-linejoin: miter"/>
     <use xlink:href="#m5d6ef376d3" x="373.771635" y="90.628622" style="fill-opacity: 0; stroke: #94c356; stroke-linejoin: miter"/>
     <use xlink:href="#m5d6ef376d3" x="408.899914" y="35.081937" style="fill-opacity: 0; stroke: #94c356; stroke-linejoin: miter"/>
    </g>
   </g>
   <g id="line2d_60">
    <path d="M 92.745406 277.901312 
L 127.873685 274.892986 
L 163.001963 266.15228 
L 198.130242 252.501751 
L 233.258521 232.978181 
L 268.386799 207.228615 
L 303.515078 175.595824 
L 338.643357 129.064631 
L 373.771635 90.628622 
L 408.899914 35.081937 
" clip-path="url(#p5d6aea9101)" style="fill: none; stroke: #94c356; stroke-opacity: 0.5; stroke-width: 1.5; stroke-linecap: square"/>
   </g>
   <g id="line2d_61">
    <path d="M 236.768187 302.18325 
L 236.768187 230.415896 
" clip-path="url(#p5d6aea9101)" style="fill: none; stroke-dasharray: 7.4,3.2; stroke-dashoffset: 0; stroke: #1f77b4; stroke-opacity: 0.75; stroke-width: 2"/>
   </g>
   <g id="line2d_62">
    <path d="M 54.806865 230.415896 
L 236.768187 230.415896 
" clip-path="url(#p5d6aea9101)" style="fill: none; stroke-dasharray: 7.4,3.2; stroke-dashoffset: 0; stroke: #1f77b4; stroke-opacity: 0.75; stroke-width: 2"/>
   </g>
   <g id="patch_3">
    <path d="M 54.806865 302.18325 
L 54.806865 10.8 
" style="fill: none; stroke: #000000; stroke-width: 0.8; stroke-linejoin: miter; stroke-linecap: square"/>
   </g>
   <g id="patch_4">
    <path d="M 450 302.18325 
L 450 10.8 
" style="fill: none; stroke: #000000; stroke-width: 0.8; stroke-linejoin: miter; stroke-linecap: square"/>
   </g>
   <g id="patch_5">
    <path d="M 54.806865 302.18325 
L 450 302.18325 
" style="fill: none; stroke: #000000; stroke-width: 0.8; stroke-linejoin: miter; stroke-linecap: square"/>
   </g>
   <g id="patch_6">
    <path d="M 54.806865 10.8 
L 450 10.8 
" style="fill: none; stroke: #000000; stroke-width: 0.8; stroke-linejoin: miter; stroke-linecap: square"/>
   </g>
   <g id="legend_1">
    <g id="patch_7">
     <path d="M 64.606865 83.74 
L 192.986865 83.74 
Q 195.786865 83.74 195.786865 80.94 
L 195.786865 20.6 
Q 195.786865 17.8 192.986865 17.8 
L 64.606865 17.8 
Q 61.806865 17.8 61.806865 20.6 
L 61.806865 80.94 
Q 61.806865 83.74 64.606865 83.74 
z
" style="fill: #ffffff; opacity: 0.8; stroke: #cccccc; stroke-linejoin: miter"/>
    </g>
    <g id="line2d_63">
     <g>
      <use xlink:href="#maf9c8e8a0b" x="81.406865" y="28.3" style="fill-opacity: 0; stroke: #00305d; stroke-linejoin: miter"/>
     </g>
    </g>
    <g id="text_13">
     <!-- $L_\parallel = 64$ -->
     <g transform="translate(106.606865 33.2) scale(0.14 -0.14)">
      <defs>
       <path id="STIXGeneral-Regular-3d" d="M 4077 2048 
L 307 2048 
L 307 2470 
L 4077 2470 
L 4077 2048 
z
M 4077 768 
L 307 768 
L 307 1190 
L 4077 1190 
L 4077 768 
z
" transform="scale(0.015625)"/>
      </defs>
      <use xlink:href="#STIXGeneral-Italic-4c" transform="translate(0 0.59375)"/>
      <use xlink:href="#STIXGeneral-Regular-2225" transform="translate(65.707988 -12.634375) scale(0.7)"/>
      <use xlink:href="#STIXGeneral-Regular-3d" transform="translate(131.275349 0.59375)"/>
      <use xlink:href="#STIXGeneral-Regular-36" transform="translate(214.21533 0.59375)"/>
      <use xlink:href="#STIXGeneral-Regular-34" transform="translate(264.215314 0.59375)"/>
     </g>
    </g>
    <g id="line2d_64">
     <g>
      <use xlink:href="#m5d6ef376d3" x="81.406865" y="48.88" style="fill-opacity: 0; stroke: #94c356; stroke-linejoin: miter"/>
     </g>
    </g>
    <g id="text_14">
     <!-- $L_\parallel = 128$ -->
     <g transform="translate(106.606865 53.78) scale(0.14 -0.14)">
      <use xlink:href="#STIXGeneral-Italic-4c" transform="translate(0 0.40625)"/>
      <use xlink:href="#STIXGeneral-Regular-2225" transform="translate(65.707988 -12.821875) scale(0.7)"/>
      <use xlink:href="#STIXGeneral-Regular-3d" transform="translate(131.275349 0.40625)"/>
      <use xlink:href="#STIXGeneral-Regular-31" transform="translate(214.21533 0.40625)"/>
      <use xlink:href="#STIXGeneral-Regular-32" transform="translate(264.215314 0.40625)"/>
      <use xlink:href="#STIXGeneral-Regular-38" transform="translate(314.215299 0.40625)"/>
     </g>
    </g>
    <g id="line2d_65">
     <path d="M 67.406865 69.46 
L 81.406865 69.46 
L 95.406865 69.46 
" style="fill: none; stroke-dasharray: 7.4,3.2; stroke-dashoffset: 0; stroke: #1f77b4; stroke-opacity: 0.75; stroke-width: 2"/>
    </g>
    <g id="text_15">
     <!-- $T_c / J_\parallel = 0.2743$ -->
     <g transform="translate(106.606865 74.36) scale(0.14 -0.14)">
      <defs>
       <path id="STIXGeneral-Italic-63" d="M 2240 685 
L 2342 621 
Q 2048 250 1769 90 
Q 1491 -70 1133 -70 
Q 678 -70 435 179 
Q 192 429 192 915 
Q 192 1344 409 1744 
Q 627 2144 979 2432 
Q 1472 2822 2048 2822 
Q 2342 2822 2531 2675 
Q 2720 2528 2720 2304 
Q 2720 2176 2630 2086 
Q 2541 1997 2413 1997 
Q 2285 1997 2224 2070 
Q 2163 2144 2163 2253 
Q 2163 2310 2211 2403 
Q 2259 2496 2259 2560 
Q 2259 2688 2022 2688 
Q 1619 2688 1325 2381 
Q 742 1766 742 890 
Q 742 544 889 352 
Q 1037 160 1312 160 
Q 1562 160 1766 281 
Q 1971 403 2240 685 
z
" transform="scale(0.015625)"/>
       <path id="STIXGeneral-Regular-33" d="M 390 3264 
L 288 3290 
Q 435 3770 748 4048 
Q 1062 4326 1542 4326 
Q 1990 4326 2265 4083 
Q 2541 3840 2541 3450 
Q 2541 2925 1946 2566 
Q 2298 2413 2477 2227 
Q 2758 1914 2758 1402 
Q 2758 890 2464 506 
Q 2246 211 1840 60 
Q 1434 -90 979 -90 
Q 262 -90 262 275 
Q 262 378 339 442 
Q 416 506 525 506 
Q 685 506 915 339 
Q 1197 141 1466 141 
Q 1818 141 2058 425 
Q 2298 710 2298 1120 
Q 2298 1856 1632 2048 
Q 1434 2112 979 2112 
L 979 2202 
Q 1338 2323 1517 2432 
Q 2035 2726 2035 3290 
Q 2035 3610 1852 3776 
Q 1670 3942 1344 3942 
Q 768 3942 390 3264 
z
" transform="scale(0.015625)"/>
      </defs>
      <use xlink:href="#STIXGeneral-Italic-54" transform="translate(0 0.40625)"/>
      <use xlink:href="#STIXGeneral-Italic-63" transform="translate(55.599991 -12.821875) scale(0.7)"/>
      <use xlink:href="#STIXGeneral-Regular-2f" transform="translate(91.089362 0.40625)"/>
      <use xlink:href="#STIXGeneral-Italic-4a" transform="translate(118.889349 0.40625)"/>
      <use xlink:href="#STIXGeneral-Regular-2225" transform="translate(173.397341 -12.821875) scale(0.7)"/>
      <use xlink:href="#STIXGeneral-Regular-3d" transform="translate(238.964701 0.40625)"/>
      <use xlink:href="#STIXGeneral-Regular-30" transform="translate(321.904682 0.40625)"/>
      <use xlink:href="#STIXGeneral-Regular-2e" transform="translate(371.904667 0.40625)"/>
      <use xlink:href="#STIXGeneral-Regular-32" transform="translate(396.904651 0.40625)"/>
      <use xlink:href="#STIXGeneral-Regular-37" transform="translate(446.904636 0.40625)"/>
      <use xlink:href="#STIXGeneral-Regular-34" transform="translate(496.904621 0.40625)"/>
      <use xlink:href="#STIXGeneral-Regular-33" transform="translate(546.904606 0.40625)"/>
     </g>
    </g>
   </g>
  </g>
 </g>
 <defs>
  <clipPath id="p5d6aea9101">
   <rect x="54.806865" y="10.8" width="395.193135" height="291.38325"/>
  </clipPath>
 </defs>
</svg>
