<?xml version="1.0" encoding="utf-8" standalone="no"?>
<!DOCTYPE svg PUBLIC "-//W3C//DTD SVG 1.1//EN"
  "http://www.w3.org/Graphics/SVG/1.1/DTD/svg11.dtd">
<svg xmlns:xlink="http://www.w3.org/1999/xlink" width="576pt" height="576pt" viewBox="0 0 576 576" xmlns="http://www.w3.org/2000/svg" version="1.1">
 <metadata>
  <rdf:RDF xmlns:dc="http://purl.org/dc/elements/1.1/" xmlns:cc="http://creativecommons.org/ns#" xmlns:rdf="http://www.w3.org/1999/02/22-rdf-syntax-ns#">
   <cc:Work>
    <dc:type rdf:resource="http://purl.org/dc/dcmitype/StillImage"/>
    <dc:date>2024-03-28T12:01:32.658491</dc:date>
    <dc:format>image/svg+xml</dc:format>
    <dc:creator>
     <cc:Agent>
      <dc:title>Matplotlib v3.7.1, https://matplotlib.org/</dc:title>
     </cc:Agent>
    </dc:creator>
   </cc:Work>
  </rdf:RDF>
 </metadata>
 <defs>
  <style type="text/css">*{stroke-linejoin: round; stroke-linecap: butt}</style>
 </defs>
 <g id="figure_1">
  <g id="patch_1">
   <path d="M 0 576 
L 576 576 
L 576 0 
L 0 0 
z
" style="fill: #ffffff"/>
  </g>
  <g id="axes_1">
   <g id="patch_2">
    <path d="M 57.072 522.58875 
L 561.465 522.58875 
L 561.465 32.94375 
L 57.072 32.94375 
z
" style="fill: #ffffff"/>
   </g>
   <g id="matplotlib.axis_1">
    <g id="xtick_1">
     <g id="line2d_1">
      <path d="M 309.2685 522.58875 
L 309.2685 32.94375 
" clip-path="url(#p8fa4548ded)" style="fill: none; stroke-dasharray: 2.96,1.28; stroke-dashoffset: 0; stroke: #b0b0b0; stroke-opacity: 0.5; stroke-width: 0.8"/>
     </g>
     <g id="line2d_2">
      <defs>
       <path id="mcbf0e6094d" d="M 0 0 
L 0 -6 
" style="stroke: #000000; stroke-width: 2"/>
      </defs>
      <g>
       <use xlink:href="#mcbf0e6094d" x="309.2685" y="522.58875" style="stroke: #000000; stroke-width: 2"/>
      </g>
     </g>
     <g id="text_1">
      <!-- 0 -->
      <g transform="translate(305.5185 536.333281) scale(0.15 -0.15)">
       <defs>
        <path id="STIXGeneral-Regular-30" d="M 3046 2112 
Q 3046 1683 2963 1302 
Q 2880 922 2717 602 
Q 2554 282 2266 96 
Q 1978 -90 1600 -90 
Q 1210 -90 915 108 
Q 621 307 461 640 
Q 301 973 227 1350 
Q 154 1728 154 2150 
Q 154 2746 301 3222 
Q 448 3699 790 4012 
Q 1133 4326 1626 4326 
Q 2253 4326 2649 3712 
Q 3046 3098 3046 2112 
z
M 2432 2080 
Q 2432 3091 2217 3625 
Q 2003 4160 1587 4160 
Q 1190 4160 979 3622 
Q 768 3085 768 2106 
Q 768 1120 979 598 
Q 1190 77 1600 77 
Q 2003 77 2217 598 
Q 2432 1120 2432 2080 
z
" transform="scale(0.015625)"/>
       </defs>
       <use xlink:href="#STIXGeneral-Regular-30"/>
      </g>
     </g>
    </g>
    <g id="xtick_2">
     <g id="line2d_3">
      <path d="M 393.334 522.58875 
L 393.334 32.94375 
" clip-path="url(#p8fa4548ded)" style="fill: none; stroke-dasharray: 2.96,1.28; stroke-dashoffset: 0; stroke: #b0b0b0; stroke-opacity: 0.5; stroke-width: 0.8"/>
     </g>
     <g id="line2d_4">
      <g>
       <use xlink:href="#mcbf0e6094d" x="393.334" y="522.58875" style="stroke: #000000; stroke-width: 2"/>
      </g>
     </g>
     <g id="text_2">
      <!-- 2 -->
      <g transform="translate(389.584 536.333281) scale(0.15 -0.15)">
       <defs>
        <path id="STIXGeneral-Regular-32" d="M 3034 877 
L 2688 0 
L 186 0 
L 186 77 
L 1325 1286 
Q 1773 1754 1965 2144 
Q 2157 2534 2157 2950 
Q 2157 3379 1920 3616 
Q 1683 3853 1267 3853 
Q 922 3853 720 3673 
Q 518 3494 326 3021 
L 192 3053 
Q 301 3648 630 3987 
Q 960 4326 1523 4326 
Q 2054 4326 2380 4006 
Q 2707 3686 2707 3200 
Q 2707 2477 1888 1613 
L 832 486 
L 2330 486 
Q 2541 486 2665 569 
Q 2790 653 2944 915 
L 3034 877 
z
" transform="scale(0.015625)"/>
       </defs>
       <use xlink:href="#STIXGeneral-Regular-32"/>
      </g>
     </g>
    </g>
    <g id="xtick_3">
     <g id="line2d_5">
      <path d="M 477.3995 522.58875 
L 477.3995 32.94375 
" clip-path="url(#p8fa4548ded)" style="fill: none; stroke-dasharray: 2.96,1.28; stroke-dashoffset: 0; stroke: #b0b0b0; stroke-opacity: 0.5; stroke-width: 0.8"/>
     </g>
     <g id="line2d_6">
      <g>
       <use xlink:href="#mcbf0e6094d" x="477.3995" y="522.58875" style="stroke: #000000; stroke-width: 2"/>
      </g>
     </g>
     <g id="text_3">
      <!-- 4 -->
      <g transform="translate(473.6495 536.333281) scale(0.15 -0.15)">
       <defs>
        <path id="STIXGeneral-Regular-34" d="M 3027 1069 
L 2368 1069 
L 2368 0 
L 1869 0 
L 1869 1069 
L 77 1069 
L 77 1478 
L 2086 4326 
L 2368 4326 
L 2368 1478 
L 3027 1478 
L 3027 1069 
z
M 1869 1478 
L 1869 3674 
L 333 1478 
L 1869 1478 
z
" transform="scale(0.015625)"/>
       </defs>
       <use xlink:href="#STIXGeneral-Regular-34"/>
      </g>
     </g>
    </g>
    <g id="xtick_4">
     <g id="line2d_7">
      <path d="M 561.465 522.58875 
L 561.465 32.94375 
" clip-path="url(#p8fa4548ded)" style="fill: none; stroke-dasharray: 2.96,1.28; stroke-dashoffset: 0; stroke: #b0b0b0; stroke-opacity: 0.5; stroke-width: 0.8"/>
     </g>
     <g id="line2d_8">
      <g>
       <use xlink:href="#mcbf0e6094d" x="561.465" y="522.58875" style="stroke: #000000; stroke-width: 2"/>
      </g>
     </g>
     <g id="text_4">
      <!-- 6 -->
      <g transform="translate(557.715 536.333281) scale(0.15 -0.15)">
       <defs>
        <path id="STIXGeneral-Regular-36" d="M 2854 4378 
L 2867 4275 
Q 2112 4154 1606 3664 
Q 1101 3174 973 2451 
Q 1344 2739 1786 2739 
Q 2349 2739 2672 2380 
Q 2995 2022 2995 1402 
Q 2995 774 2669 378 
Q 2291 -90 1651 -90 
Q 870 -90 518 557 
Q 218 1107 218 1786 
Q 218 2835 915 3552 
Q 1312 3962 1731 4131 
Q 2150 4301 2854 4378 
z
M 2419 1203 
Q 2419 2445 1555 2445 
Q 1235 2445 1024 2275 
Q 813 2106 813 1702 
Q 813 954 1046 522 
Q 1280 90 1722 90 
Q 2061 90 2240 394 
Q 2419 698 2419 1203 
z
" transform="scale(0.015625)"/>
       </defs>
       <use xlink:href="#STIXGeneral-Regular-36"/>
      </g>
     </g>
    </g>
    <g id="xtick_5">
     <g id="line2d_9">
      <path d="M 141.1375 522.58875 
L 141.1375 32.94375 
" clip-path="url(#p8fa4548ded)" style="fill: none; stroke-dasharray: 2.96,1.28; stroke-dashoffset: 0; stroke: #b0b0b0; stroke-opacity: 0.5; stroke-width: 0.8"/>
     </g>
     <g id="line2d_10">
      <g>
       <use xlink:href="#mcbf0e6094d" x="141.1375" y="522.58875" style="stroke: #000000; stroke-width: 2"/>
      </g>
     </g>
     <g id="text_5">
      <!-- −4 -->
      <g transform="translate(132.25 536.333281) scale(0.15 -0.15)">
       <defs>
        <path id="STIXGeneral-Regular-2212" d="M 3974 1408 
L 410 1408 
L 410 1830 
L 3974 1830 
L 3974 1408 
z
" transform="scale(0.015625)"/>
       </defs>
       <use xlink:href="#STIXGeneral-Regular-2212"/>
       <use xlink:href="#STIXGeneral-Regular-34" x="68.499985"/>
      </g>
     </g>
    </g>
    <g id="xtick_6">
     <g id="line2d_11">
      <path d="M 225.203 522.58875 
L 225.203 32.94375 
" clip-path="url(#p8fa4548ded)" style="fill: none; stroke-dasharray: 2.96,1.28; stroke-dashoffset: 0; stroke: #b0b0b0; stroke-opacity: 0.5; stroke-width: 0.8"/>
     </g>
     <g id="line2d_12">
      <g>
       <use xlink:href="#mcbf0e6094d" x="225.203" y="522.58875" style="stroke: #000000; stroke-width: 2"/>
      </g>
     </g>
     <g id="text_6">
      <!-- −2 -->
      <g transform="translate(216.3155 536.333281) scale(0.15 -0.15)">
       <use xlink:href="#STIXGeneral-Regular-2212"/>
       <use xlink:href="#STIXGeneral-Regular-32" x="68.499985"/>
      </g>
     </g>
    </g>
    <g id="xtick_7">
     <g id="line2d_13">
      <defs>
       <path id="m496b6330d5" d="M 0 0 
L 0 -4 
" style="stroke: #000000"/>
      </defs>
      <g>
       <use xlink:href="#m496b6330d5" x="275.6423" y="522.58875" style="stroke: #000000"/>
      </g>
     </g>
    </g>
    <g id="xtick_8">
     <g id="line2d_14">
      <g>
       <use xlink:href="#m496b6330d5" x="292.4554" y="522.58875" style="stroke: #000000"/>
      </g>
     </g>
    </g>
    <g id="xtick_9">
     <g id="line2d_15">
      <g>
       <use xlink:href="#m496b6330d5" x="326.0816" y="522.58875" style="stroke: #000000"/>
      </g>
     </g>
    </g>
    <g id="xtick_10">
     <g id="line2d_16">
      <g>
       <use xlink:href="#m496b6330d5" x="342.8947" y="522.58875" style="stroke: #000000"/>
      </g>
     </g>
    </g>
    <g id="xtick_11">
     <g id="line2d_17">
      <g>
       <use xlink:href="#m496b6330d5" x="359.7078" y="522.58875" style="stroke: #000000"/>
      </g>
     </g>
    </g>
    <g id="xtick_12">
     <g id="line2d_18">
      <g>
       <use xlink:href="#m496b6330d5" x="376.5209" y="522.58875" style="stroke: #000000"/>
      </g>
     </g>
    </g>
    <g id="xtick_13">
     <g id="line2d_19">
      <g>
       <use xlink:href="#m496b6330d5" x="410.1471" y="522.58875" style="stroke: #000000"/>
      </g>
     </g>
    </g>
    <g id="xtick_14">
     <g id="line2d_20">
      <g>
       <use xlink:href="#m496b6330d5" x="426.9602" y="522.58875" style="stroke: #000000"/>
      </g>
     </g>
    </g>
    <g id="xtick_15">
     <g id="line2d_21">
      <g>
       <use xlink:href="#m496b6330d5" x="443.7733" y="522.58875" style="stroke: #000000"/>
      </g>
     </g>
    </g>
    <g id="xtick_16">
     <g id="line2d_22">
      <g>
       <use xlink:href="#m496b6330d5" x="460.5864" y="522.58875" style="stroke: #000000"/>
      </g>
     </g>
    </g>
    <g id="xtick_17">
     <g id="line2d_23">
      <g>
       <use xlink:href="#m496b6330d5" x="494.2126" y="522.58875" style="stroke: #000000"/>
      </g>
     </g>
    </g>
    <g id="xtick_18">
     <g id="line2d_24">
      <g>
       <use xlink:href="#m496b6330d5" x="511.0257" y="522.58875" style="stroke: #000000"/>
      </g>
     </g>
    </g>
    <g id="xtick_19">
     <g id="line2d_25">
      <g>
       <use xlink:href="#m496b6330d5" x="527.8388" y="522.58875" style="stroke: #000000"/>
      </g>
     </g>
    </g>
    <g id="xtick_20">
     <g id="line2d_26">
      <g>
       <use xlink:href="#m496b6330d5" x="544.6519" y="522.58875" style="stroke: #000000"/>
      </g>
     </g>
    </g>
    <g id="xtick_21">
     <g id="line2d_27">
      <g>
       <use xlink:href="#m496b6330d5" x="191.5768" y="522.58875" style="stroke: #000000"/>
      </g>
     </g>
    </g>
    <g id="xtick_22">
     <g id="line2d_28">
      <g>
       <use xlink:href="#m496b6330d5" x="242.0161" y="522.58875" style="stroke: #000000"/>
      </g>
     </g>
    </g>
    <g id="xtick_23">
     <g id="line2d_29">
      <g>
       <use xlink:href="#m496b6330d5" x="157.9506" y="522.58875" style="stroke: #000000"/>
      </g>
     </g>
    </g>
    <g id="xtick_24">
     <g id="line2d_30">
      <g>
       <use xlink:href="#m496b6330d5" x="124.3244" y="522.58875" style="stroke: #000000"/>
      </g>
     </g>
    </g>
    <g id="xtick_25">
     <g id="line2d_31">
      <g>
       <use xlink:href="#m496b6330d5" x="90.6982" y="522.58875" style="stroke: #000000"/>
      </g>
     </g>
    </g>
    <g id="xtick_26">
     <g id="line2d_32">
      <g>
       <use xlink:href="#m496b6330d5" x="107.5113" y="522.58875" style="stroke: #000000"/>
      </g>
     </g>
    </g>
    <g id="xtick_27">
     <g id="line2d_33">
      <g>
       <use xlink:href="#m496b6330d5" x="174.7637" y="522.58875" style="stroke: #000000"/>
      </g>
     </g>
    </g>
    <g id="xtick_28">
     <g id="line2d_34">
      <g>
       <use xlink:href="#m496b6330d5" x="208.3899" y="522.58875" style="stroke: #000000"/>
      </g>
     </g>
    </g>
    <g id="xtick_29">
     <g id="line2d_35">
      <g>
       <use xlink:href="#m496b6330d5" x="258.8292" y="522.58875" style="stroke: #000000"/>
      </g>
     </g>
    </g>
    <g id="text_7">
     <!-- $\beta J_\perp$ -->
     <g transform="translate(293.2135 556.565156) scale(0.19 -0.19)">
      <defs>
       <path id="STIXGeneral-Italic-3b2" d="M -58 -813 
L 819 2355 
Q 902 2662 995 2908 
Q 1088 3155 1235 3433 
Q 1382 3712 1555 3901 
Q 1728 4090 1977 4214 
Q 2227 4339 2515 4339 
Q 2816 4339 3053 4182 
Q 3290 4026 3290 3693 
Q 3290 3328 3037 3001 
Q 2784 2675 2470 2534 
L 2470 2528 
Q 2682 2509 2858 2320 
Q 3034 2131 3034 1818 
Q 3034 1376 2694 873 
Q 2355 371 1901 122 
Q 1562 -70 1107 -70 
Q 922 -70 685 38 
L 442 -813 
Q 352 -1126 243 -1312 
L -256 -1312 
Q -154 -1158 -58 -813 
z
M 1491 3053 
L 762 288 
Q 762 186 848 118 
Q 934 51 1069 51 
Q 1594 51 2029 704 
Q 2464 1357 2464 2029 
Q 2464 2406 2208 2406 
Q 2150 2406 2044 2380 
Q 1939 2355 1888 2355 
Q 1805 2355 1750 2396 
Q 1696 2438 1696 2496 
Q 1696 2650 1978 2650 
Q 1997 2650 2099 2630 
Q 2202 2611 2253 2611 
Q 2451 2611 2640 2969 
Q 2829 3328 2829 3622 
Q 2829 3962 2713 4083 
Q 2598 4205 2400 4205 
Q 2080 4205 1846 3865 
Q 1613 3526 1491 3053 
z
" transform="scale(0.015625)"/>
       <path id="STIXGeneral-Italic-4a" d="M 3142 4179 
L 3142 4077 
Q 2867 4038 2784 3964 
Q 2701 3891 2618 3603 
L 1958 1254 
Q 1773 589 1504 237 
Q 1235 -115 710 -115 
Q 371 -115 166 38 
Q -38 192 -38 448 
Q -38 602 42 704 
Q 122 806 250 806 
Q 378 806 477 720 
Q 576 634 576 512 
Q 576 474 566 419 
Q 557 365 557 339 
Q 557 90 781 90 
Q 1005 90 1120 499 
L 1933 3405 
Q 2010 3686 2010 3814 
Q 2010 3942 1914 3996 
Q 1818 4051 1517 4077 
L 1517 4179 
L 3142 4179 
z
" transform="scale(0.015625)"/>
       <path id="STIXGeneral-Regular-27c2" d="M 4102 0 
L 333 0 
L 333 422 
L 2010 422 
L 2010 4237 
L 2432 4237 
L 2432 422 
L 4102 422 
L 4102 0 
z
" transform="scale(0.015625)"/>
      </defs>
      <use xlink:href="#STIXGeneral-Italic-3b2" transform="translate(0 0.203125)"/>
      <use xlink:href="#STIXGeneral-Italic-4a" transform="translate(50.599991 0.203125)"/>
      <use xlink:href="#STIXGeneral-Regular-27c2" transform="translate(105.107982 -13.025) scale(0.7)"/>
     </g>
    </g>
   </g>
   <g id="matplotlib.axis_2">
    <g id="ytick_1">
     <g id="line2d_36">
      <path d="M 57.072 277.76625 
L 561.465 277.76625 
" clip-path="url(#p8fa4548ded)" style="fill: none; stroke-dasharray: 2.96,1.28; stroke-dashoffset: 0; stroke: #b0b0b0; stroke-opacity: 0.5; stroke-width: 0.8"/>
     </g>
     <g id="line2d_37">
      <defs>
       <path id="m0f0a322dbd" d="M 0 0 
L 6 0 
" style="stroke: #000000; stroke-width: 2"/>
      </defs>
      <g>
       <use xlink:href="#m0f0a322dbd" x="57.072" y="277.76625" style="stroke: #000000; stroke-width: 2"/>
      </g>
     </g>
     <g id="text_8">
      <!-- 0 -->
      <g transform="translate(46.072 282.888516) scale(0.15 -0.15)">
       <use xlink:href="#STIXGeneral-Regular-30"/>
      </g>
     </g>
    </g>
    <g id="ytick_2">
     <g id="line2d_38">
      <path d="M 57.072 196.15875 
L 561.465 196.15875 
" clip-path="url(#p8fa4548ded)" style="fill: none; stroke-dasharray: 2.96,1.28; stroke-dashoffset: 0; stroke: #b0b0b0; stroke-opacity: 0.5; stroke-width: 0.8"/>
     </g>
     <g id="line2d_39">
      <g>
       <use xlink:href="#m0f0a322dbd" x="57.072" y="196.15875" style="stroke: #000000; stroke-width: 2"/>
      </g>
     </g>
     <g id="text_9">
      <!-- 2 -->
      <g transform="translate(46.072 201.281016) scale(0.15 -0.15)">
       <use xlink:href="#STIXGeneral-Regular-32"/>
      </g>
     </g>
    </g>
    <g id="ytick_3">
     <g id="line2d_40">
      <path d="M 57.072 114.55125 
L 561.465 114.55125 
" clip-path="url(#p8fa4548ded)" style="fill: none; stroke-dasharray: 2.96,1.28; stroke-dashoffset: 0; stroke: #b0b0b0; stroke-opacity: 0.5; stroke-width: 0.8"/>
     </g>
     <g id="line2d_41">
      <g>
       <use xlink:href="#m0f0a322dbd" x="57.072" y="114.55125" style="stroke: #000000; stroke-width: 2"/>
      </g>
     </g>
     <g id="text_10">
      <!-- 4 -->
      <g transform="translate(46.072 119.673516) scale(0.15 -0.15)">
       <use xlink:href="#STIXGeneral-Regular-34"/>
      </g>
     </g>
    </g>
    <g id="ytick_4">
     <g id="line2d_42">
      <path d="M 57.072 32.94375 
L 561.465 32.94375 
" clip-path="url(#p8fa4548ded)" style="fill: none; stroke-dasharray: 2.96,1.28; stroke-dashoffset: 0; stroke: #b0b0b0; stroke-opacity: 0.5; stroke-width: 0.8"/>
     </g>
     <g id="line2d_43">
      <g>
       <use xlink:href="#m0f0a322dbd" x="57.072" y="32.94375" style="stroke: #000000; stroke-width: 2"/>
      </g>
     </g>
     <g id="text_11">
      <!-- 6 -->
      <g transform="translate(46.072 38.066016) scale(0.15 -0.15)">
       <use xlink:href="#STIXGeneral-Regular-36"/>
      </g>
     </g>
    </g>
    <g id="ytick_5">
     <g id="line2d_44">
      <path d="M 57.072 440.98125 
L 561.465 440.98125 
" clip-path="url(#p8fa4548ded)" style="fill: none; stroke-dasharray: 2.96,1.28; stroke-dashoffset: 0; stroke: #b0b0b0; stroke-opacity: 0.5; stroke-width: 0.8"/>
     </g>
     <g id="line2d_45">
      <g>
       <use xlink:href="#m0f0a322dbd" x="57.072" y="440.98125" style="stroke: #000000; stroke-width: 2"/>
      </g>
     </g>
     <g id="text_12">
      <!-- −4 -->
      <g transform="translate(35.797 446.103516) scale(0.15 -0.15)">
       <use xlink:href="#STIXGeneral-Regular-2212"/>
       <use xlink:href="#STIXGeneral-Regular-34" x="68.499985"/>
      </g>
     </g>
    </g>
    <g id="ytick_6">
     <g id="line2d_46">
      <path d="M 57.072 359.37375 
L 561.465 359.37375 
" clip-path="url(#p8fa4548ded)" style="fill: none; stroke-dasharray: 2.96,1.28; stroke-dashoffset: 0; stroke: #b0b0b0; stroke-opacity: 0.5; stroke-width: 0.8"/>
     </g>
     <g id="line2d_47">
      <g>
       <use xlink:href="#m0f0a322dbd" x="57.072" y="359.37375" style="stroke: #000000; stroke-width: 2"/>
      </g>
     </g>
     <g id="text_13">
      <!-- −2 -->
      <g transform="translate(35.797 364.496016) scale(0.15 -0.15)">
       <use xlink:href="#STIXGeneral-Regular-2212"/>
       <use xlink:href="#STIXGeneral-Regular-32" x="68.499985"/>
      </g>
     </g>
    </g>
    <g id="ytick_7">
     <g id="line2d_48">
      <defs>
       <path id="mb09bb42661" d="M 0 0 
L 4 0 
" style="stroke: #000000"/>
      </defs>
      <g>
       <use xlink:href="#mb09bb42661" x="57.072" y="310.40925" style="stroke: #000000"/>
      </g>
     </g>
    </g>
    <g id="ytick_8">
     <g id="line2d_49">
      <g>
       <use xlink:href="#mb09bb42661" x="57.072" y="294.08775" style="stroke: #000000"/>
      </g>
     </g>
    </g>
    <g id="ytick_9">
     <g id="line2d_50">
      <g>
       <use xlink:href="#mb09bb42661" x="57.072" y="261.44475" style="stroke: #000000"/>
      </g>
     </g>
    </g>
    <g id="ytick_10">
     <g id="line2d_51">
      <g>
       <use xlink:href="#mb09bb42661" x="57.072" y="245.12325" style="stroke: #000000"/>
      </g>
     </g>
    </g>
    <g id="ytick_11">
     <g id="line2d_52">
      <g>
       <use xlink:href="#mb09bb42661" x="57.072" y="228.80175" style="stroke: #000000"/>
      </g>
     </g>
    </g>
    <g id="ytick_12">
     <g id="line2d_53">
      <g>
       <use xlink:href="#mb09bb42661" x="57.072" y="212.48025" style="stroke: #000000"/>
      </g>
     </g>
    </g>
    <g id="ytick_13">
     <g id="line2d_54">
      <g>
       <use xlink:href="#mb09bb42661" x="57.072" y="179.83725" style="stroke: #000000"/>
      </g>
     </g>
    </g>
    <g id="ytick_14">
     <g id="line2d_55">
      <g>
       <use xlink:href="#mb09bb42661" x="57.072" y="163.51575" style="stroke: #000000"/>
      </g>
     </g>
    </g>
    <g id="ytick_15">
     <g id="line2d_56">
      <g>
       <use xlink:href="#mb09bb42661" x="57.072" y="147.19425" style="stroke: #000000"/>
      </g>
     </g>
    </g>
    <g id="ytick_16">
     <g id="line2d_57">
      <g>
       <use xlink:href="#mb09bb42661" x="57.072" y="130.87275" style="stroke: #000000"/>
      </g>
     </g>
    </g>
    <g id="ytick_17">
     <g id="line2d_58">
      <g>
       <use xlink:href="#mb09bb42661" x="57.072" y="98.22975" style="stroke: #000000"/>
      </g>
     </g>
    </g>
    <g id="ytick_18">
     <g id="line2d_59">
      <g>
       <use xlink:href="#mb09bb42661" x="57.072" y="81.90825" style="stroke: #000000"/>
      </g>
     </g>
    </g>
    <g id="ytick_19">
     <g id="line2d_60">
      <g>
       <use xlink:href="#mb09bb42661" x="57.072" y="65.58675" style="stroke: #000000"/>
      </g>
     </g>
    </g>
    <g id="ytick_20">
     <g id="line2d_61">
      <g>
       <use xlink:href="#mb09bb42661" x="57.072" y="49.26525" style="stroke: #000000"/>
      </g>
     </g>
    </g>
    <g id="ytick_21">
     <g id="line2d_62">
      <g>
       <use xlink:href="#mb09bb42661" x="57.072" y="392.01675" style="stroke: #000000"/>
      </g>
     </g>
    </g>
    <g id="ytick_22">
     <g id="line2d_63">
      <g>
       <use xlink:href="#mb09bb42661" x="57.072" y="343.05225" style="stroke: #000000"/>
      </g>
     </g>
    </g>
    <g id="ytick_23">
     <g id="line2d_64">
      <g>
       <use xlink:href="#mb09bb42661" x="57.072" y="424.65975" style="stroke: #000000"/>
      </g>
     </g>
    </g>
    <g id="ytick_24">
     <g id="line2d_65">
      <g>
       <use xlink:href="#mb09bb42661" x="57.072" y="457.30275" style="stroke: #000000"/>
      </g>
     </g>
    </g>
    <g id="ytick_25">
     <g id="line2d_66">
      <g>
       <use xlink:href="#mb09bb42661" x="57.072" y="489.94575" style="stroke: #000000"/>
      </g>
     </g>
    </g>
    <g id="ytick_26">
     <g id="line2d_67">
      <g>
       <use xlink:href="#mb09bb42661" x="57.072" y="473.62425" style="stroke: #000000"/>
      </g>
     </g>
    </g>
    <g id="ytick_27">
     <g id="line2d_68">
      <g>
       <use xlink:href="#mb09bb42661" x="57.072" y="408.33825" style="stroke: #000000"/>
      </g>
     </g>
    </g>
    <g id="ytick_28">
     <g id="line2d_69">
      <g>
       <use xlink:href="#mb09bb42661" x="57.072" y="375.69525" style="stroke: #000000"/>
      </g>
     </g>
    </g>
    <g id="ytick_29">
     <g id="line2d_70">
      <g>
       <use xlink:href="#mb09bb42661" x="57.072" y="326.73075" style="stroke: #000000"/>
      </g>
     </g>
    </g>
    <g id="text_14">
     <!-- $\beta J_\parallel$ -->
     <g transform="translate(26.667 292.68125) rotate(-90) scale(0.19 -0.19)">
      <defs>
       <path id="STIXGeneral-Regular-2225" d="M 2522 -1210 
L 2099 -1210 
L 2099 4416 
L 2522 4416 
L 2522 -1210 
z
M 1248 -1210 
L 826 -1210 
L 826 4416 
L 1248 4416 
L 1248 -1210 
z
" transform="scale(0.015625)"/>
      </defs>
      <use xlink:href="#STIXGeneral-Italic-3b2" transform="translate(0 0.203125)"/>
      <use xlink:href="#STIXGeneral-Italic-4a" transform="translate(50.599991 0.203125)"/>
      <use xlink:href="#STIXGeneral-Regular-2225" transform="translate(105.107982 -13.025) scale(0.7)"/>
     </g>
    </g>
   </g>
   <g id="line2d_71">
    <path d="M 57.072 277.766501 
L 185.411997 277.878778 
L 209.398686 278.118575 
L 224.082127 278.474854 
L 234.842511 278.948856 
L 243.361148 279.540546 
L 250.310563 280.237347 
L 256.251191 281.047616 
L 261.519296 281.988356 
L 266.114877 283.030653 
L 270.262108 284.196442 
L 273.96099 285.46094 
L 277.32361 286.837041 
L 280.462055 288.359612 
L 283.376326 290.025032 
L 286.066422 291.825589 
L 288.532343 293.748723 
L 290.77409 295.775975 
L 292.903749 298.007602 
L 294.809234 300.32062 
L 296.602631 302.843829 
L 298.283941 305.601908 
L 299.853164 308.626972 
L 301.198212 311.68321 
L 302.431173 314.995964 
L 303.552046 318.595283 
L 304.560832 322.516244 
L 305.457531 326.798084 
L 306.354229 332.24803 
L 307.026753 337.58743 
L 307.699277 344.854412 
L 308.259714 353.863069 
L 308.708063 365.852312 
L 308.932238 376.273339 
L 309.044325 384.545345 
L 309.045745 577 
M 309.491406 -1 
L 309.492675 170.987155 
L 309.828937 189.680188 
L 310.277286 201.669431 
L 310.837723 210.678088 
L 311.510247 217.94507 
L 312.294858 224.051886 
L 313.191557 229.322492 
L 314.200343 233.957085 
L 315.321216 238.088261 
L 316.554177 241.808273 
L 317.899225 245.183683 
L 319.35636 248.263865 
L 320.925583 251.086256 
L 322.71898 253.839445 
L 324.624465 256.342261 
L 326.642037 258.623527 
L 328.771696 260.705475 
L 331.12553 262.693909 
L 333.591451 264.491344 
L 336.281547 266.179961 
L 339.195818 267.746108 
L 342.334263 269.180991 
L 345.808971 270.519563 
L 349.61994 271.740716 
L 353.767171 272.831513 
L 358.362752 273.807594 
L 363.518769 274.672592 
L 369.459398 275.436269 
L 376.296725 276.084211 
L 384.479101 276.627003 
L 394.566961 277.061416 
L 407.569091 277.386609 
L 426.063501 277.608785 
L 457.111693 277.73031 
L 542.97059 277.765646 
L 561.465 277.765999 
L 561.465 277.765999 
" clip-path="url(#p8fa4548ded)" style="fill: none; stroke: #65b32e; stroke-width: 1.5; stroke-linecap: square"/>
   </g>
   <g id="line2d_72">
    <path d="M 57.072 273.703252 
L 76.014759 272.676369 
L 93.052034 271.532855 
L 108.407999 270.283594 
L 122.531003 268.914742 
L 135.533133 267.434161 
L 147.638565 265.833884 
L 158.959386 264.11377 
L 169.495595 262.290806 
L 179.471368 260.340985 
L 188.886704 258.275867 
L 197.853691 256.081964 
L 206.372328 253.769434 
L 214.442616 251.351537 
L 222.176642 248.806088 
L 229.686493 246.099903 
L 236.860083 243.279064 
L 243.809497 240.306969 
L 250.534737 237.187095 
L 257.035803 233.924444 
L 261.631383 231.414493 
L 264.994003 225.440546 
L 268.244536 219.217776 
L 271.382981 212.722844 
L 274.297252 206.190758 
L 277.099435 199.374821 
L 279.789531 192.248186 
L 282.36754 184.779867 
L 284.833461 176.933807 
L 287.187295 168.667674 
L 289.316955 160.391027 
L 291.334527 151.690873 
L 293.240011 142.523969 
L 295.033409 132.840623 
L 296.714719 122.583522 
L 298.283941 111.686359 
L 299.741077 100.072288 
L 301.086125 87.652295 
L 302.319085 74.323745 
L 303.439959 59.969748 
L 304.448745 44.460764 
L 305.457531 25.296092 
L 306.354229 3.403739 
L 306.506794 -1 
M 312.030206 -1 
L 312.855295 20.348668 
L 313.864081 40.573958 
L 314.984954 58.385086 
L 316.217915 74.323745 
L 317.562963 88.762618 
L 319.020098 101.970223 
L 320.589321 114.147073 
L 322.270631 125.447237 
L 324.064028 135.991884 
L 325.969513 145.878174 
L 327.987085 155.185306 
L 330.116744 163.978747 
L 332.358491 172.31328 
L 334.712325 180.235234 
L 337.178246 187.784163 
L 339.868342 195.293595 
L 342.670525 202.444182 
L 345.584796 209.270652 
L 348.611154 215.802738 
L 351.861687 222.281151 
L 355.224307 228.482171 
L 357.017704 231.522738 
L 363.294595 234.84983 
L 369.79566 238.043615 
L 376.5209 241.097637 
L 383.470315 244.006998 
L 390.643904 246.768297 
L 398.153755 249.417361 
L 405.887781 251.909082 
L 413.958069 254.275944 
L 422.476707 256.539663 
L 431.331606 258.661802 
L 440.634855 260.663239 
L 450.49854 262.556736 
L 460.922662 264.330472 
L 472.019308 265.991927 
L 483.900565 267.543784 
L 496.678521 268.985272 
L 510.465263 270.313465 
L 525.484966 271.532855 
L 541.849717 272.635486 
L 560.007865 273.632213 
L 561.465 273.703252 
L 561.465 273.703252 
" clip-path="url(#p8fa4548ded)" style="fill: none; stroke: #00305d; stroke-width: 1.5; stroke-linecap: square"/>
   </g>
   <g id="line2d_73">
    <path d="M 57.072 277.765999 
L 185.411997 277.653722 
L 209.398686 277.413925 
L 224.082127 277.057646 
L 234.842511 276.583644 
L 243.361148 275.991954 
L 250.310563 275.295153 
L 256.251191 274.484884 
L 261.519296 273.544144 
L 266.114877 272.501847 
L 270.262108 271.336058 
L 273.96099 270.07156 
L 277.32361 268.695459 
L 280.462055 267.172888 
L 283.376326 265.507468 
L 286.066422 263.706911 
L 288.532343 261.783777 
L 290.77409 259.756525 
L 292.903749 257.524898 
L 294.809234 255.21188 
L 296.602631 252.688671 
L 298.283941 249.930592 
L 299.853164 246.905528 
L 301.198212 243.84929 
L 302.431173 240.536536 
L 303.552046 236.937217 
L 304.560832 233.016256 
L 305.457531 228.734416 
L 306.354229 223.28447 
L 307.026753 217.94507 
L 307.699277 210.678088 
L 308.259714 201.669431 
L 308.708063 189.680188 
L 308.932238 179.259161 
L 309.044325 170.987155 
L 309.045594 -1 
M 309.491255 577 
L 309.492675 384.545345 
L 309.828937 365.852312 
L 310.277286 353.863069 
L 310.837723 344.854412 
L 311.510247 337.58743 
L 312.294858 331.480614 
L 313.191557 326.210008 
L 314.200343 321.575415 
L 315.321216 317.444239 
L 316.554177 313.724227 
L 317.899225 310.348817 
L 319.35636 307.268635 
L 320.925583 304.446244 
L 322.71898 301.693055 
L 324.624465 299.190239 
L 326.642037 296.908973 
L 328.771696 294.827025 
L 331.12553 292.838591 
L 333.591451 291.041156 
L 336.281547 289.352539 
L 339.195818 287.786392 
L 342.334263 286.351509 
L 345.808971 285.012937 
L 349.61994 283.791784 
L 353.767171 282.700987 
L 358.362752 281.724906 
L 363.518769 280.859908 
L 369.459398 280.096231 
L 376.296725 279.448289 
L 384.479101 278.905497 
L 394.566961 278.471084 
L 407.569091 278.145891 
L 426.063501 277.923715 
L 457.111693 277.80219 
L 542.97059 277.766854 
L 561.465 277.766501 
L 561.465 277.766501 
" clip-path="url(#p8fa4548ded)" style="fill: none; stroke: #65b32e; stroke-width: 1.5; stroke-linecap: square"/>
   </g>
   <g id="line2d_74">
    <path d="M 57.072 281.829248 
L 76.014759 282.856131 
L 93.052034 283.999645 
L 108.407999 285.248906 
L 122.531003 286.617758 
L 135.533133 288.098339 
L 147.638565 289.698616 
L 158.959386 291.41873 
L 169.495595 293.241694 
L 179.471368 295.191515 
L 188.886704 297.256633 
L 197.853691 299.450536 
L 206.372328 301.763066 
L 214.442616 304.180963 
L 222.176642 306.726412 
L 229.686493 309.432597 
L 236.860083 312.253436 
L 243.809497 315.225531 
L 250.534737 318.345405 
L 257.035803 321.608056 
L 261.631383 324.118007 
L 264.994003 330.091954 
L 268.244536 336.314724 
L 271.382981 342.809656 
L 274.297252 349.341742 
L 277.099435 356.157679 
L 279.789531 363.284314 
L 282.36754 370.752633 
L 284.833461 378.598693 
L 287.187295 386.864826 
L 289.316955 395.141473 
L 291.334527 403.841627 
L 293.240011 413.008531 
L 295.033409 422.691877 
L 296.714719 432.948978 
L 298.283941 443.846141 
L 299.741077 455.460212 
L 301.086125 467.880205 
L 302.319085 481.208755 
L 303.439959 495.562752 
L 304.448745 511.071736 
L 305.457531 530.236408 
L 306.354229 552.128761 
L 307.119412 577 
M 311.417588 577 
L 312.182771 552.128761 
L 313.079469 530.236408 
L 314.088255 511.071736 
L 315.209129 494.008277 
L 316.442089 478.617823 
L 317.787137 464.593553 
L 319.244273 451.707482 
L 320.813495 439.785228 
L 322.494805 428.690229 
L 324.288203 418.313413 
L 326.193687 408.56621 
L 328.211259 399.375665 
L 330.340919 390.680937 
L 332.582665 382.430735 
L 334.936499 374.581406 
L 337.514508 366.77099 
L 340.204604 359.347011 
L 343.006787 352.270873 
L 345.921058 345.5097 
L 348.947416 339.035226 
L 352.197949 332.609609 
L 355.560569 326.455375 
L 357.017704 324.009762 
L 363.294595 320.68267 
L 369.79566 317.488885 
L 376.5209 314.434863 
L 383.470315 311.525502 
L 390.643904 308.764203 
L 398.153755 306.115139 
L 405.887781 303.623418 
L 413.958069 301.256556 
L 422.476707 298.992837 
L 431.331606 296.870698 
L 440.634855 294.869261 
L 450.49854 292.975764 
L 460.922662 291.202028 
L 472.019308 289.540573 
L 483.900565 287.988716 
L 496.678521 286.547228 
L 510.465263 285.219035 
L 525.484966 283.999645 
L 541.849717 282.897014 
L 560.007865 281.900287 
L 561.465 281.829248 
L 561.465 281.829248 
" clip-path="url(#p8fa4548ded)" style="fill: none; stroke: #00305d; stroke-width: 1.5; stroke-linecap: square"/>
   </g>
   <g id="line2d_75">
    <path d="M 290.353763 553.191562 
L 309.2685 277.76625 
L 309.2685 277.76625 
" clip-path="url(#p8fa4548ded)" style="fill: none; stroke: #ff7f0e; stroke-width: 2; stroke-linecap: square"/>
   </g>
   <g id="patch_3">
    <path d="M 57.072 522.58875 
L 57.072 32.94375 
" style="fill: none; stroke: #000000; stroke-width: 0.8; stroke-linejoin: miter; stroke-linecap: square"/>
   </g>
   <g id="patch_4">
    <path d="M 561.465 522.58875 
L 561.465 32.94375 
" style="fill: none; stroke: #000000; stroke-width: 0.8; stroke-linejoin: miter; stroke-linecap: square"/>
   </g>
   <g id="patch_5">
    <path d="M 57.072 522.58875 
L 561.465 522.58875 
" style="fill: none; stroke: #000000; stroke-width: 0.8; stroke-linejoin: miter; stroke-linecap: square"/>
   </g>
   <g id="patch_6">
    <path d="M 57.072 32.94375 
L 561.465 32.94375 
" style="fill: none; stroke: #000000; stroke-width: 0.8; stroke-linejoin: miter; stroke-linecap: square"/>
   </g>
   <g id="text_15">
    <!-- Phase Diagram of the Ising-Model -->
    <g transform="translate(143.280375 26.94375) scale(0.24 -0.24)">
     <defs>
      <path id="STIXGeneral-Regular-50" d="M 102 4237 
L 1760 4237 
Q 2669 4237 3149 3834 
Q 3469 3565 3469 3072 
Q 3469 2560 3104 2234 
Q 2835 1990 2553 1916 
Q 2272 1843 1734 1843 
Q 1549 1843 1293 1862 
L 1293 717 
Q 1293 352 1398 246 
Q 1504 141 1894 122 
L 1894 0 
L 102 0 
L 102 122 
Q 474 147 557 256 
Q 640 365 640 781 
L 640 3526 
Q 640 3885 547 3987 
Q 454 4090 102 4115 
L 102 4237 
z
M 1293 3770 
L 1293 2118 
Q 1510 2099 1683 2099 
Q 2202 2099 2486 2352 
Q 2771 2605 2771 3040 
Q 2771 3558 2476 3779 
Q 2182 4000 1517 4000 
Q 1382 4000 1337 3952 
Q 1293 3904 1293 3770 
z
" transform="scale(0.015625)"/>
      <path id="STIXGeneral-Regular-68" d="M 3117 0 
L 1760 0 
L 1760 96 
Q 2042 128 2118 224 
Q 2195 320 2195 653 
L 2195 1920 
Q 2195 2598 1722 2598 
Q 1530 2598 1370 2508 
Q 1210 2419 1005 2195 
L 1005 653 
Q 1005 320 1081 224 
Q 1158 128 1440 96 
L 1440 0 
L 58 0 
L 58 96 
Q 333 134 400 224 
Q 467 314 467 653 
L 467 3667 
Q 467 3872 406 3933 
Q 346 3994 141 3994 
Q 83 3994 64 3987 
L 64 4090 
L 237 4141 
Q 730 4288 973 4371 
L 1005 4352 
L 1005 2406 
Q 1229 2694 1446 2819 
Q 1664 2944 1946 2944 
Q 2733 2944 2733 1926 
L 2733 653 
Q 2733 320 2793 233 
Q 2854 147 3117 96 
L 3117 0 
z
" transform="scale(0.015625)"/>
      <path id="STIXGeneral-Regular-61" d="M 2829 422 
L 2829 243 
Q 2586 -64 2253 -64 
Q 1888 -64 1843 403 
L 1837 403 
Q 1427 -64 909 -64 
Q 608 -64 422 112 
Q 237 288 237 602 
Q 237 1050 685 1350 
Q 992 1555 1837 1869 
L 1837 2214 
Q 1837 2502 1699 2646 
Q 1562 2790 1338 2790 
Q 1146 2790 1018 2697 
Q 890 2605 890 2477 
Q 890 2419 909 2348 
Q 928 2278 928 2208 
Q 928 2112 841 2029 
Q 755 1946 634 1946 
Q 525 1946 441 2029 
Q 358 2112 358 2240 
Q 358 2547 685 2752 
Q 986 2944 1421 2944 
Q 1939 2944 2176 2656 
Q 2291 2522 2323 2384 
Q 2355 2246 2355 1946 
L 2355 723 
Q 2355 301 2554 301 
Q 2682 301 2829 422 
z
M 1837 813 
L 1837 1715 
Q 1248 1510 1018 1293 
Q 800 1094 800 800 
Q 800 557 921 432 
Q 1043 307 1242 307 
Q 1453 307 1613 410 
Q 1747 506 1792 589 
Q 1837 672 1837 813 
z
" transform="scale(0.015625)"/>
      <path id="STIXGeneral-Regular-73" d="M 998 1926 
L 1664 1523 
Q 1984 1331 2105 1164 
Q 2227 998 2227 736 
Q 2227 416 1961 176 
Q 1696 -64 1331 -64 
Q 1030 -64 864 -6 
Q 691 51 570 51 
Q 461 51 416 -26 
L 333 -26 
L 333 979 
L 435 979 
Q 538 512 730 294 
Q 922 77 1248 77 
Q 1485 77 1632 211 
Q 1779 346 1779 550 
Q 1779 845 1440 1030 
L 1094 1222 
Q 326 1651 326 2150 
Q 326 2522 566 2730 
Q 806 2938 1210 2938 
Q 1491 2938 1638 2867 
Q 1754 2816 1818 2816 
Q 1862 2816 1920 2880 
L 1990 2880 
L 2022 2010 
L 1926 2010 
Q 1818 2445 1654 2621 
Q 1491 2797 1203 2797 
Q 986 2797 854 2688 
Q 723 2579 723 2362 
Q 723 2253 796 2128 
Q 870 2003 998 1926 
z
" transform="scale(0.015625)"/>
      <path id="STIXGeneral-Regular-65" d="M 2611 1050 
L 2714 1005 
Q 2330 -64 1376 -64 
Q 813 -64 486 329 
Q 160 723 160 1389 
Q 160 2074 525 2509 
Q 890 2944 1485 2944 
Q 2061 2944 2374 2502 
Q 2560 2246 2592 1773 
L 621 1773 
Q 646 1370 700 1158 
Q 755 947 915 730 
Q 1184 378 1626 378 
Q 1939 378 2153 531 
Q 2368 685 2611 1050 
z
M 634 1978 
L 1939 1978 
Q 1882 2381 1750 2547 
Q 1619 2714 1312 2714 
Q 1043 2714 864 2525 
Q 685 2336 634 1978 
z
" transform="scale(0.015625)"/>
      <path id="STIXGeneral-Regular-20" transform="scale(0.015625)"/>
      <path id="STIXGeneral-Regular-44" d="M 102 4237 
L 1830 4237 
Q 3078 4237 3750 3654 
Q 4384 3110 4384 2138 
Q 4384 966 3514 410 
Q 2880 0 1901 0 
L 102 0 
L 102 122 
Q 474 147 570 252 
Q 666 358 666 736 
L 666 3520 
Q 666 3891 570 3990 
Q 474 4090 102 4115 
L 102 4237 
z
M 1318 3731 
L 1318 538 
Q 1318 365 1379 301 
Q 1440 237 1626 237 
Q 2125 237 2432 307 
Q 2739 378 3021 570 
Q 3686 1018 3686 2099 
Q 3686 3027 3078 3558 
Q 2803 3802 2476 3901 
Q 2150 4000 1658 4000 
Q 1472 4000 1395 3942 
Q 1318 3885 1318 3731 
z
" transform="scale(0.015625)"/>
      <path id="STIXGeneral-Regular-69" d="M 1152 4045 
Q 1152 3904 1056 3811 
Q 960 3718 819 3718 
Q 685 3718 592 3811 
Q 499 3904 499 4045 
Q 499 4179 595 4275 
Q 691 4371 826 4371 
Q 966 4371 1059 4275 
Q 1152 4179 1152 4045 
z
M 1619 0 
L 102 0 
L 102 96 
Q 435 115 521 211 
Q 608 307 608 666 
L 608 2118 
Q 608 2342 563 2432 
Q 518 2522 397 2522 
Q 243 2522 128 2490 
L 128 2592 
L 1120 2944 
L 1146 2918 
L 1146 672 
Q 1146 314 1226 218 
Q 1306 122 1619 96 
L 1619 0 
z
" transform="scale(0.015625)"/>
      <path id="STIXGeneral-Regular-67" d="M 3008 2483 
L 2477 2483 
Q 2598 2208 2598 1946 
Q 2598 1453 2265 1203 
Q 1933 954 1600 954 
Q 1530 954 1357 973 
L 1235 986 
Q 1107 947 979 812 
Q 851 678 851 582 
Q 851 435 1350 410 
L 2176 371 
Q 2528 358 2739 172 
Q 2950 -13 2950 -314 
Q 2950 -685 2566 -986 
Q 2035 -1395 1286 -1395 
Q 826 -1395 502 -1212 
Q 179 -1030 179 -774 
Q 179 -595 320 -419 
Q 461 -243 806 6 
Q 602 102 534 172 
Q 467 243 467 346 
Q 467 531 762 787 
Q 909 915 1037 1043 
Q 717 1203 579 1401 
Q 442 1600 442 1901 
Q 442 2336 752 2640 
Q 1062 2944 1510 2944 
Q 1766 2944 2022 2848 
L 2163 2797 
Q 2349 2733 2515 2733 
L 3008 2733 
L 3008 2483 
z
M 973 2163 
L 973 2144 
Q 973 1683 1155 1398 
Q 1338 1114 1632 1114 
Q 1850 1114 1978 1270 
Q 2106 1427 2106 1690 
Q 2106 2112 1914 2464 
Q 1754 2765 1446 2765 
Q 1222 2765 1097 2605 
Q 973 2445 973 2163 
z
M 2771 -410 
Q 2771 -230 2595 -163 
Q 2419 -96 1978 -96 
Q 1344 -96 941 -13 
Q 749 -243 688 -348 
Q 627 -454 627 -563 
Q 627 -774 880 -902 
Q 1133 -1030 1555 -1030 
Q 2099 -1030 2435 -860 
Q 2771 -691 2771 -410 
z
" transform="scale(0.015625)"/>
      <path id="STIXGeneral-Regular-72" d="M 1024 2931 
L 1024 2342 
Q 1267 2688 1430 2816 
Q 1594 2944 1792 2944 
Q 1958 2944 2051 2854 
Q 2144 2765 2144 2605 
Q 2144 2470 2077 2393 
Q 2010 2317 1894 2317 
Q 1773 2317 1638 2445 
Q 1536 2541 1472 2541 
Q 1338 2541 1181 2355 
Q 1024 2170 1024 2016 
L 1024 576 
Q 1024 301 1133 205 
Q 1242 109 1568 96 
L 1568 0 
L 32 0 
L 32 96 
Q 339 154 412 224 
Q 486 294 486 538 
L 486 2138 
Q 486 2349 438 2435 
Q 390 2522 269 2522 
Q 166 2522 45 2496 
L 45 2598 
Q 448 2726 992 2944 
L 1024 2931 
z
" transform="scale(0.015625)"/>
      <path id="STIXGeneral-Regular-6d" d="M 4960 0 
L 3565 0 
L 3565 96 
Q 3834 122 3907 208 
Q 3981 294 3981 576 
L 3981 1894 
Q 3981 2278 3869 2444 
Q 3757 2611 3488 2611 
Q 3264 2611 3107 2521 
Q 2950 2432 2803 2221 
L 2803 608 
Q 2803 301 2896 201 
Q 2989 102 3264 96 
L 3264 0 
L 1830 0 
L 1830 96 
Q 2112 115 2189 188 
Q 2266 262 2266 550 
L 2266 1901 
Q 2266 2611 1850 2611 
Q 1670 2611 1468 2531 
Q 1267 2451 1171 2336 
Q 1088 2240 1088 2227 
L 1088 448 
Q 1088 243 1177 176 
Q 1267 109 1523 96 
L 1523 0 
L 102 0 
L 102 96 
Q 371 102 460 195 
Q 550 288 550 563 
L 550 2150 
Q 550 2387 499 2480 
Q 448 2573 326 2573 
Q 230 2573 122 2547 
L 122 2656 
Q 557 2778 1011 2944 
L 1062 2925 
L 1062 2451 
L 1075 2451 
Q 1363 2752 1584 2848 
Q 1805 2944 2054 2944 
Q 2560 2944 2733 2406 
Q 3232 2944 3776 2944 
Q 4518 2944 4518 1792 
L 4518 493 
Q 4518 282 4582 202 
Q 4646 122 4794 109 
L 4960 96 
L 4960 0 
z
" transform="scale(0.015625)"/>
      <path id="STIXGeneral-Regular-6f" d="M 3008 1478 
Q 3008 806 2608 371 
Q 2208 -64 1568 -64 
Q 979 -64 582 368 
Q 186 800 186 1459 
Q 186 2125 582 2534 
Q 979 2944 1626 2944 
Q 2221 2944 2614 2537 
Q 3008 2131 3008 1478 
z
M 2432 1306 
Q 2432 2035 2112 2445 
Q 1856 2765 1504 2765 
Q 1171 2765 966 2493 
Q 762 2221 762 1747 
Q 762 928 1101 435 
Q 1318 115 1677 115 
Q 2029 115 2230 432 
Q 2432 749 2432 1306 
z
" transform="scale(0.015625)"/>
      <path id="STIXGeneral-Regular-66" d="M 134 2880 
L 659 2880 
Q 666 3264 710 3478 
Q 755 3693 883 3910 
Q 1152 4371 1786 4371 
Q 2074 4371 2262 4259 
Q 2451 4147 2451 3974 
Q 2451 3866 2374 3789 
Q 2298 3712 2182 3712 
Q 2029 3712 1894 3942 
Q 1741 4192 1555 4192 
Q 1197 4192 1197 3622 
L 1197 2880 
L 1978 2880 
L 1978 2675 
L 1197 2675 
L 1197 666 
Q 1197 307 1299 208 
Q 1402 109 1792 96 
L 1792 0 
L 128 0 
L 128 96 
Q 474 115 566 214 
Q 659 314 659 666 
L 659 2675 
L 134 2675 
L 134 2880 
z
" transform="scale(0.015625)"/>
      <path id="STIXGeneral-Regular-74" d="M 1702 493 
L 1786 422 
Q 1478 -64 1011 -64 
Q 448 -64 448 749 
L 448 2675 
L 109 2675 
Q 83 2694 83 2720 
Q 83 2771 192 2842 
Q 435 2982 813 3526 
Q 826 3546 874 3606 
Q 922 3667 941 3706 
Q 986 3706 986 3622 
L 986 2880 
L 1632 2880 
L 1632 2675 
L 986 2675 
L 986 845 
Q 986 538 1062 403 
Q 1139 269 1318 269 
Q 1510 269 1702 493 
z
" transform="scale(0.015625)"/>
      <path id="STIXGeneral-Regular-49" d="M 2016 0 
L 115 0 
L 115 122 
Q 518 134 627 240 
Q 736 346 736 717 
L 736 3526 
Q 736 3898 633 3994 
Q 531 4090 115 4115 
L 115 4237 
L 2016 4237 
L 2016 4115 
Q 1613 4096 1501 3993 
Q 1389 3891 1389 3526 
L 1389 717 
Q 1389 358 1504 246 
Q 1619 134 2016 122 
L 2016 0 
z
" transform="scale(0.015625)"/>
      <path id="STIXGeneral-Regular-6e" d="M 3104 0 
L 1773 0 
L 1779 96 
Q 2016 115 2096 233 
Q 2176 352 2176 672 
L 2176 1946 
Q 2176 2592 1709 2592 
Q 1549 2592 1408 2515 
Q 1267 2438 1050 2227 
L 1050 461 
Q 1050 269 1136 192 
Q 1222 115 1466 96 
L 1466 0 
L 115 0 
L 115 96 
Q 358 115 435 214 
Q 512 314 512 602 
L 512 2157 
Q 512 2394 467 2483 
Q 422 2573 288 2573 
Q 160 2573 102 2547 
L 102 2656 
Q 550 2784 979 2944 
L 1030 2925 
L 1030 2426 
L 1037 2426 
Q 1491 2944 1958 2944 
Q 2323 2944 2518 2688 
Q 2714 2432 2714 1958 
L 2714 544 
Q 2714 288 2790 205 
Q 2867 122 3104 96 
L 3104 0 
z
" transform="scale(0.015625)"/>
      <path id="STIXGeneral-Regular-2d" d="M 1824 1242 
L 250 1242 
L 250 1645 
L 1824 1645 
L 1824 1242 
z
" transform="scale(0.015625)"/>
      <path id="STIXGeneral-Regular-4d" d="M 5530 0 
L 3738 0 
L 3738 122 
Q 4115 147 4214 265 
Q 4314 384 4314 787 
L 4314 3661 
L 2682 0 
L 2592 0 
L 979 3514 
L 979 966 
Q 979 448 1088 294 
Q 1197 141 1574 122 
L 1574 0 
L 77 0 
L 77 122 
Q 358 141 480 205 
Q 602 269 650 432 
Q 698 595 698 966 
L 698 3514 
Q 698 3878 589 3984 
Q 480 4090 90 4115 
L 90 4237 
L 1357 4237 
L 2835 1024 
L 4250 4237 
L 5523 4237 
L 5523 4115 
Q 5178 4109 5072 3993 
Q 4966 3878 4966 3520 
L 4966 717 
Q 4966 378 5072 262 
Q 5178 147 5530 122 
L 5530 0 
z
" transform="scale(0.015625)"/>
      <path id="STIXGeneral-Regular-64" d="M 3142 269 
L 2202 -64 
L 2176 -45 
L 2176 365 
Q 1869 -64 1357 -64 
Q 826 -64 499 317 
Q 173 698 173 1312 
Q 173 1990 563 2467 
Q 954 2944 1504 2944 
Q 1850 2944 2176 2669 
L 2176 3667 
Q 2176 3866 2118 3930 
Q 2061 3994 1882 3994 
Q 1792 3994 1741 3987 
L 1741 4090 
Q 2323 4243 2682 4371 
L 2714 4358 
L 2714 730 
Q 2714 506 2768 435 
Q 2822 365 2995 365 
Q 3034 365 3142 371 
L 3142 269 
z
M 2176 653 
L 2176 2125 
Q 2176 2381 1981 2573 
Q 1786 2765 1523 2765 
Q 1158 2765 940 2438 
Q 723 2112 723 1568 
Q 723 979 963 624 
Q 1203 269 1606 269 
Q 1907 269 2080 474 
Q 2176 582 2176 653 
z
" transform="scale(0.015625)"/>
      <path id="STIXGeneral-Regular-6c" d="M 1645 0 
L 134 0 
L 134 96 
Q 435 122 531 221 
Q 627 320 627 589 
L 627 3590 
Q 627 3821 569 3910 
Q 512 4000 358 4000 
Q 224 4000 122 3987 
L 122 4090 
Q 730 4237 1133 4371 
L 1165 4346 
L 1165 557 
Q 1165 288 1254 201 
Q 1344 115 1645 96 
L 1645 0 
z
" transform="scale(0.015625)"/>
     </defs>
     <use xlink:href="#STIXGeneral-Regular-50"/>
     <use xlink:href="#STIXGeneral-Regular-68" x="55.699997"/>
     <use xlink:href="#STIXGeneral-Regular-61" x="105.699982"/>
     <use xlink:href="#STIXGeneral-Regular-73" x="150.099976"/>
     <use xlink:href="#STIXGeneral-Regular-65" x="188.999969"/>
     <use xlink:href="#STIXGeneral-Regular-20" x="233.399963"/>
     <use xlink:href="#STIXGeneral-Regular-44" x="258.399948"/>
     <use xlink:href="#STIXGeneral-Regular-69" x="330.59993"/>
     <use xlink:href="#STIXGeneral-Regular-61" x="358.399918"/>
     <use xlink:href="#STIXGeneral-Regular-67" x="402.799911"/>
     <use xlink:href="#STIXGeneral-Regular-72" x="452.799896"/>
     <use xlink:href="#STIXGeneral-Regular-61" x="486.099884"/>
     <use xlink:href="#STIXGeneral-Regular-6d" x="530.499878"/>
     <use xlink:href="#STIXGeneral-Regular-20" x="608.299866"/>
     <use xlink:href="#STIXGeneral-Regular-6f" x="633.29985"/>
     <use xlink:href="#STIXGeneral-Regular-66" x="683.299835"/>
     <use xlink:href="#STIXGeneral-Regular-20" x="716.599823"/>
     <use xlink:href="#STIXGeneral-Regular-74" x="741.599808"/>
     <use xlink:href="#STIXGeneral-Regular-68" x="769.399796"/>
     <use xlink:href="#STIXGeneral-Regular-65" x="819.39978"/>
     <use xlink:href="#STIXGeneral-Regular-20" x="863.799774"/>
     <use xlink:href="#STIXGeneral-Regular-49" x="888.799759"/>
     <use xlink:href="#STIXGeneral-Regular-73" x="922.099747"/>
     <use xlink:href="#STIXGeneral-Regular-69" x="960.999741"/>
     <use xlink:href="#STIXGeneral-Regular-6e" x="988.799728"/>
     <use xlink:href="#STIXGeneral-Regular-67" x="1038.799713"/>
     <use xlink:href="#STIXGeneral-Regular-2d" x="1088.799698"/>
     <use xlink:href="#STIXGeneral-Regular-4d" x="1122.099686"/>
     <use xlink:href="#STIXGeneral-Regular-6f" x="1210.99968"/>
     <use xlink:href="#STIXGeneral-Regular-64" x="1260.999664"/>
     <use xlink:href="#STIXGeneral-Regular-65" x="1310.999649"/>
     <use xlink:href="#STIXGeneral-Regular-6c" x="1355.399643"/>
    </g>
   </g>
   <g id="legend_1">
    <g id="patch_7">
     <path d="M 402.055 129.93875 
L 548.165 129.93875 
Q 551.965 129.93875 551.965 126.13875 
L 551.965 46.24375 
Q 551.965 42.44375 548.165 42.44375 
L 402.055 42.44375 
Q 398.255 42.44375 398.255 46.24375 
L 398.255 126.13875 
Q 398.255 129.93875 402.055 129.93875 
z
" style="fill: #ffffff; opacity: 0.8; stroke: #cccccc; stroke-linejoin: miter"/>
    </g>
    <g id="line2d_76">
     <path d="M 405.855 56.69375 
L 424.855 56.69375 
L 443.855 56.69375 
" style="fill: none; stroke: #65b32e; stroke-width: 1.5; stroke-linecap: square"/>
    </g>
    <g id="text_16">
     <!-- Ising -->
     <g transform="translate(459.055 63.34375) scale(0.19 -0.19)">
      <use xlink:href="#STIXGeneral-Regular-49"/>
      <use xlink:href="#STIXGeneral-Regular-73" x="33.299988"/>
      <use xlink:href="#STIXGeneral-Regular-69" x="72.199982"/>
      <use xlink:href="#STIXGeneral-Regular-6e" x="99.999969"/>
      <use xlink:href="#STIXGeneral-Regular-67" x="149.999954"/>
     </g>
    </g>
    <g id="line2d_77">
     <path d="M 405.855 83.635156 
L 424.855 83.635156 
L 443.855 83.635156 
" style="fill: none; stroke: #00305d; stroke-width: 1.5; stroke-linecap: square"/>
    </g>
    <g id="text_17">
     <!-- XY -->
     <g transform="translate(459.055 90.285156) scale(0.19 -0.19)">
      <defs>
       <path id="STIXGeneral-Regular-58" d="M 4506 0 
L 2611 0 
L 2611 122 
L 2778 134 
Q 3098 154 3098 320 
Q 3098 461 2771 947 
L 2163 1850 
L 1402 896 
Q 1062 474 1062 326 
Q 1062 230 1168 185 
Q 1274 141 1549 122 
L 1549 0 
L 64 0 
L 64 122 
Q 314 147 470 268 
Q 627 390 992 851 
L 1990 2099 
L 1312 3091 
Q 864 3744 665 3913 
Q 467 4083 141 4115 
L 141 4237 
L 2067 4237 
L 2067 4115 
L 1882 4109 
Q 1734 4102 1660 4064 
Q 1587 4026 1587 3923 
Q 1587 3885 1596 3843 
Q 1606 3802 1635 3744 
Q 1664 3686 1689 3638 
Q 1715 3590 1769 3507 
Q 1824 3424 1862 3366 
Q 1901 3309 1984 3190 
Q 2067 3072 2118 2995 
L 2400 2586 
L 3117 3482 
Q 3373 3795 3373 3910 
Q 3373 4019 3283 4064 
Q 3194 4109 2938 4115 
L 2938 4237 
L 4454 4237 
L 4454 4115 
Q 4147 4096 3968 3977 
Q 3789 3859 3482 3482 
L 2566 2349 
L 3795 595 
Q 3981 326 4115 240 
Q 4250 154 4506 122 
L 4506 0 
z
" transform="scale(0.015625)"/>
       <path id="STIXGeneral-Regular-59" d="M 4499 4237 
L 4499 4115 
Q 4218 4090 4054 3955 
Q 3891 3821 3616 3398 
L 2669 1939 
L 2669 710 
Q 2669 346 2790 243 
Q 2912 141 3328 122 
L 3328 0 
L 1370 0 
L 1370 122 
Q 1805 154 1910 259 
Q 2016 365 2016 787 
L 2016 1882 
L 1178 3110 
Q 742 3750 556 3926 
Q 371 4102 141 4115 
L 141 4237 
L 1926 4237 
L 1926 4115 
L 1773 4109 
Q 1472 4102 1472 3942 
Q 1472 3808 1587 3642 
L 2522 2227 
L 3450 3648 
Q 3539 3782 3539 3917 
Q 3533 4026 3440 4067 
Q 3347 4109 3104 4115 
L 3104 4237 
L 4499 4237 
z
" transform="scale(0.015625)"/>
      </defs>
      <use xlink:href="#STIXGeneral-Regular-58"/>
      <use xlink:href="#STIXGeneral-Regular-59" x="72.199982"/>
     </g>
    </g>
    <g id="line2d_78">
     <path d="M 405.855 110.55875 
L 424.855 110.55875 
L 443.855 110.55875 
" style="fill: none; stroke: #ff7f0e; stroke-width: 2; stroke-linecap: square"/>
    </g>
    <g id="text_18">
     <!-- $J_\parallel / J_\perp = 15$ -->
     <g transform="translate(459.055 117.20875) scale(0.19 -0.19)">
      <defs>
       <path id="STIXGeneral-Regular-2f" d="M 1837 4326 
L 378 -90 
L -58 -90 
L 1408 4326 
L 1837 4326 
z
" transform="scale(0.015625)"/>
       <path id="STIXGeneral-Regular-3d" d="M 4077 2048 
L 307 2048 
L 307 2470 
L 4077 2470 
L 4077 2048 
z
M 4077 768 
L 307 768 
L 307 1190 
L 4077 1190 
L 4077 768 
z
" transform="scale(0.015625)"/>
       <path id="STIXGeneral-Regular-31" d="M 2522 0 
L 755 0 
L 755 96 
Q 1107 115 1235 227 
Q 1363 339 1363 608 
L 1363 3482 
Q 1363 3795 1171 3795 
Q 1082 3795 883 3718 
L 710 3654 
L 710 3744 
L 1856 4326 
L 1914 4307 
L 1914 486 
Q 1914 275 2042 185 
Q 2170 96 2522 96 
L 2522 0 
z
" transform="scale(0.015625)"/>
       <path id="STIXGeneral-Regular-35" d="M 2803 4358 
L 2573 3814 
Q 2534 3731 2400 3731 
L 1158 3731 
L 902 3187 
Q 1606 3053 1920 2896 
Q 2234 2739 2502 2368 
Q 2726 2061 2726 1555 
Q 2726 1094 2576 780 
Q 2426 467 2099 224 
Q 1664 -90 1011 -90 
Q 646 -90 422 19 
Q 198 128 198 307 
Q 198 550 486 550 
Q 717 550 960 352 
Q 1210 147 1414 147 
Q 1747 147 2012 480 
Q 2278 813 2278 1229 
Q 2278 1843 1850 2189 
Q 1293 2637 486 2637 
Q 410 2637 410 2688 
L 416 2720 
L 1114 4237 
L 2438 4237 
Q 2547 4237 2608 4269 
Q 2669 4301 2746 4403 
L 2803 4358 
z
" transform="scale(0.015625)"/>
      </defs>
      <use xlink:href="#STIXGeneral-Italic-4a" transform="translate(0 0.203125)"/>
      <use xlink:href="#STIXGeneral-Regular-2225" transform="translate(54.507991 -13.025) scale(0.7)"/>
      <use xlink:href="#STIXGeneral-Regular-2f" transform="translate(105.635355 0.203125)"/>
      <use xlink:href="#STIXGeneral-Italic-4a" transform="translate(133.435343 0.203125)"/>
      <use xlink:href="#STIXGeneral-Regular-27c2" transform="translate(187.943334 -13.025) scale(0.7)"/>
      <use xlink:href="#STIXGeneral-Regular-3d" transform="translate(265.410695 0.203125)"/>
      <use xlink:href="#STIXGeneral-Regular-31" transform="translate(348.350676 0.203125)"/>
      <use xlink:href="#STIXGeneral-Regular-35" transform="translate(398.35066 0.203125)"/>
     </g>
    </g>
   </g>
  </g>
 </g>
 <defs>
  <clipPath id="p8fa4548ded">
   <rect x="57.072" y="32.94375" width="504.393" height="489.645"/>
  </clipPath>
 </defs>
</svg>
