<?xml version="1.0" encoding="utf-8" standalone="no"?>
<!DOCTYPE svg PUBLIC "-//W3C//DTD SVG 1.1//EN"
  "http://www.w3.org/Graphics/SVG/1.1/DTD/svg11.dtd">
<svg xmlns:xlink="http://www.w3.org/1999/xlink" width="460.8pt" height="345.6pt" viewBox="0 0 460.8 345.6" xmlns="http://www.w3.org/2000/svg" version="1.1">
 <metadata>
  <rdf:RDF xmlns:dc="http://purl.org/dc/elements/1.1/" xmlns:cc="http://creativecommons.org/ns#" xmlns:rdf="http://www.w3.org/1999/02/22-rdf-syntax-ns#">
   <cc:Work>
    <dc:type rdf:resource="http://purl.org/dc/dcmitype/StillImage"/>
    <dc:date>2024-03-29T18:00:49.892607</dc:date>
    <dc:format>image/svg+xml</dc:format>
    <dc:creator>
     <cc:Agent>
      <dc:title>Matplotlib v3.7.1, https://matplotlib.org/</dc:title>
     </cc:Agent>
    </dc:creator>
   </cc:Work>
  </rdf:RDF>
 </metadata>
 <defs>
  <style type="text/css">*{stroke-linejoin: round; stroke-linecap: butt}</style>
 </defs>
 <g id="figure_1">
  <g id="patch_1">
   <path d="M 0 345.6 
L 460.8 345.6 
L 460.8 0 
L 0 0 
z
" style="fill: #ffffff"/>
  </g>
  <g id="axes_1">
   <g id="patch_2">
    <path d="M 45.84 302.18325 
L 450 302.18325 
L 450 10.8 
L 45.84 10.8 
z
" style="fill: #ffffff"/>
   </g>
   <g id="matplotlib.axis_1">
    <g id="xtick_1">
     <g id="line2d_1">
      <path d="M 131.483306 302.18325 
L 131.483306 10.8 
" clip-path="url(#p756a415895)" style="fill: none; stroke-dasharray: 2.96,1.28; stroke-dashoffset: 0; stroke: #b0b0b0; stroke-opacity: 0.5; stroke-width: 0.8"/>
     </g>
     <g id="line2d_2">
      <defs>
       <path id="me555b4f962" d="M 0 0 
L 0 -6 
" style="stroke: #000000; stroke-width: 2"/>
      </defs>
      <g>
       <use xlink:href="#me555b4f962" x="131.483306" y="302.18325" style="stroke: #000000; stroke-width: 2"/>
      </g>
     </g>
     <g id="text_1">
      <!-- 0.24 -->
      <g transform="translate(121.858306 313.195906) scale(0.11 -0.11)">
       <defs>
        <path id="STIXGeneral-Regular-30" d="M 3046 2112 
Q 3046 1683 2963 1302 
Q 2880 922 2717 602 
Q 2554 282 2266 96 
Q 1978 -90 1600 -90 
Q 1210 -90 915 108 
Q 621 307 461 640 
Q 301 973 227 1350 
Q 154 1728 154 2150 
Q 154 2746 301 3222 
Q 448 3699 790 4012 
Q 1133 4326 1626 4326 
Q 2253 4326 2649 3712 
Q 3046 3098 3046 2112 
z
M 2432 2080 
Q 2432 3091 2217 3625 
Q 2003 4160 1587 4160 
Q 1190 4160 979 3622 
Q 768 3085 768 2106 
Q 768 1120 979 598 
Q 1190 77 1600 77 
Q 2003 77 2217 598 
Q 2432 1120 2432 2080 
z
" transform="scale(0.015625)"/>
        <path id="STIXGeneral-Regular-2e" d="M 1158 275 
Q 1158 134 1052 32 
Q 947 -70 800 -70 
Q 653 -70 550 32 
Q 448 134 448 281 
Q 448 429 553 534 
Q 659 640 806 640 
Q 947 640 1052 531 
Q 1158 422 1158 275 
z
" transform="scale(0.015625)"/>
        <path id="STIXGeneral-Regular-32" d="M 3034 877 
L 2688 0 
L 186 0 
L 186 77 
L 1325 1286 
Q 1773 1754 1965 2144 
Q 2157 2534 2157 2950 
Q 2157 3379 1920 3616 
Q 1683 3853 1267 3853 
Q 922 3853 720 3673 
Q 518 3494 326 3021 
L 192 3053 
Q 301 3648 630 3987 
Q 960 4326 1523 4326 
Q 2054 4326 2380 4006 
Q 2707 3686 2707 3200 
Q 2707 2477 1888 1613 
L 832 486 
L 2330 486 
Q 2541 486 2665 569 
Q 2790 653 2944 915 
L 3034 877 
z
" transform="scale(0.015625)"/>
        <path id="STIXGeneral-Regular-34" d="M 3027 1069 
L 2368 1069 
L 2368 0 
L 1869 0 
L 1869 1069 
L 77 1069 
L 77 1478 
L 2086 4326 
L 2368 4326 
L 2368 1478 
L 3027 1478 
L 3027 1069 
z
M 1869 1478 
L 1869 3674 
L 333 1478 
L 1869 1478 
z
" transform="scale(0.015625)"/>
       </defs>
       <use xlink:href="#STIXGeneral-Regular-30"/>
       <use xlink:href="#STIXGeneral-Regular-2e" x="49.999985"/>
       <use xlink:href="#STIXGeneral-Regular-32" x="74.999969"/>
       <use xlink:href="#STIXGeneral-Regular-34" x="124.999954"/>
      </g>
     </g>
    </g>
    <g id="xtick_2">
     <g id="line2d_3">
      <path d="M 262.724556 302.18325 
L 262.724556 10.8 
" clip-path="url(#p756a415895)" style="fill: none; stroke-dasharray: 2.96,1.28; stroke-dashoffset: 0; stroke: #b0b0b0; stroke-opacity: 0.5; stroke-width: 0.8"/>
     </g>
     <g id="line2d_4">
      <g>
       <use xlink:href="#me555b4f962" x="262.724556" y="302.18325" style="stroke: #000000; stroke-width: 2"/>
      </g>
     </g>
     <g id="text_2">
      <!-- 0.32 -->
      <g transform="translate(253.099556 313.195906) scale(0.11 -0.11)">
       <defs>
        <path id="STIXGeneral-Regular-33" d="M 390 3264 
L 288 3290 
Q 435 3770 748 4048 
Q 1062 4326 1542 4326 
Q 1990 4326 2265 4083 
Q 2541 3840 2541 3450 
Q 2541 2925 1946 2566 
Q 2298 2413 2477 2227 
Q 2758 1914 2758 1402 
Q 2758 890 2464 506 
Q 2246 211 1840 60 
Q 1434 -90 979 -90 
Q 262 -90 262 275 
Q 262 378 339 442 
Q 416 506 525 506 
Q 685 506 915 339 
Q 1197 141 1466 141 
Q 1818 141 2058 425 
Q 2298 710 2298 1120 
Q 2298 1856 1632 2048 
Q 1434 2112 979 2112 
L 979 2202 
Q 1338 2323 1517 2432 
Q 2035 2726 2035 3290 
Q 2035 3610 1852 3776 
Q 1670 3942 1344 3942 
Q 768 3942 390 3264 
z
" transform="scale(0.015625)"/>
       </defs>
       <use xlink:href="#STIXGeneral-Regular-30"/>
       <use xlink:href="#STIXGeneral-Regular-2e" x="49.999985"/>
       <use xlink:href="#STIXGeneral-Regular-33" x="74.999969"/>
       <use xlink:href="#STIXGeneral-Regular-32" x="124.999954"/>
      </g>
     </g>
    </g>
    <g id="xtick_3">
     <g id="line2d_5">
      <path d="M 197.103931 302.18325 
L 197.103931 10.8 
" clip-path="url(#p756a415895)" style="fill: none; stroke-dasharray: 2.96,1.28; stroke-dashoffset: 0; stroke: #b0b0b0; stroke-opacity: 0.5; stroke-width: 0.8"/>
     </g>
     <g id="line2d_6">
      <g>
       <use xlink:href="#me555b4f962" x="197.103931" y="302.18325" style="stroke: #000000; stroke-width: 2"/>
      </g>
     </g>
     <g id="text_3">
      <!-- 0.28 -->
      <g transform="translate(187.478931 313.195906) scale(0.11 -0.11)">
       <defs>
        <path id="STIXGeneral-Regular-38" d="M 2848 992 
Q 2848 499 2505 204 
Q 2163 -90 1587 -90 
Q 1050 -90 704 204 
Q 358 499 358 954 
Q 358 1293 524 1533 
Q 691 1773 1190 2125 
Q 710 2522 553 2765 
Q 397 3008 397 3328 
Q 397 3782 745 4054 
Q 1094 4326 1638 4326 
Q 2106 4326 2410 4060 
Q 2714 3795 2714 3411 
Q 2714 3059 2531 2848 
Q 2349 2637 1856 2374 
Q 2432 1990 2640 1689 
Q 2848 1389 2848 992 
z
M 2272 3411 
Q 2272 3744 2086 3945 
Q 1901 4147 1574 4147 
Q 1248 4147 1059 3977 
Q 870 3808 870 3513 
Q 870 3219 1059 2979 
Q 1248 2739 1670 2490 
Q 1997 2682 2134 2896 
Q 2272 3110 2272 3411 
z
M 1734 1741 
L 1357 1997 
Q 1075 1766 960 1545 
Q 845 1325 845 1011 
Q 845 576 1065 333 
Q 1286 90 1658 90 
Q 1971 90 2166 285 
Q 2362 480 2362 794 
Q 2362 1082 2214 1299 
Q 2067 1517 1734 1741 
z
" transform="scale(0.015625)"/>
       </defs>
       <use xlink:href="#STIXGeneral-Regular-30"/>
       <use xlink:href="#STIXGeneral-Regular-2e" x="49.999985"/>
       <use xlink:href="#STIXGeneral-Regular-32" x="74.999969"/>
       <use xlink:href="#STIXGeneral-Regular-38" x="124.999954"/>
      </g>
     </g>
    </g>
    <g id="xtick_4">
     <g id="line2d_7">
      <path d="M 65.862681 302.18325 
L 65.862681 10.8 
" clip-path="url(#p756a415895)" style="fill: none; stroke-dasharray: 2.96,1.28; stroke-dashoffset: 0; stroke: #b0b0b0; stroke-opacity: 0.5; stroke-width: 0.8"/>
     </g>
     <g id="line2d_8">
      <g>
       <use xlink:href="#me555b4f962" x="65.862681" y="302.18325" style="stroke: #000000; stroke-width: 2"/>
      </g>
     </g>
     <g id="text_4">
      <!-- 0.20 -->
      <g transform="translate(56.237681 313.195906) scale(0.11 -0.11)">
       <use xlink:href="#STIXGeneral-Regular-30"/>
       <use xlink:href="#STIXGeneral-Regular-2e" x="49.999985"/>
       <use xlink:href="#STIXGeneral-Regular-32" x="74.999969"/>
       <use xlink:href="#STIXGeneral-Regular-30" x="124.999954"/>
      </g>
     </g>
    </g>
    <g id="xtick_5">
     <g id="line2d_9">
      <path d="M 328.345181 302.18325 
L 328.345181 10.8 
" clip-path="url(#p756a415895)" style="fill: none; stroke-dasharray: 2.96,1.28; stroke-dashoffset: 0; stroke: #b0b0b0; stroke-opacity: 0.5; stroke-width: 0.8"/>
     </g>
     <g id="line2d_10">
      <g>
       <use xlink:href="#me555b4f962" x="328.345181" y="302.18325" style="stroke: #000000; stroke-width: 2"/>
      </g>
     </g>
     <g id="text_5">
      <!-- 0.36 -->
      <g transform="translate(318.720181 313.195906) scale(0.11 -0.11)">
       <defs>
        <path id="STIXGeneral-Regular-36" d="M 2854 4378 
L 2867 4275 
Q 2112 4154 1606 3664 
Q 1101 3174 973 2451 
Q 1344 2739 1786 2739 
Q 2349 2739 2672 2380 
Q 2995 2022 2995 1402 
Q 2995 774 2669 378 
Q 2291 -90 1651 -90 
Q 870 -90 518 557 
Q 218 1107 218 1786 
Q 218 2835 915 3552 
Q 1312 3962 1731 4131 
Q 2150 4301 2854 4378 
z
M 2419 1203 
Q 2419 2445 1555 2445 
Q 1235 2445 1024 2275 
Q 813 2106 813 1702 
Q 813 954 1046 522 
Q 1280 90 1722 90 
Q 2061 90 2240 394 
Q 2419 698 2419 1203 
z
" transform="scale(0.015625)"/>
       </defs>
       <use xlink:href="#STIXGeneral-Regular-30"/>
       <use xlink:href="#STIXGeneral-Regular-2e" x="49.999985"/>
       <use xlink:href="#STIXGeneral-Regular-33" x="74.999969"/>
       <use xlink:href="#STIXGeneral-Regular-36" x="124.999954"/>
      </g>
     </g>
    </g>
    <g id="xtick_6">
     <g id="line2d_11">
      <path d="M 393.965806 302.18325 
L 393.965806 10.8 
" clip-path="url(#p756a415895)" style="fill: none; stroke-dasharray: 2.96,1.28; stroke-dashoffset: 0; stroke: #b0b0b0; stroke-opacity: 0.5; stroke-width: 0.8"/>
     </g>
     <g id="line2d_12">
      <g>
       <use xlink:href="#me555b4f962" x="393.965806" y="302.18325" style="stroke: #000000; stroke-width: 2"/>
      </g>
     </g>
     <g id="text_6">
      <!-- 0.40 -->
      <g transform="translate(384.340806 313.195906) scale(0.11 -0.11)">
       <use xlink:href="#STIXGeneral-Regular-30"/>
       <use xlink:href="#STIXGeneral-Regular-2e" x="49.999985"/>
       <use xlink:href="#STIXGeneral-Regular-34" x="74.999969"/>
       <use xlink:href="#STIXGeneral-Regular-30" x="124.999954"/>
      </g>
     </g>
    </g>
    <g id="xtick_7">
     <g id="line2d_13">
      <defs>
       <path id="m3aad91e01a" d="M 0 0 
L 0 -4 
" style="stroke: #000000"/>
      </defs>
      <g>
       <use xlink:href="#m3aad91e01a" x="52.738556" y="302.18325" style="stroke: #000000"/>
      </g>
     </g>
    </g>
    <g id="xtick_8">
     <g id="line2d_14">
      <g>
       <use xlink:href="#m3aad91e01a" x="118.359181" y="302.18325" style="stroke: #000000"/>
      </g>
     </g>
    </g>
    <g id="xtick_9">
     <g id="line2d_15">
      <g>
       <use xlink:href="#m3aad91e01a" x="144.607431" y="302.18325" style="stroke: #000000"/>
      </g>
     </g>
    </g>
    <g id="xtick_10">
     <g id="line2d_16">
      <g>
       <use xlink:href="#m3aad91e01a" x="157.731556" y="302.18325" style="stroke: #000000"/>
      </g>
     </g>
    </g>
    <g id="xtick_11">
     <g id="line2d_17">
      <g>
       <use xlink:href="#m3aad91e01a" x="170.855681" y="302.18325" style="stroke: #000000"/>
      </g>
     </g>
    </g>
    <g id="xtick_12">
     <g id="line2d_18">
      <g>
       <use xlink:href="#m3aad91e01a" x="183.979806" y="302.18325" style="stroke: #000000"/>
      </g>
     </g>
    </g>
    <g id="xtick_13">
     <g id="line2d_19">
      <g>
       <use xlink:href="#m3aad91e01a" x="288.972806" y="302.18325" style="stroke: #000000"/>
      </g>
     </g>
    </g>
    <g id="xtick_14">
     <g id="line2d_20">
      <g>
       <use xlink:href="#m3aad91e01a" x="302.096931" y="302.18325" style="stroke: #000000"/>
      </g>
     </g>
    </g>
    <g id="xtick_15">
     <g id="line2d_21">
      <g>
       <use xlink:href="#m3aad91e01a" x="315.221056" y="302.18325" style="stroke: #000000"/>
      </g>
     </g>
    </g>
    <g id="xtick_16">
     <g id="line2d_22">
      <g>
       <use xlink:href="#m3aad91e01a" x="433.338181" y="302.18325" style="stroke: #000000"/>
      </g>
     </g>
    </g>
    <g id="xtick_17">
     <g id="line2d_23">
      <g>
       <use xlink:href="#m3aad91e01a" x="354.593431" y="302.18325" style="stroke: #000000"/>
      </g>
     </g>
    </g>
    <g id="xtick_18">
     <g id="line2d_24">
      <g>
       <use xlink:href="#m3aad91e01a" x="380.841681" y="302.18325" style="stroke: #000000"/>
      </g>
     </g>
    </g>
    <g id="xtick_19">
     <g id="line2d_25">
      <g>
       <use xlink:href="#m3aad91e01a" x="407.089931" y="302.18325" style="stroke: #000000"/>
      </g>
     </g>
    </g>
    <g id="xtick_20">
     <g id="line2d_26">
      <g>
       <use xlink:href="#m3aad91e01a" x="223.352181" y="302.18325" style="stroke: #000000"/>
      </g>
     </g>
    </g>
    <g id="xtick_21">
     <g id="line2d_27">
      <g>
       <use xlink:href="#m3aad91e01a" x="249.600431" y="302.18325" style="stroke: #000000"/>
      </g>
     </g>
    </g>
    <g id="xtick_22">
     <g id="line2d_28">
      <g>
       <use xlink:href="#m3aad91e01a" x="275.848681" y="302.18325" style="stroke: #000000"/>
      </g>
     </g>
    </g>
    <g id="xtick_23">
     <g id="line2d_29">
      <g>
       <use xlink:href="#m3aad91e01a" x="92.110931" y="302.18325" style="stroke: #000000"/>
      </g>
     </g>
    </g>
    <g id="xtick_24">
     <g id="line2d_30">
      <g>
       <use xlink:href="#m3aad91e01a" x="78.986806" y="302.18325" style="stroke: #000000"/>
      </g>
     </g>
    </g>
    <g id="xtick_25">
     <g id="line2d_31">
      <g>
       <use xlink:href="#m3aad91e01a" x="105.235056" y="302.18325" style="stroke: #000000"/>
      </g>
     </g>
    </g>
    <g id="xtick_26">
     <g id="line2d_32">
      <g>
       <use xlink:href="#m3aad91e01a" x="446.462306" y="302.18325" style="stroke: #000000"/>
      </g>
     </g>
    </g>
    <g id="xtick_27">
     <g id="line2d_33">
      <g>
       <use xlink:href="#m3aad91e01a" x="341.469306" y="302.18325" style="stroke: #000000"/>
      </g>
     </g>
    </g>
    <g id="xtick_28">
     <g id="line2d_34">
      <g>
       <use xlink:href="#m3aad91e01a" x="367.717556" y="302.18325" style="stroke: #000000"/>
      </g>
     </g>
    </g>
    <g id="xtick_29">
     <g id="line2d_35">
      <g>
       <use xlink:href="#m3aad91e01a" x="420.214056" y="302.18325" style="stroke: #000000"/>
      </g>
     </g>
    </g>
    <g id="xtick_30">
     <g id="line2d_36">
      <g>
       <use xlink:href="#m3aad91e01a" x="236.476306" y="302.18325" style="stroke: #000000"/>
      </g>
     </g>
    </g>
    <g id="xtick_31">
     <g id="line2d_37">
      <g>
       <use xlink:href="#m3aad91e01a" x="210.228056" y="302.18325" style="stroke: #000000"/>
      </g>
     </g>
    </g>
    <g id="text_7">
     <!-- $T~/~J_\parallel$ -->
     <g transform="translate(231.26 329.10325) scale(0.14 -0.14)">
      <defs>
       <path id="STIXGeneral-Italic-54" d="M 4051 4179 
L 3770 3130 
L 3661 3142 
Q 3680 3302 3680 3437 
Q 3680 3955 3034 3955 
L 2662 3955 
L 1786 819 
Q 1696 506 1696 397 
Q 1696 250 1766 195 
Q 1837 141 2035 122 
L 2259 102 
L 2259 0 
L 416 0 
L 416 102 
Q 749 134 889 230 
Q 1030 326 1101 582 
L 2016 3955 
Q 1254 3955 988 3817 
Q 723 3680 493 3162 
L 378 3187 
L 646 4179 
L 4051 4179 
z
" transform="scale(0.015625)"/>
       <path id="STIXGeneral-Regular-2f" d="M 1837 4326 
L 378 -90 
L -58 -90 
L 1408 4326 
L 1837 4326 
z
" transform="scale(0.015625)"/>
       <path id="STIXGeneral-Italic-4a" d="M 3142 4179 
L 3142 4077 
Q 2867 4038 2784 3964 
Q 2701 3891 2618 3603 
L 1958 1254 
Q 1773 589 1504 237 
Q 1235 -115 710 -115 
Q 371 -115 166 38 
Q -38 192 -38 448 
Q -38 602 42 704 
Q 122 806 250 806 
Q 378 806 477 720 
Q 576 634 576 512 
Q 576 474 566 419 
Q 557 365 557 339 
Q 557 90 781 90 
Q 1005 90 1120 499 
L 1933 3405 
Q 2010 3686 2010 3814 
Q 2010 3942 1914 3996 
Q 1818 4051 1517 4077 
L 1517 4179 
L 3142 4179 
z
" transform="scale(0.015625)"/>
       <path id="STIXGeneral-Regular-2225" d="M 2522 -1210 
L 2099 -1210 
L 2099 4416 
L 2522 4416 
L 2522 -1210 
z
M 1248 -1210 
L 826 -1210 
L 826 4416 
L 1248 4416 
L 1248 -1210 
z
" transform="scale(0.015625)"/>
      </defs>
      <use xlink:href="#STIXGeneral-Italic-54" transform="translate(0 0.40625)"/>
      <use xlink:href="#STIXGeneral-Regular-2f" transform="translate(79.666411 0.40625)"/>
      <use xlink:href="#STIXGeneral-Italic-4a" transform="translate(131.532818 0.40625)"/>
      <use xlink:href="#STIXGeneral-Regular-2225" transform="translate(186.04081 -12.821875) scale(0.7)"/>
     </g>
    </g>
   </g>
   <g id="matplotlib.axis_2">
    <g id="ytick_1">
     <g id="line2d_38">
      <path d="M 45.84 219.250279 
L 450 219.250279 
" clip-path="url(#p756a415895)" style="fill: none; stroke-dasharray: 2.96,1.28; stroke-dashoffset: 0; stroke: #b0b0b0; stroke-opacity: 0.5; stroke-width: 0.8"/>
     </g>
     <g id="line2d_39">
      <defs>
       <path id="m5830bc824d" d="M 0 0 
L 6 0 
" style="stroke: #000000; stroke-width: 2"/>
      </defs>
      <g>
       <use xlink:href="#m5830bc824d" x="45.84" y="219.250279" style="stroke: #000000; stroke-width: 2"/>
      </g>
     </g>
     <g id="text_8">
      <!-- 0.6 -->
      <g transform="translate(28.59 223.006607) scale(0.11 -0.11)">
       <use xlink:href="#STIXGeneral-Regular-30"/>
       <use xlink:href="#STIXGeneral-Regular-2e" x="49.999985"/>
       <use xlink:href="#STIXGeneral-Regular-36" x="74.999969"/>
      </g>
     </g>
    </g>
    <g id="ytick_2">
     <g id="line2d_40">
      <path d="M 45.84 79.873724 
L 450 79.873724 
" clip-path="url(#p756a415895)" style="fill: none; stroke-dasharray: 2.96,1.28; stroke-dashoffset: 0; stroke: #b0b0b0; stroke-opacity: 0.5; stroke-width: 0.8"/>
     </g>
     <g id="line2d_41">
      <g>
       <use xlink:href="#m5830bc824d" x="45.84" y="79.873724" style="stroke: #000000; stroke-width: 2"/>
      </g>
     </g>
     <g id="text_9">
      <!-- 1.8 -->
      <g transform="translate(28.59 83.630052) scale(0.11 -0.11)">
       <defs>
        <path id="STIXGeneral-Regular-31" d="M 2522 0 
L 755 0 
L 755 96 
Q 1107 115 1235 227 
Q 1363 339 1363 608 
L 1363 3482 
Q 1363 3795 1171 3795 
Q 1082 3795 883 3718 
L 710 3654 
L 710 3744 
L 1856 4326 
L 1914 4307 
L 1914 486 
Q 1914 275 2042 185 
Q 2170 96 2522 96 
L 2522 0 
z
" transform="scale(0.015625)"/>
       </defs>
       <use xlink:href="#STIXGeneral-Regular-31"/>
       <use xlink:href="#STIXGeneral-Regular-2e" x="49.999985"/>
       <use xlink:href="#STIXGeneral-Regular-38" x="74.999969"/>
      </g>
     </g>
    </g>
    <g id="ytick_3">
     <g id="line2d_42">
      <path d="M 45.84 149.562002 
L 450 149.562002 
" clip-path="url(#p756a415895)" style="fill: none; stroke-dasharray: 2.96,1.28; stroke-dashoffset: 0; stroke: #b0b0b0; stroke-opacity: 0.5; stroke-width: 0.8"/>
     </g>
     <g id="line2d_43">
      <g>
       <use xlink:href="#m5830bc824d" x="45.84" y="149.562002" style="stroke: #000000; stroke-width: 2"/>
      </g>
     </g>
     <g id="text_10">
      <!-- 1.2 -->
      <g transform="translate(28.59 153.31833) scale(0.11 -0.11)">
       <use xlink:href="#STIXGeneral-Regular-31"/>
       <use xlink:href="#STIXGeneral-Regular-2e" x="49.999985"/>
       <use xlink:href="#STIXGeneral-Regular-32" x="74.999969"/>
      </g>
     </g>
    </g>
    <g id="ytick_4">
     <g id="line2d_44">
      <defs>
       <path id="m7d2d1d3d1d" d="M 0 0 
L 4 0 
" style="stroke: #000000"/>
      </defs>
      <g>
       <use xlink:href="#m7d2d1d3d1d" x="45.84" y="275.000901" style="stroke: #000000"/>
      </g>
     </g>
    </g>
    <g id="ytick_5">
     <g id="line2d_45">
      <g>
       <use xlink:href="#m7d2d1d3d1d" x="45.84" y="233.187935" style="stroke: #000000"/>
      </g>
     </g>
    </g>
    <g id="ytick_6">
     <g id="line2d_46">
      <g>
       <use xlink:href="#m7d2d1d3d1d" x="45.84" y="261.063246" style="stroke: #000000"/>
      </g>
     </g>
    </g>
    <g id="ytick_7">
     <g id="line2d_47">
      <g>
       <use xlink:href="#m7d2d1d3d1d" x="45.84" y="247.12559" style="stroke: #000000"/>
      </g>
     </g>
    </g>
    <g id="ytick_8">
     <g id="line2d_48">
      <g>
       <use xlink:href="#m7d2d1d3d1d" x="45.84" y="205.312624" style="stroke: #000000"/>
      </g>
     </g>
    </g>
    <g id="ytick_9">
     <g id="line2d_49">
      <g>
       <use xlink:href="#m7d2d1d3d1d" x="45.84" y="191.374968" style="stroke: #000000"/>
      </g>
     </g>
    </g>
    <g id="ytick_10">
     <g id="line2d_50">
      <g>
       <use xlink:href="#m7d2d1d3d1d" x="45.84" y="177.437313" style="stroke: #000000"/>
      </g>
     </g>
    </g>
    <g id="ytick_11">
     <g id="line2d_51">
      <g>
       <use xlink:href="#m7d2d1d3d1d" x="45.84" y="163.499657" style="stroke: #000000"/>
      </g>
     </g>
    </g>
    <g id="ytick_12">
     <g id="line2d_52">
      <g>
       <use xlink:href="#m7d2d1d3d1d" x="45.84" y="135.624346" style="stroke: #000000"/>
      </g>
     </g>
    </g>
    <g id="ytick_13">
     <g id="line2d_53">
      <g>
       <use xlink:href="#m7d2d1d3d1d" x="45.84" y="121.68669" style="stroke: #000000"/>
      </g>
     </g>
    </g>
    <g id="ytick_14">
     <g id="line2d_54">
      <g>
       <use xlink:href="#m7d2d1d3d1d" x="45.84" y="107.749035" style="stroke: #000000"/>
      </g>
     </g>
    </g>
    <g id="ytick_15">
     <g id="line2d_55">
      <g>
       <use xlink:href="#m7d2d1d3d1d" x="45.84" y="93.811379" style="stroke: #000000"/>
      </g>
     </g>
    </g>
    <g id="ytick_16">
     <g id="line2d_56">
      <g>
       <use xlink:href="#m7d2d1d3d1d" x="45.84" y="65.936068" style="stroke: #000000"/>
      </g>
     </g>
    </g>
    <g id="ytick_17">
     <g id="line2d_57">
      <g>
       <use xlink:href="#m7d2d1d3d1d" x="45.84" y="51.998413" style="stroke: #000000"/>
      </g>
     </g>
    </g>
    <g id="ytick_18">
     <g id="line2d_58">
      <g>
       <use xlink:href="#m7d2d1d3d1d" x="45.84" y="38.060757" style="stroke: #000000"/>
      </g>
     </g>
    </g>
    <g id="ytick_19">
     <g id="line2d_59">
      <g>
       <use xlink:href="#m7d2d1d3d1d" x="45.84" y="24.123102" style="stroke: #000000"/>
      </g>
     </g>
    </g>
    <g id="text_11">
     <!-- $h~/~T$ -->
     <g transform="translate(21.551563 169.231625) rotate(-90) scale(0.14 -0.14)">
      <defs>
       <path id="STIXGeneral-Italic-68" d="M 2976 755 
L 3059 672 
Q 2765 256 2566 99 
Q 2368 -58 2125 -58 
Q 1997 -58 1920 16 
Q 1843 90 1843 211 
Q 1843 320 1971 800 
L 2323 2125 
Q 2368 2304 2368 2336 
Q 2368 2496 2189 2496 
Q 2016 2496 1744 2240 
Q 1472 1984 1216 1600 
Q 1018 1293 902 1001 
Q 787 710 602 0 
L 122 0 
L 1056 3546 
Q 1139 3866 1139 3942 
Q 1139 4019 1056 4060 
Q 973 4102 877 4102 
L 704 4102 
L 704 4198 
Q 1190 4256 1709 4371 
L 1754 4333 
L 979 1472 
Q 1811 2822 2451 2822 
Q 2662 2822 2764 2704 
Q 2867 2586 2867 2394 
Q 2867 2118 2560 1158 
Q 2349 512 2349 358 
Q 2349 243 2451 243 
Q 2528 243 2621 336 
Q 2714 429 2976 755 
z
" transform="scale(0.015625)"/>
      </defs>
      <use xlink:href="#STIXGeneral-Italic-68" transform="translate(0 0.703125)"/>
      <use xlink:href="#STIXGeneral-Regular-2f" transform="translate(74.066405 0.703125)"/>
      <use xlink:href="#STIXGeneral-Italic-54" transform="translate(125.932812 0.703125)"/>
     </g>
    </g>
   </g>
   <g id="line2d_60">
    <defs>
     <path id="m4a30a15ee8" d="M -3.5 3.5 
L 3.5 3.5 
L 3.5 -3.5 
L -3.5 -3.5 
z
" style="stroke: #00305d; stroke-linejoin: miter"/>
    </defs>
    <g clip-path="url(#p756a415895)">
     <use xlink:href="#m4a30a15ee8" x="109.117434" y="287.28874" style="fill-opacity: 0; stroke: #00305d; stroke-linejoin: miter"/>
     <use xlink:href="#m4a30a15ee8" x="144.670731" y="273.88189" style="fill-opacity: 0; stroke: #00305d; stroke-linejoin: miter"/>
     <use xlink:href="#m4a30a15ee8" x="180.857024" y="261.284478" style="fill-opacity: 0; stroke: #00305d; stroke-linejoin: miter"/>
     <use xlink:href="#m4a30a15ee8" x="217.781813" y="235.819861" style="fill-opacity: 0; stroke: #00305d; stroke-linejoin: miter"/>
     <use xlink:href="#m4a30a15ee8" x="281.081451" y="198.727194" style="fill-opacity: 0; stroke: #00305d; stroke-linejoin: miter"/>
     <use xlink:href="#m4a30a15ee8" x="360.891745" y="118.640809" style="fill-opacity: 0; stroke: #00305d; stroke-linejoin: miter"/>
     <use xlink:href="#m4a30a15ee8" x="431.629091" y="24.044693" style="fill-opacity: 0; stroke: #00305d; stroke-linejoin: miter"/>
    </g>
   </g>
   <g id="line2d_61">
    <defs>
     <path id="m6479e0ff6c" d="M -3.5 3.5 
L 3.5 3.5 
L 3.5 -3.5 
L -3.5 -3.5 
z
" style="stroke: #94c356; stroke-linejoin: miter"/>
    </defs>
    <g clip-path="url(#p756a415895)">
     <use xlink:href="#m6479e0ff6c" x="117.018545" y="283.914518" style="fill-opacity: 0; stroke: #94c356; stroke-linejoin: miter"/>
     <use xlink:href="#m6479e0ff6c" x="173.378194" y="263.070599" style="fill-opacity: 0; stroke: #94c356; stroke-linejoin: miter"/>
     <use xlink:href="#m6479e0ff6c" x="245.790201" y="220.379487" style="fill-opacity: 0; stroke: #94c356; stroke-linejoin: miter"/>
    </g>
   </g>
   <g id="line2d_62">
    <path d="M 64.210909 288.934982 
L 67.922204 288.932048 
L 71.633499 288.927189 
L 75.344793 288.919443 
L 79.056088 288.907516 
L 82.767383 288.889721 
L 86.478678 288.863934 
L 90.189972 288.827545 
L 93.901267 288.777431 
L 97.612562 288.709944 
L 101.323857 288.620917 
L 105.035152 288.505681 
L 108.746446 288.359111 
L 112.457741 288.175676 
L 116.169036 287.949509 
L 119.880331 287.674488 
L 123.591625 287.34432 
L 127.30292 286.952632 
L 131.014215 286.493066 
L 134.72551 285.959363 
L 138.436804 285.345459 
L 142.148099 284.645556 
L 145.859394 283.854198 
L 149.570689 282.966335 
L 153.281983 281.977376 
L 156.993278 280.883231 
L 160.704573 279.680346 
L 164.415868 278.365723 
L 168.127163 276.93694 
L 171.838457 275.392149 
L 175.549752 273.730077 
L 179.261047 271.950017 
L 182.972342 270.051809 
L 186.683636 268.035821 
L 190.394931 265.902924 
L 194.106226 263.654462 
L 197.817521 261.292219 
L 201.528815 258.818389 
L 205.24011 256.23554 
L 208.951405 253.546577 
L 212.6627 250.75471 
L 216.373994 247.863417 
L 220.085289 244.876411 
L 223.796584 241.797606 
L 227.507879 238.631088 
L 231.219174 235.381078 
L 234.930468 232.051913 
L 238.641763 228.648011 
L 242.353058 225.173852 
L 246.064353 221.633949 
L 249.775647 218.032831 
L 253.486942 214.375024 
L 257.198237 210.66503 
L 260.909532 206.907312 
L 264.620826 203.106281 
L 268.332121 199.266284 
L 272.043416 195.391588 
L 275.754711 191.486377 
L 279.466006 187.554739 
L 283.1773 183.600657 
L 286.888595 179.628011 
L 290.59989 175.640564 
L 294.311185 171.641961 
L 298.022479 167.635731 
L 301.733774 163.625275 
L 305.445069 159.613873 
L 309.156364 155.60468 
L 312.867658 151.600722 
L 316.578953 147.604902 
L 320.290248 143.619999 
L 324.001543 139.648667 
L 327.712837 135.693438 
L 331.424132 131.756724 
L 335.135427 127.840819 
L 338.846722 123.9479 
L 342.558017 120.080031 
L 346.269311 116.239165 
L 349.980606 112.427148 
L 353.691901 108.64572 
L 357.403196 104.896519 
L 361.11449 101.181085 
L 364.825785 97.500861 
L 368.53708 93.857197 
L 372.248375 90.251354 
L 375.959669 86.684508 
L 379.670964 83.15775 
L 383.382259 79.672091 
L 387.093554 76.228465 
L 390.804848 72.827732 
L 394.516143 69.470682 
L 398.227438 66.158034 
L 401.938733 62.890445 
L 405.650028 59.668508 
L 409.361322 56.492756 
L 413.072617 53.363664 
L 416.783912 50.281655 
L 420.495207 47.247097 
L 424.206501 44.260311 
L 427.917796 41.321569 
L 431.629091 38.431099 
" clip-path="url(#p756a415895)" style="fill: none; stroke: #006ab2; stroke-width: 1.5; stroke-linecap: square"/>
   </g>
   <g id="line2d_63">
    <defs>
     <path id="mac4c5e455d" d="M 0 -3.5 
L -3.5 3.5 
L 3.5 3.5 
z
" style="stroke: #00305d; stroke-linejoin: miter"/>
    </defs>
    <g clip-path="url(#p756a415895)">
     <use xlink:href="#mac4c5e455d" x="64.210909" y="288.938557" style="fill-opacity: 0; stroke: #00305d; stroke-linejoin: miter"/>
    </g>
   </g>
   <g id="line2d_64"/>
   <g id="line2d_65">
    <path d="M 461.8 262.619438 
L 424.345725 261.186588 
L 375.327315 259.052921 
L 342.648375 257.438358 
L 309.969436 255.63938 
L 277.290496 253.622476 
L 244.611556 251.345496 
L 211.932616 248.754667 
L 179.253676 245.780297 
L 162.914206 244.121646 
L 146.574736 242.33041 
L 130.235266 240.390029 
L 113.895796 238.281066 
L 97.556326 235.980555 
L 81.216856 233.461157 
L 64.877386 230.690072 
L 48.537917 227.627602 
L 32.198447 224.225237 
L 15.858977 220.423067 
L -1 215.992135 
L -1 215.992135 
" clip-path="url(#p756a415895)" style="fill: none; stroke: #ff7f0e; stroke-opacity: 0.5; stroke-width: 1.5; stroke-linecap: square"/>
   </g>
   <g id="patch_3">
    <path d="M 45.84 302.18325 
L 45.84 10.8 
" style="fill: none; stroke: #000000; stroke-width: 0.8; stroke-linejoin: miter; stroke-linecap: square"/>
   </g>
   <g id="patch_4">
    <path d="M 450 302.18325 
L 450 10.8 
" style="fill: none; stroke: #000000; stroke-width: 0.8; stroke-linejoin: miter; stroke-linecap: square"/>
   </g>
   <g id="patch_5">
    <path d="M 45.84 302.18325 
L 450 302.18325 
" style="fill: none; stroke: #000000; stroke-width: 0.8; stroke-linejoin: miter; stroke-linecap: square"/>
   </g>
   <g id="patch_6">
    <path d="M 45.84 10.8 
L 450 10.8 
" style="fill: none; stroke: #000000; stroke-width: 0.8; stroke-linejoin: miter; stroke-linecap: square"/>
   </g>
   <g id="legend_1">
    <g id="patch_7">
     <path d="M 55.64 128.4 
L 178.84 128.4 
Q 181.64 128.4 181.64 125.6 
L 181.64 20.6 
Q 181.64 17.8 178.84 17.8 
L 55.64 17.8 
Q 52.84 17.8 52.84 20.6 
L 52.84 125.6 
Q 52.84 128.4 55.64 128.4 
z
" style="fill: #ffffff; opacity: 0.8; stroke: #cccccc; stroke-linejoin: miter"/>
    </g>
    <g id="line2d_66">
     <g>
      <use xlink:href="#m4a30a15ee8" x="72.44" y="28.3" style="fill-opacity: 0; stroke: #00305d; stroke-linejoin: miter"/>
     </g>
    </g>
    <g id="text_12">
     <!-- $j_\parallel = 3.11$ -->
     <g transform="translate(97.64 33.2) scale(0.14 -0.14)">
      <defs>
       <path id="STIXGeneral-Italic-6a" d="M 1786 3827 
Q 1786 3699 1690 3603 
Q 1594 3507 1466 3507 
Q 1318 3507 1219 3600 
Q 1120 3693 1120 3840 
Q 1120 3981 1222 4077 
Q 1325 4173 1459 4173 
Q 1587 4173 1686 4067 
Q 1786 3962 1786 3827 
z
M 1574 2803 
L 909 179 
Q 710 -595 419 -960 
Q 128 -1325 -288 -1325 
Q -512 -1325 -653 -1216 
Q -794 -1107 -794 -934 
Q -794 -819 -717 -736 
Q -640 -653 -531 -653 
Q -282 -653 -282 -890 
Q -282 -966 -320 -1014 
Q -358 -1062 -358 -1107 
Q -358 -1184 -243 -1184 
Q -51 -1184 80 -934 
Q 211 -685 378 -19 
L 838 1850 
Q 941 2266 941 2362 
Q 941 2470 873 2515 
Q 806 2560 634 2560 
L 467 2560 
L 467 2662 
Q 755 2682 1549 2822 
L 1574 2803 
z
" transform="scale(0.015625)"/>
       <path id="STIXGeneral-Regular-3d" d="M 4077 2048 
L 307 2048 
L 307 2470 
L 4077 2470 
L 4077 2048 
z
M 4077 768 
L 307 768 
L 307 1190 
L 4077 1190 
L 4077 768 
z
" transform="scale(0.015625)"/>
      </defs>
      <use xlink:href="#STIXGeneral-Italic-6a" transform="translate(0 0.40625)"/>
      <use xlink:href="#STIXGeneral-Regular-2225" transform="translate(37.907985 -12.821875) scale(0.7)"/>
      <use xlink:href="#STIXGeneral-Regular-3d" transform="translate(103.475345 0.40625)"/>
      <use xlink:href="#STIXGeneral-Regular-33" transform="translate(186.415327 0.40625)"/>
      <use xlink:href="#STIXGeneral-Regular-2e" transform="translate(236.415311 0.40625)"/>
      <use xlink:href="#STIXGeneral-Regular-31" transform="translate(261.415296 0.40625)"/>
      <use xlink:href="#STIXGeneral-Regular-31" transform="translate(311.415281 0.40625)"/>
     </g>
    </g>
    <g id="line2d_67">
     <g>
      <use xlink:href="#m6479e0ff6c" x="72.44" y="50.7" style="fill-opacity: 0; stroke: #94c356; stroke-linejoin: miter"/>
     </g>
    </g>
    <g id="text_13">
     <!-- $j_\parallel =  110 \cdot 10^3$ -->
     <g transform="translate(97.64 55.6) scale(0.14 -0.14)">
      <defs>
       <path id="STIXGeneral-Regular-22c5" d="M 1187 1888 
Q 1299 1773 1299 1619 
Q 1299 1466 1187 1350 
Q 1075 1235 921 1235 
Q 768 1235 649 1353 
Q 531 1472 531 1619 
Q 531 1766 649 1884 
Q 768 2003 921 2003 
Q 1075 2003 1187 1888 
z
" transform="scale(0.015625)"/>
      </defs>
      <use xlink:href="#STIXGeneral-Italic-6a" transform="translate(0 0.409375)"/>
      <use xlink:href="#STIXGeneral-Regular-2225" transform="translate(37.907985 -12.81875) scale(0.7)"/>
      <use xlink:href="#STIXGeneral-Regular-3d" transform="translate(103.475345 0.409375)"/>
      <use xlink:href="#STIXGeneral-Regular-31" transform="translate(186.415327 0.409375)"/>
      <use xlink:href="#STIXGeneral-Regular-31" transform="translate(236.415311 0.409375)"/>
      <use xlink:href="#STIXGeneral-Regular-30" transform="translate(286.415296 0.409375)"/>
      <use xlink:href="#STIXGeneral-Regular-22c5" transform="translate(350.855277 0.409375)"/>
      <use xlink:href="#STIXGeneral-Regular-31" transform="translate(393.895264 0.409375)"/>
      <use xlink:href="#STIXGeneral-Regular-30" transform="translate(443.895249 0.409375)"/>
      <use xlink:href="#STIXGeneral-Regular-33" transform="translate(495.438515 35.684375) scale(0.7)"/>
     </g>
    </g>
    <g id="line2d_68">
     <path d="M 58.44 71.881563 
L 72.44 71.881563 
L 86.44 71.881563 
" style="fill: none; stroke: #006ab2; stroke-width: 1.5; stroke-linecap: square"/>
    </g>
    <g id="text_14">
     <!-- $h / T \propto e^{-AT^2 e^{B / T}}$ -->
     <g transform="translate(97.64 76.781563) scale(0.14 -0.14)">
      <defs>
       <path id="STIXGeneral-Regular-221d" d="M 4115 538 
L 4115 0 
Q 3674 0 3360 224 
Q 3046 448 2726 928 
Q 2266 0 1389 0 
Q 934 0 598 329 
Q 262 659 262 1280 
Q 262 1613 355 1881 
Q 448 2150 585 2307 
Q 723 2464 896 2569 
Q 1069 2675 1213 2713 
Q 1357 2752 1485 2752 
Q 1869 2752 2160 2569 
Q 2451 2387 2880 1811 
Q 3142 2285 3408 2518 
Q 3674 2752 4115 2752 
L 4115 2214 
Q 3725 2214 3443 2025 
Q 3162 1837 3008 1568 
L 3008 1549 
Q 3328 1018 3581 778 
Q 3834 538 4115 538 
z
M 2586 1158 
L 2586 1178 
Q 2221 1779 1910 2076 
Q 1600 2374 1286 2374 
Q 1018 2374 832 2147 
Q 646 1920 646 1613 
Q 646 1178 889 858 
Q 1133 538 1536 538 
Q 1734 538 1907 595 
Q 2080 653 2214 765 
Q 2349 877 2422 957 
Q 2496 1037 2586 1158 
z
" transform="scale(0.015625)"/>
       <path id="STIXGeneral-Italic-65" d="M 2291 698 
L 2368 621 
Q 1805 -70 1062 -70 
Q 672 -70 435 170 
Q 198 410 198 806 
Q 198 1555 796 2188 
Q 1395 2822 2112 2822 
Q 2362 2822 2499 2707 
Q 2637 2592 2637 2387 
Q 2637 1965 2147 1632 
Q 1658 1299 819 1190 
Q 755 1062 755 800 
Q 755 538 918 378 
Q 1082 218 1350 218 
Q 1562 218 1754 317 
Q 1946 416 2291 698 
z
M 973 1613 
L 864 1331 
Q 1581 1504 1894 1805 
Q 2214 2112 2214 2426 
Q 2214 2675 1990 2675 
Q 1722 2675 1430 2364 
Q 1139 2054 973 1613 
z
" transform="scale(0.015625)"/>
       <path id="STIXGeneral-Regular-2212" d="M 3974 1408 
L 410 1408 
L 410 1830 
L 3974 1830 
L 3974 1408 
z
" transform="scale(0.015625)"/>
       <path id="STIXGeneral-Italic-41" d="M 3610 0 
L 2042 0 
L 2042 102 
Q 2330 115 2432 192 
Q 2534 269 2534 442 
Q 2534 493 2522 608 
L 2394 1446 
L 986 1446 
L 608 736 
Q 467 474 467 314 
Q 467 122 864 102 
L 864 0 
L -326 0 
L -326 102 
Q -109 147 28 307 
Q 166 467 531 1101 
L 2355 4275 
L 2522 4275 
L 3110 736 
Q 3174 339 3264 230 
Q 3354 122 3610 102 
L 3610 0 
z
M 2362 1677 
L 2074 3360 
L 1120 1677 
L 2362 1677 
z
" transform="scale(0.015625)"/>
       <path id="STIXGeneral-Italic-42" d="M 832 4179 
L 2432 4179 
Q 3763 4179 3763 3219 
Q 3763 2771 3354 2496 
Q 3136 2349 2643 2246 
L 2643 2240 
Q 3450 1997 3450 1280 
Q 3450 653 2973 326 
Q 2496 0 1690 0 
L -51 0 
L -51 102 
Q 211 141 304 230 
Q 397 320 480 614 
L 1254 3405 
Q 1325 3654 1325 3814 
Q 1325 3955 1229 4003 
Q 1133 4051 832 4077 
L 832 4179 
z
M 1587 2323 
L 1830 2323 
Q 2458 2323 2787 2572 
Q 3117 2822 3117 3296 
Q 3117 3654 2937 3820 
Q 2758 3987 2368 3987 
Q 2221 3987 2166 3977 
Q 2112 3968 2067 3920 
Q 2022 3872 1990 3757 
L 1587 2323 
z
M 1523 2118 
L 1318 1357 
Q 1094 506 1094 461 
Q 1094 192 1523 192 
Q 2086 192 2422 473 
Q 2758 755 2758 1280 
Q 2758 1568 2636 1773 
Q 2515 1978 2330 2042 
Q 2112 2118 1523 2118 
z
" transform="scale(0.015625)"/>
      </defs>
      <use xlink:href="#STIXGeneral-Italic-68" transform="translate(0 0.911563)"/>
      <use xlink:href="#STIXGeneral-Regular-2f" transform="translate(49.999985 0.911563)"/>
      <use xlink:href="#STIXGeneral-Italic-54" transform="translate(77.799973 0.911563)"/>
      <use xlink:href="#STIXGeneral-Regular-221d" transform="translate(147.83996 0.911563)"/>
      <use xlink:href="#STIXGeneral-Italic-65" transform="translate(230.779941 0.911563)"/>
      <use xlink:href="#STIXGeneral-Regular-2212" transform="translate(281.35306 36.186563) scale(0.7)"/>
      <use xlink:href="#STIXGeneral-Italic-41" transform="translate(329.303049 36.186563) scale(0.7)"/>
      <use xlink:href="#STIXGeneral-Italic-54" transform="translate(372.073043 36.186563) scale(0.7)"/>
      <use xlink:href="#STIXGeneral-Regular-32" transform="translate(418.431083 60.879063) scale(0.49)"/>
      <use xlink:href="#STIXGeneral-Italic-65" transform="translate(446.017638 36.186563) scale(0.7)"/>
      <use xlink:href="#STIXGeneral-Italic-42" transform="translate(481.418821 60.879063) scale(0.49)"/>
      <use xlink:href="#STIXGeneral-Regular-2f" transform="translate(511.357817 60.879063) scale(0.49)"/>
      <use xlink:href="#STIXGeneral-Italic-54" transform="translate(524.979811 60.879063) scale(0.49)"/>
     </g>
    </g>
    <g id="line2d_69">
     <defs>
      <path id="maaa0d83952" d="M 0 -3 
L -3 3 
L 3 3 
z
" style="stroke: #000000; stroke-linejoin: miter"/>
     </defs>
     <g>
      <use xlink:href="#maaa0d83952" x="72.44" y="93.4" style="fill-opacity: 0; stroke: #000000; stroke-linejoin: miter"/>
     </g>
    </g>
    <g id="text_15">
     <!-- $T_c^{\mathrm{XY}}~ / ~J_\parallel $ -->
     <g transform="translate(97.64 98.3) scale(0.14 -0.14)">
      <defs>
       <path id="STIXGeneral-Regular-58" d="M 4506 0 
L 2611 0 
L 2611 122 
L 2778 134 
Q 3098 154 3098 320 
Q 3098 461 2771 947 
L 2163 1850 
L 1402 896 
Q 1062 474 1062 326 
Q 1062 230 1168 185 
Q 1274 141 1549 122 
L 1549 0 
L 64 0 
L 64 122 
Q 314 147 470 268 
Q 627 390 992 851 
L 1990 2099 
L 1312 3091 
Q 864 3744 665 3913 
Q 467 4083 141 4115 
L 141 4237 
L 2067 4237 
L 2067 4115 
L 1882 4109 
Q 1734 4102 1660 4064 
Q 1587 4026 1587 3923 
Q 1587 3885 1596 3843 
Q 1606 3802 1635 3744 
Q 1664 3686 1689 3638 
Q 1715 3590 1769 3507 
Q 1824 3424 1862 3366 
Q 1901 3309 1984 3190 
Q 2067 3072 2118 2995 
L 2400 2586 
L 3117 3482 
Q 3373 3795 3373 3910 
Q 3373 4019 3283 4064 
Q 3194 4109 2938 4115 
L 2938 4237 
L 4454 4237 
L 4454 4115 
Q 4147 4096 3968 3977 
Q 3789 3859 3482 3482 
L 2566 2349 
L 3795 595 
Q 3981 326 4115 240 
Q 4250 154 4506 122 
L 4506 0 
z
" transform="scale(0.015625)"/>
       <path id="STIXGeneral-Regular-59" d="M 4499 4237 
L 4499 4115 
Q 4218 4090 4054 3955 
Q 3891 3821 3616 3398 
L 2669 1939 
L 2669 710 
Q 2669 346 2790 243 
Q 2912 141 3328 122 
L 3328 0 
L 1370 0 
L 1370 122 
Q 1805 154 1910 259 
Q 2016 365 2016 787 
L 2016 1882 
L 1178 3110 
Q 742 3750 556 3926 
Q 371 4102 141 4115 
L 141 4237 
L 1926 4237 
L 1926 4115 
L 1773 4109 
Q 1472 4102 1472 3942 
Q 1472 3808 1587 3642 
L 2522 2227 
L 3450 3648 
Q 3539 3782 3539 3917 
Q 3533 4026 3440 4067 
Q 3347 4109 3104 4115 
L 3104 4237 
L 4499 4237 
z
" transform="scale(0.015625)"/>
       <path id="STIXGeneral-Italic-63" d="M 2240 685 
L 2342 621 
Q 2048 250 1769 90 
Q 1491 -70 1133 -70 
Q 678 -70 435 179 
Q 192 429 192 915 
Q 192 1344 409 1744 
Q 627 2144 979 2432 
Q 1472 2822 2048 2822 
Q 2342 2822 2531 2675 
Q 2720 2528 2720 2304 
Q 2720 2176 2630 2086 
Q 2541 1997 2413 1997 
Q 2285 1997 2224 2070 
Q 2163 2144 2163 2253 
Q 2163 2310 2211 2403 
Q 2259 2496 2259 2560 
Q 2259 2688 2022 2688 
Q 1619 2688 1325 2381 
Q 742 1766 742 890 
Q 742 544 889 352 
Q 1037 160 1312 160 
Q 1562 160 1766 281 
Q 1971 403 2240 685 
z
" transform="scale(0.015625)"/>
      </defs>
      <use xlink:href="#STIXGeneral-Italic-54" transform="translate(0 0.382813)"/>
      <use xlink:href="#STIXGeneral-Regular-58" transform="translate(66.225772 35.657813) scale(0.7)"/>
      <use xlink:href="#STIXGeneral-Regular-59" transform="translate(116.765759 35.657813) scale(0.7)"/>
      <use xlink:href="#STIXGeneral-Italic-63" transform="translate(55.599991 -26.073437) scale(0.7)"/>
      <use xlink:href="#STIXGeneral-Regular-2f" transform="translate(195.781541 0.382813)"/>
      <use xlink:href="#STIXGeneral-Italic-4a" transform="translate(247.647949 0.382813)"/>
      <use xlink:href="#STIXGeneral-Regular-2225" transform="translate(302.15594 -12.845312) scale(0.7)"/>
     </g>
    </g>
    <g id="line2d_70">
     <path d="M 58.44 114.12 
L 72.44 114.12 
L 86.44 114.12 
" style="fill: none; stroke: #ff7f0e; stroke-opacity: 0.5; stroke-width: 1.5; stroke-linecap: square"/>
    </g>
    <g id="text_16">
     <!-- $h / J_\parallel = 0.1$ -->
     <g transform="translate(97.64 119.02) scale(0.14 -0.14)">
      <use xlink:href="#STIXGeneral-Italic-68" transform="translate(0 0.703125)"/>
      <use xlink:href="#STIXGeneral-Regular-2f" transform="translate(49.999985 0.703125)"/>
      <use xlink:href="#STIXGeneral-Italic-4a" transform="translate(77.799973 0.703125)"/>
      <use xlink:href="#STIXGeneral-Regular-2225" transform="translate(132.307964 -12.525) scale(0.7)"/>
      <use xlink:href="#STIXGeneral-Regular-3d" transform="translate(197.875324 0.703125)"/>
      <use xlink:href="#STIXGeneral-Regular-30" transform="translate(280.815305 0.703125)"/>
      <use xlink:href="#STIXGeneral-Regular-2e" transform="translate(330.81529 0.703125)"/>
      <use xlink:href="#STIXGeneral-Regular-31" transform="translate(355.815275 0.703125)"/>
     </g>
    </g>
   </g>
  </g>
 </g>
 <defs>
  <clipPath id="p756a415895">
   <rect x="45.84" y="10.8" width="404.16" height="291.38325"/>
  </clipPath>
 </defs>
</svg>
