<?xml version="1.0" encoding="utf-8" standalone="no"?>
<!DOCTYPE svg PUBLIC "-//W3C//DTD SVG 1.1//EN"
  "http://www.w3.org/Graphics/SVG/1.1/DTD/svg11.dtd">
<svg xmlns:xlink="http://www.w3.org/1999/xlink" width="432pt" height="864pt" viewBox="0 0 432 864" xmlns="http://www.w3.org/2000/svg" version="1.1">
 <metadata>
  <rdf:RDF xmlns:dc="http://purl.org/dc/elements/1.1/" xmlns:cc="http://creativecommons.org/ns#" xmlns:rdf="http://www.w3.org/1999/02/22-rdf-syntax-ns#">
   <cc:Work>
    <dc:type rdf:resource="http://purl.org/dc/dcmitype/StillImage"/>
    <dc:date>2024-05-22T12:55:52.213538</dc:date>
    <dc:format>image/svg+xml</dc:format>
    <dc:creator>
     <cc:Agent>
      <dc:title>Matplotlib v3.5.1, https://matplotlib.org/</dc:title>
     </cc:Agent>
    </dc:creator>
   </cc:Work>
  </rdf:RDF>
 </metadata>
 <defs>
  <style type="text/css">*{stroke-linejoin: round; stroke-linecap: butt}</style>
 </defs>
 <g id="figure_1">
  <g id="patch_1">
   <path d="M 0 864 
L 432 864 
L 432 0 
L 0 0 
z
" style="fill: #ffffff"/>
  </g>
  <g id="axes_1">
   <g id="patch_2">
    <path d="M 45.75 819.627 
L 419.713285 819.627 
L 419.713285 10.8 
L 45.75 10.8 
z
" style="fill: #ffffff"/>
   </g>
   <g id="matplotlib.axis_1">
    <g id="xtick_1">
     <g id="line2d_1">
      <path d="M 78.662787 819.627 
L 78.662787 10.8 
" clip-path="url(#pd4695de6ba)" style="fill: none; stroke-dasharray: 2.96,1.28; stroke-dashoffset: 0; stroke: #b0b0b0; stroke-opacity: 0.5; stroke-width: 0.8"/>
     </g>
     <g id="line2d_2">
      <defs>
       <path id="m25e3ebe4b1" d="M 0 0 
L 0 -6 
" style="stroke: #000000; stroke-width: 2"/>
      </defs>
      <g>
       <use xlink:href="#m25e3ebe4b1" x="78.662787" y="819.627" style="stroke: #000000; stroke-width: 2"/>
      </g>
     </g>
     <g id="text_1">
      <!-- 0.90 -->
      <g transform="translate(69.037787 830.639656)scale(0.11 -0.11)">
       <defs>
        <path id="STIXGeneral-Regular-30" d="M 3046 2112 
Q 3046 1683 2963 1302 
Q 2880 922 2717 602 
Q 2554 282 2266 96 
Q 1978 -90 1600 -90 
Q 1210 -90 915 108 
Q 621 307 461 640 
Q 301 973 227 1350 
Q 154 1728 154 2150 
Q 154 2746 301 3222 
Q 448 3699 790 4012 
Q 1133 4326 1626 4326 
Q 2253 4326 2649 3712 
Q 3046 3098 3046 2112 
z
M 2432 2080 
Q 2432 3091 2217 3625 
Q 2003 4160 1587 4160 
Q 1190 4160 979 3622 
Q 768 3085 768 2106 
Q 768 1120 979 598 
Q 1190 77 1600 77 
Q 2003 77 2217 598 
Q 2432 1120 2432 2080 
z
" transform="scale(0.015625)"/>
        <path id="STIXGeneral-Regular-2e" d="M 1158 275 
Q 1158 134 1052 32 
Q 947 -70 800 -70 
Q 653 -70 550 32 
Q 448 134 448 281 
Q 448 429 553 534 
Q 659 640 806 640 
Q 947 640 1052 531 
Q 1158 422 1158 275 
z
" transform="scale(0.015625)"/>
        <path id="STIXGeneral-Regular-39" d="M 378 -141 
L 358 -13 
Q 1094 115 1603 608 
Q 2112 1101 2304 1882 
Q 1933 1517 1344 1517 
Q 826 1517 509 1875 
Q 192 2234 192 2816 
Q 192 3462 573 3894 
Q 954 4326 1523 4326 
Q 2131 4326 2528 3840 
Q 2938 3328 2938 2522 
Q 2938 1958 2742 1462 
Q 2547 966 2170 621 
Q 1773 262 1395 105 
Q 1018 -51 378 -141 
z
M 2317 2272 
L 2317 2522 
Q 2317 4147 1472 4147 
Q 1171 4147 1005 3930 
Q 909 3802 845 3546 
Q 781 3290 781 3034 
Q 781 2464 995 2128 
Q 1210 1792 1568 1792 
Q 1824 1792 2070 1917 
Q 2317 2042 2317 2272 
z
" transform="scale(0.015625)"/>
       </defs>
       <use xlink:href="#STIXGeneral-Regular-30"/>
       <use xlink:href="#STIXGeneral-Regular-2e" x="49.999985"/>
       <use xlink:href="#STIXGeneral-Regular-39" x="74.999969"/>
       <use xlink:href="#STIXGeneral-Regular-30" x="124.999954"/>
      </g>
     </g>
    </g>
    <g id="xtick_2">
     <g id="line2d_3">
      <path d="M 327.628775 819.627 
L 327.628775 10.8 
" clip-path="url(#pd4695de6ba)" style="fill: none; stroke-dasharray: 2.96,1.28; stroke-dashoffset: 0; stroke: #b0b0b0; stroke-opacity: 0.5; stroke-width: 0.8"/>
     </g>
     <g id="line2d_4">
      <g>
       <use xlink:href="#m25e3ebe4b1" x="327.628775" y="819.627" style="stroke: #000000; stroke-width: 2"/>
      </g>
     </g>
     <g id="text_2">
      <!-- 1.08 -->
      <g transform="translate(318.003775 830.639656)scale(0.11 -0.11)">
       <defs>
        <path id="STIXGeneral-Regular-31" d="M 2522 0 
L 755 0 
L 755 96 
Q 1107 115 1235 227 
Q 1363 339 1363 608 
L 1363 3482 
Q 1363 3795 1171 3795 
Q 1082 3795 883 3718 
L 710 3654 
L 710 3744 
L 1856 4326 
L 1914 4307 
L 1914 486 
Q 1914 275 2042 185 
Q 2170 96 2522 96 
L 2522 0 
z
" transform="scale(0.015625)"/>
        <path id="STIXGeneral-Regular-38" d="M 2848 992 
Q 2848 499 2505 204 
Q 2163 -90 1587 -90 
Q 1050 -90 704 204 
Q 358 499 358 954 
Q 358 1293 524 1533 
Q 691 1773 1190 2125 
Q 710 2522 553 2765 
Q 397 3008 397 3328 
Q 397 3782 745 4054 
Q 1094 4326 1638 4326 
Q 2106 4326 2410 4060 
Q 2714 3795 2714 3411 
Q 2714 3059 2531 2848 
Q 2349 2637 1856 2374 
Q 2432 1990 2640 1689 
Q 2848 1389 2848 992 
z
M 2272 3411 
Q 2272 3744 2086 3945 
Q 1901 4147 1574 4147 
Q 1248 4147 1059 3977 
Q 870 3808 870 3513 
Q 870 3219 1059 2979 
Q 1248 2739 1670 2490 
Q 1997 2682 2134 2896 
Q 2272 3110 2272 3411 
z
M 1734 1741 
L 1357 1997 
Q 1075 1766 960 1545 
Q 845 1325 845 1011 
Q 845 576 1065 333 
Q 1286 90 1658 90 
Q 1971 90 2166 285 
Q 2362 480 2362 794 
Q 2362 1082 2214 1299 
Q 2067 1517 1734 1741 
z
" transform="scale(0.015625)"/>
       </defs>
       <use xlink:href="#STIXGeneral-Regular-31"/>
       <use xlink:href="#STIXGeneral-Regular-2e" x="49.999985"/>
       <use xlink:href="#STIXGeneral-Regular-30" x="74.999969"/>
       <use xlink:href="#STIXGeneral-Regular-38" x="124.999954"/>
      </g>
     </g>
    </g>
    <g id="xtick_3">
     <g id="line2d_5">
      <path d="M 161.651449 819.627 
L 161.651449 10.8 
" clip-path="url(#pd4695de6ba)" style="fill: none; stroke-dasharray: 2.96,1.28; stroke-dashoffset: 0; stroke: #b0b0b0; stroke-opacity: 0.5; stroke-width: 0.8"/>
     </g>
     <g id="line2d_6">
      <g>
       <use xlink:href="#m25e3ebe4b1" x="161.651449" y="819.627" style="stroke: #000000; stroke-width: 2"/>
      </g>
     </g>
     <g id="text_3">
      <!-- 0.96 -->
      <g transform="translate(152.026449 830.639656)scale(0.11 -0.11)">
       <defs>
        <path id="STIXGeneral-Regular-36" d="M 2854 4378 
L 2867 4275 
Q 2112 4154 1606 3664 
Q 1101 3174 973 2451 
Q 1344 2739 1786 2739 
Q 2349 2739 2672 2380 
Q 2995 2022 2995 1402 
Q 2995 774 2669 378 
Q 2291 -90 1651 -90 
Q 870 -90 518 557 
Q 218 1107 218 1786 
Q 218 2835 915 3552 
Q 1312 3962 1731 4131 
Q 2150 4301 2854 4378 
z
M 2419 1203 
Q 2419 2445 1555 2445 
Q 1235 2445 1024 2275 
Q 813 2106 813 1702 
Q 813 954 1046 522 
Q 1280 90 1722 90 
Q 2061 90 2240 394 
Q 2419 698 2419 1203 
z
" transform="scale(0.015625)"/>
       </defs>
       <use xlink:href="#STIXGeneral-Regular-30"/>
       <use xlink:href="#STIXGeneral-Regular-2e" x="49.999985"/>
       <use xlink:href="#STIXGeneral-Regular-39" x="74.999969"/>
       <use xlink:href="#STIXGeneral-Regular-36" x="124.999954"/>
      </g>
     </g>
    </g>
    <g id="xtick_4">
     <g id="line2d_7">
      <path d="M 244.640112 819.627 
L 244.640112 10.8 
" clip-path="url(#pd4695de6ba)" style="fill: none; stroke-dasharray: 2.96,1.28; stroke-dashoffset: 0; stroke: #b0b0b0; stroke-opacity: 0.5; stroke-width: 0.8"/>
     </g>
     <g id="line2d_8">
      <g>
       <use xlink:href="#m25e3ebe4b1" x="244.640112" y="819.627" style="stroke: #000000; stroke-width: 2"/>
      </g>
     </g>
     <g id="text_4">
      <!-- 1.02 -->
      <g transform="translate(235.015112 830.639656)scale(0.11 -0.11)">
       <defs>
        <path id="STIXGeneral-Regular-32" d="M 3034 877 
L 2688 0 
L 186 0 
L 186 77 
L 1325 1286 
Q 1773 1754 1965 2144 
Q 2157 2534 2157 2950 
Q 2157 3379 1920 3616 
Q 1683 3853 1267 3853 
Q 922 3853 720 3673 
Q 518 3494 326 3021 
L 192 3053 
Q 301 3648 630 3987 
Q 960 4326 1523 4326 
Q 2054 4326 2380 4006 
Q 2707 3686 2707 3200 
Q 2707 2477 1888 1613 
L 832 486 
L 2330 486 
Q 2541 486 2665 569 
Q 2790 653 2944 915 
L 3034 877 
z
" transform="scale(0.015625)"/>
       </defs>
       <use xlink:href="#STIXGeneral-Regular-31"/>
       <use xlink:href="#STIXGeneral-Regular-2e" x="49.999985"/>
       <use xlink:href="#STIXGeneral-Regular-30" x="74.999969"/>
       <use xlink:href="#STIXGeneral-Regular-32" x="124.999954"/>
      </g>
     </g>
    </g>
    <g id="xtick_5">
     <g id="line2d_9">
      <path d="M 410.617438 819.627 
L 410.617438 10.8 
" clip-path="url(#pd4695de6ba)" style="fill: none; stroke-dasharray: 2.96,1.28; stroke-dashoffset: 0; stroke: #b0b0b0; stroke-opacity: 0.5; stroke-width: 0.8"/>
     </g>
     <g id="line2d_10">
      <g>
       <use xlink:href="#m25e3ebe4b1" x="410.617438" y="819.627" style="stroke: #000000; stroke-width: 2"/>
      </g>
     </g>
     <g id="text_5">
      <!-- 1.14 -->
      <g transform="translate(400.992438 830.639656)scale(0.11 -0.11)">
       <defs>
        <path id="STIXGeneral-Regular-34" d="M 3027 1069 
L 2368 1069 
L 2368 0 
L 1869 0 
L 1869 1069 
L 77 1069 
L 77 1478 
L 2086 4326 
L 2368 4326 
L 2368 1478 
L 3027 1478 
L 3027 1069 
z
M 1869 1478 
L 1869 3674 
L 333 1478 
L 1869 1478 
z
" transform="scale(0.015625)"/>
       </defs>
       <use xlink:href="#STIXGeneral-Regular-31"/>
       <use xlink:href="#STIXGeneral-Regular-2e" x="49.999985"/>
       <use xlink:href="#STIXGeneral-Regular-31" x="74.999969"/>
       <use xlink:href="#STIXGeneral-Regular-34" x="124.999954"/>
      </g>
     </g>
    </g>
    <g id="xtick_6">
     <g id="line2d_11">
      <defs>
       <path id="mcd81d57506" d="M 0 0 
L 0 -4 
" style="stroke: #000000"/>
      </defs>
      <g>
       <use xlink:href="#mcd81d57506" x="62.065054" y="819.627" style="stroke: #000000"/>
      </g>
     </g>
    </g>
    <g id="xtick_7">
     <g id="line2d_12">
      <g>
       <use xlink:href="#mcd81d57506" x="128.455984" y="819.627" style="stroke: #000000"/>
      </g>
     </g>
    </g>
    <g id="xtick_8">
     <g id="line2d_13">
      <g>
       <use xlink:href="#mcd81d57506" x="95.260519" y="819.627" style="stroke: #000000"/>
      </g>
     </g>
    </g>
    <g id="xtick_9">
     <g id="line2d_14">
      <g>
       <use xlink:href="#mcd81d57506" x="111.858252" y="819.627" style="stroke: #000000"/>
      </g>
     </g>
    </g>
    <g id="xtick_10">
     <g id="line2d_15">
      <g>
       <use xlink:href="#mcd81d57506" x="145.053717" y="819.627" style="stroke: #000000"/>
      </g>
     </g>
    </g>
    <g id="xtick_11">
     <g id="line2d_16">
      <g>
       <use xlink:href="#mcd81d57506" x="178.249182" y="819.627" style="stroke: #000000"/>
      </g>
     </g>
    </g>
    <g id="xtick_12">
     <g id="line2d_17">
      <g>
       <use xlink:href="#mcd81d57506" x="194.846915" y="819.627" style="stroke: #000000"/>
      </g>
     </g>
    </g>
    <g id="xtick_13">
     <g id="line2d_18">
      <g>
       <use xlink:href="#mcd81d57506" x="211.444647" y="819.627" style="stroke: #000000"/>
      </g>
     </g>
    </g>
    <g id="xtick_14">
     <g id="line2d_19">
      <g>
       <use xlink:href="#mcd81d57506" x="228.04238" y="819.627" style="stroke: #000000"/>
      </g>
     </g>
    </g>
    <g id="xtick_15">
     <g id="line2d_20">
      <g>
       <use xlink:href="#mcd81d57506" x="261.237845" y="819.627" style="stroke: #000000"/>
      </g>
     </g>
    </g>
    <g id="xtick_16">
     <g id="line2d_21">
      <g>
       <use xlink:href="#mcd81d57506" x="394.019705" y="819.627" style="stroke: #000000"/>
      </g>
     </g>
    </g>
    <g id="xtick_17">
     <g id="line2d_22">
      <g>
       <use xlink:href="#mcd81d57506" x="311.031043" y="819.627" style="stroke: #000000"/>
      </g>
     </g>
    </g>
    <g id="xtick_18">
     <g id="line2d_23">
      <g>
       <use xlink:href="#mcd81d57506" x="377.421973" y="819.627" style="stroke: #000000"/>
      </g>
     </g>
    </g>
    <g id="xtick_19">
     <g id="line2d_24">
      <g>
       <use xlink:href="#mcd81d57506" x="294.43331" y="819.627" style="stroke: #000000"/>
      </g>
     </g>
    </g>
    <g id="xtick_20">
     <g id="line2d_25">
      <g>
       <use xlink:href="#mcd81d57506" x="360.82424" y="819.627" style="stroke: #000000"/>
      </g>
     </g>
    </g>
    <g id="xtick_21">
     <g id="line2d_26">
      <g>
       <use xlink:href="#mcd81d57506" x="277.835577" y="819.627" style="stroke: #000000"/>
      </g>
     </g>
    </g>
    <g id="xtick_22">
     <g id="line2d_27">
      <g>
       <use xlink:href="#mcd81d57506" x="344.226508" y="819.627" style="stroke: #000000"/>
      </g>
     </g>
    </g>
    <g id="text_6">
     <!-- $J_\parallel / T$ -->
     <g transform="translate(219.431643 846.547)scale(0.14 -0.14)">
      <defs>
       <path id="STIXGeneral-Italic-4a" d="M 3142 4179 
L 3142 4077 
Q 2867 4038 2784 3964 
Q 2701 3891 2618 3603 
L 1958 1254 
Q 1773 589 1504 237 
Q 1235 -115 710 -115 
Q 371 -115 166 38 
Q -38 192 -38 448 
Q -38 602 42 704 
Q 122 806 250 806 
Q 378 806 477 720 
Q 576 634 576 512 
Q 576 474 566 419 
Q 557 365 557 339 
Q 557 90 781 90 
Q 1005 90 1120 499 
L 1933 3405 
Q 2010 3686 2010 3814 
Q 2010 3942 1914 3996 
Q 1818 4051 1517 4077 
L 1517 4179 
L 3142 4179 
z
" transform="scale(0.015625)"/>
       <path id="STIXGeneral-Regular-2225" d="M 2522 -1210 
L 2099 -1210 
L 2099 4416 
L 2522 4416 
L 2522 -1210 
z
M 1248 -1210 
L 826 -1210 
L 826 4416 
L 1248 4416 
L 1248 -1210 
z
" transform="scale(0.015625)"/>
       <path id="STIXGeneral-Regular-2f" d="M 1837 4326 
L 378 -90 
L -58 -90 
L 1408 4326 
L 1837 4326 
z
" transform="scale(0.015625)"/>
       <path id="STIXGeneral-Italic-54" d="M 4051 4179 
L 3770 3130 
L 3661 3142 
Q 3680 3302 3680 3437 
Q 3680 3955 3034 3955 
L 2662 3955 
L 1786 819 
Q 1696 506 1696 397 
Q 1696 250 1766 195 
Q 1837 141 2035 122 
L 2259 102 
L 2259 0 
L 416 0 
L 416 102 
Q 749 134 889 230 
Q 1030 326 1101 582 
L 2016 3955 
Q 1254 3955 988 3817 
Q 723 3680 493 3162 
L 378 3187 
L 646 4179 
L 4051 4179 
z
" transform="scale(0.015625)"/>
      </defs>
      <use xlink:href="#STIXGeneral-Italic-4a" transform="translate(0 0.40625)"/>
      <use xlink:href="#STIXGeneral-Regular-2225" transform="translate(54.507991 -12.821875)scale(0.7)"/>
      <use xlink:href="#STIXGeneral-Regular-2f" transform="translate(105.635355 0.40625)"/>
      <use xlink:href="#STIXGeneral-Italic-54" transform="translate(133.435343 0.40625)"/>
     </g>
    </g>
   </g>
   <g id="matplotlib.axis_2">
    <g id="ytick_1">
     <g id="line2d_28">
      <path d="M 45.75 782.862136 
L 419.713285 782.862136 
" clip-path="url(#pd4695de6ba)" style="fill: none; stroke-dasharray: 2.96,1.28; stroke-dashoffset: 0; stroke: #b0b0b0; stroke-opacity: 0.5; stroke-width: 0.8"/>
     </g>
     <g id="line2d_29">
      <defs>
       <path id="m2fbca8ad4e" d="M 0 0 
L 6 0 
" style="stroke: #000000; stroke-width: 2"/>
      </defs>
      <g>
       <use xlink:href="#m2fbca8ad4e" x="45.75" y="782.862136" style="stroke: #000000; stroke-width: 2"/>
      </g>
     </g>
     <g id="text_7">
      <!-- 0.0 -->
      <g transform="translate(28.5 786.618464)scale(0.11 -0.11)">
       <use xlink:href="#STIXGeneral-Regular-30"/>
       <use xlink:href="#STIXGeneral-Regular-2e" x="49.999985"/>
       <use xlink:href="#STIXGeneral-Regular-30" x="74.999969"/>
      </g>
     </g>
    </g>
    <g id="ytick_2">
     <g id="line2d_30">
      <path d="M 45.75 615.886817 
L 419.713285 615.886817 
" clip-path="url(#pd4695de6ba)" style="fill: none; stroke-dasharray: 2.96,1.28; stroke-dashoffset: 0; stroke: #b0b0b0; stroke-opacity: 0.5; stroke-width: 0.8"/>
     </g>
     <g id="line2d_31">
      <g>
       <use xlink:href="#m2fbca8ad4e" x="45.75" y="615.886817" style="stroke: #000000; stroke-width: 2"/>
      </g>
     </g>
     <g id="text_8">
      <!-- 0.1 -->
      <g transform="translate(28.5 619.643146)scale(0.11 -0.11)">
       <use xlink:href="#STIXGeneral-Regular-30"/>
       <use xlink:href="#STIXGeneral-Regular-2e" x="49.999985"/>
       <use xlink:href="#STIXGeneral-Regular-31" x="74.999969"/>
      </g>
     </g>
    </g>
    <g id="ytick_3">
     <g id="line2d_32">
      <path d="M 45.75 281.936179 
L 419.713285 281.936179 
" clip-path="url(#pd4695de6ba)" style="fill: none; stroke-dasharray: 2.96,1.28; stroke-dashoffset: 0; stroke: #b0b0b0; stroke-opacity: 0.5; stroke-width: 0.8"/>
     </g>
     <g id="line2d_33">
      <g>
       <use xlink:href="#m2fbca8ad4e" x="45.75" y="281.936179" style="stroke: #000000; stroke-width: 2"/>
      </g>
     </g>
     <g id="text_9">
      <!-- 0.3 -->
      <g transform="translate(28.5 285.692508)scale(0.11 -0.11)">
       <defs>
        <path id="STIXGeneral-Regular-33" d="M 390 3264 
L 288 3290 
Q 435 3770 748 4048 
Q 1062 4326 1542 4326 
Q 1990 4326 2265 4083 
Q 2541 3840 2541 3450 
Q 2541 2925 1946 2566 
Q 2298 2413 2477 2227 
Q 2758 1914 2758 1402 
Q 2758 890 2464 506 
Q 2246 211 1840 60 
Q 1434 -90 979 -90 
Q 262 -90 262 275 
Q 262 378 339 442 
Q 416 506 525 506 
Q 685 506 915 339 
Q 1197 141 1466 141 
Q 1818 141 2058 425 
Q 2298 710 2298 1120 
Q 2298 1856 1632 2048 
Q 1434 2112 979 2112 
L 979 2202 
Q 1338 2323 1517 2432 
Q 2035 2726 2035 3290 
Q 2035 3610 1852 3776 
Q 1670 3942 1344 3942 
Q 768 3942 390 3264 
z
" transform="scale(0.015625)"/>
       </defs>
       <use xlink:href="#STIXGeneral-Regular-30"/>
       <use xlink:href="#STIXGeneral-Regular-2e" x="49.999985"/>
       <use xlink:href="#STIXGeneral-Regular-33" x="74.999969"/>
      </g>
     </g>
    </g>
    <g id="ytick_4">
     <g id="line2d_34">
      <path d="M 45.75 448.911498 
L 419.713285 448.911498 
" clip-path="url(#pd4695de6ba)" style="fill: none; stroke-dasharray: 2.96,1.28; stroke-dashoffset: 0; stroke: #b0b0b0; stroke-opacity: 0.5; stroke-width: 0.8"/>
     </g>
     <g id="line2d_35">
      <g>
       <use xlink:href="#m2fbca8ad4e" x="45.75" y="448.911498" style="stroke: #000000; stroke-width: 2"/>
      </g>
     </g>
     <g id="text_10">
      <!-- 0.2 -->
      <g transform="translate(28.5 452.667827)scale(0.11 -0.11)">
       <use xlink:href="#STIXGeneral-Regular-30"/>
       <use xlink:href="#STIXGeneral-Regular-2e" x="49.999985"/>
       <use xlink:href="#STIXGeneral-Regular-32" x="74.999969"/>
      </g>
     </g>
    </g>
    <g id="ytick_5">
     <g id="line2d_36">
      <path d="M 45.75 114.960861 
L 419.713285 114.960861 
" clip-path="url(#pd4695de6ba)" style="fill: none; stroke-dasharray: 2.96,1.28; stroke-dashoffset: 0; stroke: #b0b0b0; stroke-opacity: 0.5; stroke-width: 0.8"/>
     </g>
     <g id="line2d_37">
      <g>
       <use xlink:href="#m2fbca8ad4e" x="45.75" y="114.960861" style="stroke: #000000; stroke-width: 2"/>
      </g>
     </g>
     <g id="text_11">
      <!-- 0.4 -->
      <g transform="translate(28.5 118.717189)scale(0.11 -0.11)">
       <use xlink:href="#STIXGeneral-Regular-30"/>
       <use xlink:href="#STIXGeneral-Regular-2e" x="49.999985"/>
       <use xlink:href="#STIXGeneral-Regular-34" x="74.999969"/>
      </g>
     </g>
    </g>
    <g id="ytick_6">
     <g id="line2d_38">
      <defs>
       <path id="m2515f2a556" d="M 0 0 
L 4 0 
" style="stroke: #000000"/>
      </defs>
      <g>
       <use xlink:href="#m2515f2a556" x="45.75" y="582.491754" style="stroke: #000000"/>
      </g>
     </g>
    </g>
    <g id="ytick_7">
     <g id="line2d_39">
      <g>
       <use xlink:href="#m2515f2a556" x="45.75" y="482.306562" style="stroke: #000000"/>
      </g>
     </g>
    </g>
    <g id="ytick_8">
     <g id="line2d_40">
      <g>
       <use xlink:href="#m2515f2a556" x="45.75" y="348.726307" style="stroke: #000000"/>
      </g>
     </g>
    </g>
    <g id="ytick_9">
     <g id="line2d_41">
      <g>
       <use xlink:href="#m2515f2a556" x="45.75" y="315.331243" style="stroke: #000000"/>
      </g>
     </g>
    </g>
    <g id="ytick_10">
     <g id="line2d_42">
      <g>
       <use xlink:href="#m2515f2a556" x="45.75" y="148.355924" style="stroke: #000000"/>
      </g>
     </g>
    </g>
    <g id="ytick_11">
     <g id="line2d_43">
      <g>
       <use xlink:href="#m2515f2a556" x="45.75" y="81.565797" style="stroke: #000000"/>
      </g>
     </g>
    </g>
    <g id="ytick_12">
     <g id="line2d_44">
      <g>
       <use xlink:href="#m2515f2a556" x="45.75" y="248.541116" style="stroke: #000000"/>
      </g>
     </g>
    </g>
    <g id="ytick_13">
     <g id="line2d_45">
      <g>
       <use xlink:href="#m2515f2a556" x="45.75" y="215.146052" style="stroke: #000000"/>
      </g>
     </g>
    </g>
    <g id="ytick_14">
     <g id="line2d_46">
      <g>
       <use xlink:href="#m2515f2a556" x="45.75" y="181.750988" style="stroke: #000000"/>
      </g>
     </g>
    </g>
    <g id="ytick_15">
     <g id="line2d_47">
      <g>
       <use xlink:href="#m2515f2a556" x="45.75" y="48.170733" style="stroke: #000000"/>
      </g>
     </g>
    </g>
    <g id="ytick_16">
     <g id="line2d_48">
      <g>
       <use xlink:href="#m2515f2a556" x="45.75" y="682.676945" style="stroke: #000000"/>
      </g>
     </g>
    </g>
    <g id="ytick_17">
     <g id="line2d_49">
      <g>
       <use xlink:href="#m2515f2a556" x="45.75" y="716.072009" style="stroke: #000000"/>
      </g>
     </g>
    </g>
    <g id="ytick_18">
     <g id="line2d_50">
      <g>
       <use xlink:href="#m2515f2a556" x="45.75" y="649.281881" style="stroke: #000000"/>
      </g>
     </g>
    </g>
    <g id="ytick_19">
     <g id="line2d_51">
      <g>
       <use xlink:href="#m2515f2a556" x="45.75" y="549.09669" style="stroke: #000000"/>
      </g>
     </g>
    </g>
    <g id="ytick_20">
     <g id="line2d_52">
      <g>
       <use xlink:href="#m2515f2a556" x="45.75" y="515.701626" style="stroke: #000000"/>
      </g>
     </g>
    </g>
    <g id="ytick_21">
     <g id="line2d_53">
      <g>
       <use xlink:href="#m2515f2a556" x="45.75" y="415.516435" style="stroke: #000000"/>
      </g>
     </g>
    </g>
    <g id="ytick_22">
     <g id="line2d_54">
      <g>
       <use xlink:href="#m2515f2a556" x="45.75" y="382.121371" style="stroke: #000000"/>
      </g>
     </g>
    </g>
    <g id="ytick_23">
     <g id="line2d_55">
      <g>
       <use xlink:href="#m2515f2a556" x="45.75" y="14.775669" style="stroke: #000000"/>
      </g>
     </g>
    </g>
    <g id="ytick_24">
     <g id="line2d_56">
      <g>
       <use xlink:href="#m2515f2a556" x="45.75" y="749.467073" style="stroke: #000000"/>
      </g>
     </g>
    </g>
    <g id="text_12">
     <!-- $h~/~T$ -->
     <g transform="translate(21.461563 427.9535)rotate(-90)scale(0.14 -0.14)">
      <defs>
       <path id="STIXGeneral-Italic-68" d="M 2976 755 
L 3059 672 
Q 2765 256 2566 99 
Q 2368 -58 2125 -58 
Q 1997 -58 1920 16 
Q 1843 90 1843 211 
Q 1843 320 1971 800 
L 2323 2125 
Q 2368 2304 2368 2336 
Q 2368 2496 2189 2496 
Q 2016 2496 1744 2240 
Q 1472 1984 1216 1600 
Q 1018 1293 902 1001 
Q 787 710 602 0 
L 122 0 
L 1056 3546 
Q 1139 3866 1139 3942 
Q 1139 4019 1056 4060 
Q 973 4102 877 4102 
L 704 4102 
L 704 4198 
Q 1190 4256 1709 4371 
L 1754 4333 
L 979 1472 
Q 1811 2822 2451 2822 
Q 2662 2822 2764 2704 
Q 2867 2586 2867 2394 
Q 2867 2118 2560 1158 
Q 2349 512 2349 358 
Q 2349 243 2451 243 
Q 2528 243 2621 336 
Q 2714 429 2976 755 
z
" transform="scale(0.015625)"/>
      </defs>
      <use xlink:href="#STIXGeneral-Italic-68" transform="translate(0 0.703125)"/>
      <use xlink:href="#STIXGeneral-Regular-2f" transform="translate(74.066405 0.703125)"/>
      <use xlink:href="#STIXGeneral-Italic-54" transform="translate(125.932812 0.703125)"/>
     </g>
    </g>
   </g>
   <g id="line2d_57">
    <defs>
     <path id="mde2eb85e01" d="M -3.5 3.5 
L 3.5 3.5 
L 3.5 -3.5 
L -3.5 -3.5 
z
" style="stroke: #00305d; stroke-linejoin: miter"/>
    </defs>
    <g clip-path="url(#pd4695de6ba)">
     <use xlink:href="#mde2eb85e01" x="248.090902" y="765.788995" style="fill-opacity: 0; stroke: #00305d; stroke-linejoin: miter"/>
     <use xlink:href="#mde2eb85e01" x="188.395943" y="701.099665" style="fill-opacity: 0; stroke: #00305d; stroke-linejoin: miter"/>
     <use xlink:href="#mde2eb85e01" x="151.866369" y="623.7471" style="fill-opacity: 0; stroke: #00305d; stroke-linejoin: miter"/>
     <use xlink:href="#mde2eb85e01" x="90.09477" y="403.717452" style="fill-opacity: 0; stroke: #00305d; stroke-linejoin: miter"/>
    </g>
   </g>
   <g id="line2d_58">
    <path d="M 402.714954 760.998816 
L 398.343182 761.027775 
L 393.995707 761.034662 
L 389.672326 761.019742 
L 385.37284 760.983212 
L 381.097052 760.9252 
L 376.844765 760.845769 
L 372.615787 760.744921 
L 368.409927 760.622593 
L 364.226996 760.478661 
L 360.066806 760.312939 
L 355.929172 760.125181 
L 351.813912 759.915081 
L 347.720845 759.682268 
L 343.649792 759.426312 
L 339.600575 759.146718 
L 335.573019 758.842929 
L 331.566952 758.514318 
L 327.582201 758.160194 
L 323.618596 757.779796 
L 319.675971 757.372288 
L 315.754158 756.936761 
L 311.852993 756.472228 
L 307.972315 755.977622 
L 304.111961 755.451788 
L 300.271772 754.893485 
L 296.451592 754.301376 
L 292.651263 753.674027 
L 288.870633 753.009902 
L 285.109547 752.307354 
L 281.367855 751.56462 
L 277.645406 750.779817 
L 273.942054 749.950932 
L 270.257652 749.075815 
L 266.592053 748.152172 
L 262.945116 747.177552 
L 259.316697 746.149344 
L 255.706656 745.064759 
L 252.114854 743.920824 
L 248.541153 742.71437 
L 244.985416 741.442015 
L 241.447508 740.100154 
L 237.927296 738.684941 
L 234.424646 737.192275 
L 230.939429 735.617783 
L 227.471514 733.956799 
L 224.020772 732.204346 
L 220.587076 730.355112 
L 217.170301 728.403431 
L 213.770322 726.343251 
L 210.387014 724.168116 
L 207.020256 721.871128 
L 203.669927 719.444924 
L 200.335906 716.881636 
L 197.018076 714.172857 
L 193.716317 711.309603 
L 190.430514 708.28227 
L 187.160551 705.080588 
L 183.906314 701.693574 
L 180.667691 698.109478 
L 177.444568 694.315725 
L 174.236834 690.298856 
L 171.044381 686.044461 
L 167.867098 681.537107 
L 164.704878 676.760262 
L 161.557615 671.69621 
L 158.425201 666.325963 
L 155.307534 660.629161 
L 152.204507 654.583972 
L 149.116019 648.166974 
L 146.041968 641.353032 
L 142.982253 634.11517 
L 139.936773 626.424422 
L 136.90543 618.249679 
L 133.888125 609.557523 
L 130.884762 600.312041 
L 127.895242 590.47463 
L 124.919472 580.003784 
L 121.957357 568.854859 
L 119.008802 556.979829 
L 116.073715 544.327008 
L 113.152004 530.840758 
L 110.243578 516.46117 
L 107.348345 501.123716 
L 104.466217 484.758873 
L 101.597105 467.291717 
L 98.740921 448.641476 
L 95.897577 428.721053 
L 93.066988 407.436498 
L 90.249067 384.686448 
L 87.44373 360.361502 
L 84.650892 334.343553 
L 81.870471 306.505061 
L 79.102384 276.708258 
L 76.346548 244.804283 
L 73.602883 210.632248 
L 70.871308 174.018213 
L 68.151744 134.774071 
L 65.444111 92.696346 
L 62.748331 47.564864 
" clip-path="url(#pd4695de6ba)" style="fill: none; stroke: #006ab2; stroke-width: 1.5; stroke-linecap: square"/>
   </g>
   <g id="line2d_59">
    <defs>
     <path id="m10ccee6608" d="M 0 -3.5 
L -3.5 3.5 
L 3.5 3.5 
z
" style="stroke: #00305d; stroke-linejoin: miter"/>
    </defs>
    <g clip-path="url(#pd4695de6ba)">
     <use xlink:href="#m10ccee6608" x="402.714954" y="782.862136" style="fill-opacity: 0; stroke: #00305d; stroke-linejoin: miter"/>
    </g>
   </g>
   <g id="line2d_60"/>
   <g id="patch_3">
    <path d="M 45.75 819.627 
L 45.75 10.8 
" style="fill: none; stroke: #000000; stroke-width: 0.8; stroke-linejoin: miter; stroke-linecap: square"/>
   </g>
   <g id="patch_4">
    <path d="M 419.713285 819.627 
L 419.713285 10.8 
" style="fill: none; stroke: #000000; stroke-width: 0.8; stroke-linejoin: miter; stroke-linecap: square"/>
   </g>
   <g id="patch_5">
    <path d="M 45.75 819.627 
L 419.713285 819.627 
" style="fill: none; stroke: #000000; stroke-width: 0.8; stroke-linejoin: miter; stroke-linecap: square"/>
   </g>
   <g id="patch_6">
    <path d="M 45.75 10.8 
L 419.713285 10.8 
" style="fill: none; stroke: #000000; stroke-width: 0.8; stroke-linejoin: miter; stroke-linecap: square"/>
   </g>
   <g id="legend_1">
    <g id="patch_7">
     <path d="M 286.713285 85.42 
L 409.913285 85.42 
Q 412.713285 85.42 412.713285 82.62 
L 412.713285 20.6 
Q 412.713285 17.8 409.913285 17.8 
L 286.713285 17.8 
Q 283.913285 17.8 283.913285 20.6 
L 283.913285 82.62 
Q 283.913285 85.42 286.713285 85.42 
z
" style="fill: #ffffff; opacity: 0.8; stroke: #cccccc; stroke-linejoin: miter"/>
    </g>
    <g id="line2d_61">
     <g>
      <use xlink:href="#mde2eb85e01" x="303.513285" y="28.3" style="fill-opacity: 0; stroke: #00305d; stroke-linejoin: miter"/>
     </g>
    </g>
    <g id="text_13">
     <!-- $j_\parallel = 3.11$ -->
     <g transform="translate(328.713285 33.2)scale(0.14 -0.14)">
      <defs>
       <path id="STIXGeneral-Italic-6a" d="M 1786 3827 
Q 1786 3699 1690 3603 
Q 1594 3507 1466 3507 
Q 1318 3507 1219 3600 
Q 1120 3693 1120 3840 
Q 1120 3981 1222 4077 
Q 1325 4173 1459 4173 
Q 1587 4173 1686 4067 
Q 1786 3962 1786 3827 
z
M 1574 2803 
L 909 179 
Q 710 -595 419 -960 
Q 128 -1325 -288 -1325 
Q -512 -1325 -653 -1216 
Q -794 -1107 -794 -934 
Q -794 -819 -717 -736 
Q -640 -653 -531 -653 
Q -282 -653 -282 -890 
Q -282 -966 -320 -1014 
Q -358 -1062 -358 -1107 
Q -358 -1184 -243 -1184 
Q -51 -1184 80 -934 
Q 211 -685 378 -19 
L 838 1850 
Q 941 2266 941 2362 
Q 941 2470 873 2515 
Q 806 2560 634 2560 
L 467 2560 
L 467 2662 
Q 755 2682 1549 2822 
L 1574 2803 
z
" transform="scale(0.015625)"/>
       <path id="STIXGeneral-Regular-3d" d="M 4077 2048 
L 307 2048 
L 307 2470 
L 4077 2470 
L 4077 2048 
z
M 4077 768 
L 307 768 
L 307 1190 
L 4077 1190 
L 4077 768 
z
" transform="scale(0.015625)"/>
      </defs>
      <use xlink:href="#STIXGeneral-Italic-6a" transform="translate(0 0.40625)"/>
      <use xlink:href="#STIXGeneral-Regular-2225" transform="translate(37.907985 -12.821875)scale(0.7)"/>
      <use xlink:href="#STIXGeneral-Regular-3d" transform="translate(103.475345 0.40625)"/>
      <use xlink:href="#STIXGeneral-Regular-33" transform="translate(186.415327 0.40625)"/>
      <use xlink:href="#STIXGeneral-Regular-2e" transform="translate(236.415311 0.40625)"/>
      <use xlink:href="#STIXGeneral-Regular-31" transform="translate(261.415296 0.40625)"/>
      <use xlink:href="#STIXGeneral-Regular-31" transform="translate(311.415281 0.40625)"/>
     </g>
    </g>
    <g id="line2d_62">
     <path d="M 289.513285 49.481562 
L 303.513285 49.481562 
L 317.513285 49.481562 
" style="fill: none; stroke: #006ab2; stroke-width: 1.5; stroke-linecap: square"/>
    </g>
    <g id="text_14">
     <!-- $h / T \propto e^{-AT^2 e^{B / T}}$ -->
     <g transform="translate(328.713285 54.381562)scale(0.14 -0.14)">
      <defs>
       <path id="STIXGeneral-Regular-221d" d="M 4115 538 
L 4115 0 
Q 3674 0 3360 224 
Q 3046 448 2726 928 
Q 2266 0 1389 0 
Q 934 0 598 329 
Q 262 659 262 1280 
Q 262 1613 355 1881 
Q 448 2150 585 2307 
Q 723 2464 896 2569 
Q 1069 2675 1213 2713 
Q 1357 2752 1485 2752 
Q 1869 2752 2160 2569 
Q 2451 2387 2880 1811 
Q 3142 2285 3408 2518 
Q 3674 2752 4115 2752 
L 4115 2214 
Q 3725 2214 3443 2025 
Q 3162 1837 3008 1568 
L 3008 1549 
Q 3328 1018 3581 778 
Q 3834 538 4115 538 
z
M 2586 1158 
L 2586 1178 
Q 2221 1779 1910 2076 
Q 1600 2374 1286 2374 
Q 1018 2374 832 2147 
Q 646 1920 646 1613 
Q 646 1178 889 858 
Q 1133 538 1536 538 
Q 1734 538 1907 595 
Q 2080 653 2214 765 
Q 2349 877 2422 957 
Q 2496 1037 2586 1158 
z
" transform="scale(0.015625)"/>
       <path id="STIXGeneral-Italic-65" d="M 2291 698 
L 2368 621 
Q 1805 -70 1062 -70 
Q 672 -70 435 170 
Q 198 410 198 806 
Q 198 1555 796 2188 
Q 1395 2822 2112 2822 
Q 2362 2822 2499 2707 
Q 2637 2592 2637 2387 
Q 2637 1965 2147 1632 
Q 1658 1299 819 1190 
Q 755 1062 755 800 
Q 755 538 918 378 
Q 1082 218 1350 218 
Q 1562 218 1754 317 
Q 1946 416 2291 698 
z
M 973 1613 
L 864 1331 
Q 1581 1504 1894 1805 
Q 2214 2112 2214 2426 
Q 2214 2675 1990 2675 
Q 1722 2675 1430 2364 
Q 1139 2054 973 1613 
z
" transform="scale(0.015625)"/>
       <path id="STIXGeneral-Regular-2212" d="M 3974 1408 
L 410 1408 
L 410 1830 
L 3974 1830 
L 3974 1408 
z
" transform="scale(0.015625)"/>
       <path id="STIXGeneral-Italic-41" d="M 3610 0 
L 2042 0 
L 2042 102 
Q 2330 115 2432 192 
Q 2534 269 2534 442 
Q 2534 493 2522 608 
L 2394 1446 
L 986 1446 
L 608 736 
Q 467 474 467 314 
Q 467 122 864 102 
L 864 0 
L -326 0 
L -326 102 
Q -109 147 28 307 
Q 166 467 531 1101 
L 2355 4275 
L 2522 4275 
L 3110 736 
Q 3174 339 3264 230 
Q 3354 122 3610 102 
L 3610 0 
z
M 2362 1677 
L 2074 3360 
L 1120 1677 
L 2362 1677 
z
" transform="scale(0.015625)"/>
       <path id="STIXGeneral-Italic-42" d="M 832 4179 
L 2432 4179 
Q 3763 4179 3763 3219 
Q 3763 2771 3354 2496 
Q 3136 2349 2643 2246 
L 2643 2240 
Q 3450 1997 3450 1280 
Q 3450 653 2973 326 
Q 2496 0 1690 0 
L -51 0 
L -51 102 
Q 211 141 304 230 
Q 397 320 480 614 
L 1254 3405 
Q 1325 3654 1325 3814 
Q 1325 3955 1229 4003 
Q 1133 4051 832 4077 
L 832 4179 
z
M 1587 2323 
L 1830 2323 
Q 2458 2323 2787 2572 
Q 3117 2822 3117 3296 
Q 3117 3654 2937 3820 
Q 2758 3987 2368 3987 
Q 2221 3987 2166 3977 
Q 2112 3968 2067 3920 
Q 2022 3872 1990 3757 
L 1587 2323 
z
M 1523 2118 
L 1318 1357 
Q 1094 506 1094 461 
Q 1094 192 1523 192 
Q 2086 192 2422 473 
Q 2758 755 2758 1280 
Q 2758 1568 2636 1773 
Q 2515 1978 2330 2042 
Q 2112 2118 1523 2118 
z
" transform="scale(0.015625)"/>
      </defs>
      <use xlink:href="#STIXGeneral-Italic-68" transform="translate(0 0.911563)"/>
      <use xlink:href="#STIXGeneral-Regular-2f" transform="translate(49.999985 0.911563)"/>
      <use xlink:href="#STIXGeneral-Italic-54" transform="translate(77.799973 0.911563)"/>
      <use xlink:href="#STIXGeneral-Regular-221d" transform="translate(147.83996 0.911563)"/>
      <use xlink:href="#STIXGeneral-Italic-65" transform="translate(230.779941 0.911563)"/>
      <use xlink:href="#STIXGeneral-Regular-2212" transform="translate(281.35306 36.186563)scale(0.7)"/>
      <use xlink:href="#STIXGeneral-Italic-41" transform="translate(329.303049 36.186563)scale(0.7)"/>
      <use xlink:href="#STIXGeneral-Italic-54" transform="translate(372.073043 36.186563)scale(0.7)"/>
      <use xlink:href="#STIXGeneral-Regular-32" transform="translate(418.431083 60.879063)scale(0.49)"/>
      <use xlink:href="#STIXGeneral-Italic-65" transform="translate(446.017638 36.186563)scale(0.7)"/>
      <use xlink:href="#STIXGeneral-Italic-42" transform="translate(481.418821 60.879063)scale(0.49)"/>
      <use xlink:href="#STIXGeneral-Regular-2f" transform="translate(511.357817 60.879063)scale(0.49)"/>
      <use xlink:href="#STIXGeneral-Italic-54" transform="translate(524.979811 60.879063)scale(0.49)"/>
     </g>
    </g>
    <g id="line2d_63">
     <defs>
      <path id="m09d92d22f5" d="M 0 -3 
L -3 3 
L 3 3 
z
" style="stroke: #000000; stroke-linejoin: miter"/>
     </defs>
     <g>
      <use xlink:href="#m09d92d22f5" x="303.513285" y="71" style="fill-opacity: 0; stroke: #000000; stroke-linejoin: miter"/>
     </g>
    </g>
    <g id="text_15">
     <!-- $T_c^{\mathrm{XY}}~ / ~J_\parallel $ -->
     <g transform="translate(328.713285 75.9)scale(0.14 -0.14)">
      <defs>
       <path id="STIXGeneral-Regular-58" d="M 4506 0 
L 2611 0 
L 2611 122 
L 2778 134 
Q 3098 154 3098 320 
Q 3098 461 2771 947 
L 2163 1850 
L 1402 896 
Q 1062 474 1062 326 
Q 1062 230 1168 185 
Q 1274 141 1549 122 
L 1549 0 
L 64 0 
L 64 122 
Q 314 147 470 268 
Q 627 390 992 851 
L 1990 2099 
L 1312 3091 
Q 864 3744 665 3913 
Q 467 4083 141 4115 
L 141 4237 
L 2067 4237 
L 2067 4115 
L 1882 4109 
Q 1734 4102 1660 4064 
Q 1587 4026 1587 3923 
Q 1587 3885 1596 3843 
Q 1606 3802 1635 3744 
Q 1664 3686 1689 3638 
Q 1715 3590 1769 3507 
Q 1824 3424 1862 3366 
Q 1901 3309 1984 3190 
Q 2067 3072 2118 2995 
L 2400 2586 
L 3117 3482 
Q 3373 3795 3373 3910 
Q 3373 4019 3283 4064 
Q 3194 4109 2938 4115 
L 2938 4237 
L 4454 4237 
L 4454 4115 
Q 4147 4096 3968 3977 
Q 3789 3859 3482 3482 
L 2566 2349 
L 3795 595 
Q 3981 326 4115 240 
Q 4250 154 4506 122 
L 4506 0 
z
" transform="scale(0.015625)"/>
       <path id="STIXGeneral-Regular-59" d="M 4499 4237 
L 4499 4115 
Q 4218 4090 4054 3955 
Q 3891 3821 3616 3398 
L 2669 1939 
L 2669 710 
Q 2669 346 2790 243 
Q 2912 141 3328 122 
L 3328 0 
L 1370 0 
L 1370 122 
Q 1805 154 1910 259 
Q 2016 365 2016 787 
L 2016 1882 
L 1178 3110 
Q 742 3750 556 3926 
Q 371 4102 141 4115 
L 141 4237 
L 1926 4237 
L 1926 4115 
L 1773 4109 
Q 1472 4102 1472 3942 
Q 1472 3808 1587 3642 
L 2522 2227 
L 3450 3648 
Q 3539 3782 3539 3917 
Q 3533 4026 3440 4067 
Q 3347 4109 3104 4115 
L 3104 4237 
L 4499 4237 
z
" transform="scale(0.015625)"/>
       <path id="STIXGeneral-Italic-63" d="M 2240 685 
L 2342 621 
Q 2048 250 1769 90 
Q 1491 -70 1133 -70 
Q 678 -70 435 179 
Q 192 429 192 915 
Q 192 1344 409 1744 
Q 627 2144 979 2432 
Q 1472 2822 2048 2822 
Q 2342 2822 2531 2675 
Q 2720 2528 2720 2304 
Q 2720 2176 2630 2086 
Q 2541 1997 2413 1997 
Q 2285 1997 2224 2070 
Q 2163 2144 2163 2253 
Q 2163 2310 2211 2403 
Q 2259 2496 2259 2560 
Q 2259 2688 2022 2688 
Q 1619 2688 1325 2381 
Q 742 1766 742 890 
Q 742 544 889 352 
Q 1037 160 1312 160 
Q 1562 160 1766 281 
Q 1971 403 2240 685 
z
" transform="scale(0.015625)"/>
      </defs>
      <use xlink:href="#STIXGeneral-Italic-54" transform="translate(0 0.382813)"/>
      <use xlink:href="#STIXGeneral-Regular-58" transform="translate(66.225772 35.657813)scale(0.7)"/>
      <use xlink:href="#STIXGeneral-Regular-59" transform="translate(116.765759 35.657813)scale(0.7)"/>
      <use xlink:href="#STIXGeneral-Italic-63" transform="translate(55.599991 -26.073437)scale(0.7)"/>
      <use xlink:href="#STIXGeneral-Regular-2f" transform="translate(195.781541 0.382813)"/>
      <use xlink:href="#STIXGeneral-Italic-4a" transform="translate(247.647949 0.382813)"/>
      <use xlink:href="#STIXGeneral-Regular-2225" transform="translate(302.15594 -12.845312)scale(0.7)"/>
     </g>
    </g>
   </g>
  </g>
 </g>
 <defs>
  <clipPath id="pd4695de6ba">
   <rect x="45.75" y="10.8" width="373.963285" height="808.827"/>
  </clipPath>
 </defs>
</svg>
