<?xml version="1.0" encoding="utf-8" standalone="no"?>
<!DOCTYPE svg PUBLIC "-//W3C//DTD SVG 1.1//EN"
  "http://www.w3.org/Graphics/SVG/1.1/DTD/svg11.dtd">
<svg xmlns:xlink="http://www.w3.org/1999/xlink" width="424.8pt" height="280.8pt" viewBox="0 0 424.8 280.8" xmlns="http://www.w3.org/2000/svg" version="1.1">
 <metadata>
  <rdf:RDF xmlns:dc="http://purl.org/dc/elements/1.1/" xmlns:cc="http://creativecommons.org/ns#" xmlns:rdf="http://www.w3.org/1999/02/22-rdf-syntax-ns#">
   <cc:Work>
    <dc:type rdf:resource="http://purl.org/dc/dcmitype/StillImage"/>
    <dc:date>2024-12-11T15:32:01.910704</dc:date>
    <dc:format>image/svg+xml</dc:format>
    <dc:creator>
     <cc:Agent>
      <dc:title>Matplotlib v3.7.1, https://matplotlib.org/</dc:title>
     </cc:Agent>
    </dc:creator>
   </cc:Work>
  </rdf:RDF>
 </metadata>
 <defs>
  <style type="text/css">*{stroke-linejoin: round; stroke-linecap: butt}</style>
 </defs>
 <g id="figure_1">
  <g id="patch_1">
   <path d="M 0 280.8 
L 424.8 280.8 
L 424.8 0 
L 0 0 
L 0 280.8 
z
" style="fill: none"/>
  </g>
  <g id="axes_1">
   <g id="line2d_1">
    <path d="M 25.854545 19.309091 
L 28.468796 19.426429 
L 31.083047 19.778214 
L 33.697297 20.363766 
L 36.311548 21.181948 
L 38.925799 22.231177 
L 41.540049 23.509418 
L 44.1543 25.014194 
L 47.142015 27.007566 
L 50.12973 29.287952 
L 53.117445 31.84958 
L 56.10516 34.685965 
L 59.466339 38.196355 
L 62.827518 42.034134 
L 66.562162 46.667322 
L 70.296806 51.671173 
L 74.404914 57.579865 
L 78.513022 63.884815 
L 82.994595 71.179378 
L 87.849631 79.525213 
L 93.078133 88.966244 
L 99.053563 100.239573 
L 106.149386 114.144895 
L 115.485995 132.979351 
L 133.785749 169.990412 
L 140.881572 183.777732 
L 146.857002 194.916015 
L 152.085504 204.21325 
L 156.940541 212.405149 
L 161.422113 219.541084 
L 165.530221 225.68747 
L 169.638329 231.425796 
L 173.372973 236.265211 
L 177.107617 240.725534 
L 180.468796 244.40109 
L 183.829975 247.743501 
L 186.81769 250.426174 
L 189.805405 252.830356 
L 192.79312 254.949961 
L 195.780835 256.779624 
L 198.395086 258.139078 
L 201.009337 259.270353 
L 203.623587 260.171257 
L 206.237838 260.840045 
L 208.852088 261.27542 
L 211.466339 261.476539 
L 214.08059 261.443012 
L 216.69484 261.174903 
L 219.309091 260.672732 
L 221.923342 259.937473 
L 224.537592 258.970551 
L 227.151843 257.773839 
L 229.766093 256.349656 
L 232.753808 254.447045 
L 235.741523 252.255764 
L 238.729238 249.781361 
L 241.716953 247.030099 
L 245.078133 243.612692 
L 248.439312 239.864666 
L 251.800491 235.798025 
L 255.535135 230.921729 
L 259.269779 225.68747 
L 263.377887 219.541084 
L 267.859459 212.405149 
L 272.714496 204.21325 
L 277.942998 194.916015 
L 283.544963 184.487927 
L 289.893857 172.200548 
L 298.110074 155.781041 
L 324.25258 103.125953 
L 330.601474 91.043726 
L 336.20344 80.846722 
L 341.058477 72.434611 
L 345.540049 65.071414 
L 350.021622 58.137108 
L 354.12973 52.191195 
L 357.864373 47.151343 
L 361.599017 42.480239 
L 364.960197 38.606823 
L 368.321376 35.059482 
L 371.682555 31.84958 
L 374.67027 29.287952 
L 377.657985 27.007566 
L 380.6457 25.014194 
L 383.633415 23.31288 
L 386.247666 22.067214 
L 388.861916 21.050878 
L 391.476167 20.265841 
L 394.090418 19.713626 
L 396.704668 19.395302 
L 398.945455 19.309091 
L 398.945455 19.309091 
" clip-path="url(#p3ea433d7a9)" style="fill: none; stroke: #ff0000; stroke-width: 2; stroke-linecap: square"/>
   </g>
  </g>
 </g>
 <defs>
  <clipPath id="p3ea433d7a9">
   <rect x="7.2" y="7.2" width="410.4" height="266.4"/>
  </clipPath>
 </defs>
</svg>
