<?xml version="1.0" encoding="utf-8" standalone="no"?>
<!DOCTYPE svg PUBLIC "-//W3C//DTD SVG 1.1//EN"
  "http://www.w3.org/Graphics/SVG/1.1/DTD/svg11.dtd">
<svg xmlns:xlink="http://www.w3.org/1999/xlink" width="424.8pt" height="280.8pt" viewBox="0 0 424.8 280.8" xmlns="http://www.w3.org/2000/svg" version="1.1">
 <metadata>
  <rdf:RDF xmlns:dc="http://purl.org/dc/elements/1.1/" xmlns:cc="http://creativecommons.org/ns#" xmlns:rdf="http://www.w3.org/1999/02/22-rdf-syntax-ns#">
   <cc:Work>
    <dc:type rdf:resource="http://purl.org/dc/dcmitype/StillImage"/>
    <dc:date>2024-12-04T14:36:24.433862</dc:date>
    <dc:format>image/svg+xml</dc:format>
    <dc:creator>
     <cc:Agent>
      <dc:title>Matplotlib v3.7.1, https://matplotlib.org/</dc:title>
     </cc:Agent>
    </dc:creator>
   </cc:Work>
  </rdf:RDF>
 </metadata>
 <defs>
  <style type="text/css">*{stroke-linejoin: round; stroke-linecap: butt}</style>
 </defs>
 <g id="figure_1">
  <g id="patch_1">
   <path d="M 0 280.8 
L 424.8 280.8 
L 424.8 0 
L 0 0 
L 0 280.8 
z
" style="fill: none"/>
  </g>
  <g id="axes_1">
   <g id="line2d_1">
    <path d="M 25.854545 19.309091 
L 26.601474 19.470097 
L 27.348403 19.952689 
L 28.095332 20.755581 
L 28.84226 21.87664 
L 29.589189 23.312884 
L 30.709582 26.049641 
L 31.829975 29.470406 
L 32.950369 33.554718 
L 34.444226 39.989871 
L 35.938084 47.492384 
L 37.805405 58.24899 
L 39.672727 70.369393 
L 41.913514 86.429387 
L 44.527764 106.766981 
L 49.009337 143.789113 
L 53.864373 183.422167 
L 56.478624 203.044307 
L 58.71941 218.265611 
L 60.586732 229.543146 
L 62.454054 239.340821 
L 63.947912 246.003263 
L 65.441769 251.543152 
L 66.562162 254.925501 
L 67.682555 257.622799 
L 68.802948 259.618912 
L 69.549877 260.554035 
L 70.296806 261.169638 
L 71.043735 261.464086 
L 71.790663 261.436594 
L 72.537592 261.087236 
L 73.284521 260.416941 
L 74.03145 259.427491 
L 74.778378 258.121517 
L 75.898771 255.576901 
L 77.019165 252.343337 
L 78.139558 248.440167 
L 79.633415 242.235247 
L 81.127273 234.947826 
L 82.62113 226.655371 
L 84.488452 215.011704 
L 86.729238 199.422818 
L 89.343489 179.481689 
L 93.078133 148.961294 
L 99.427027 96.880774 
L 102.041278 77.300926 
L 104.282064 62.12772 
L 106.149386 50.897762 
L 108.016708 41.153638 
L 109.510565 34.537745 
L 111.004423 29.047168 
L 112.124816 25.703301 
L 113.245209 23.045514 
L 114.365602 21.089705 
L 115.112531 20.181773 
L 115.859459 19.593534 
L 116.606388 19.32655 
L 117.353317 19.381533 
L 118.100246 19.758337 
L 118.847174 20.455959 
L 119.594103 21.472543 
L 120.341032 22.805388 
L 121.461425 25.389661 
L 122.581818 28.66189 
L 123.702211 32.602502 
L 125.196069 38.855059 
L 126.689926 46.187039 
L 128.557248 56.75019 
L 130.42457 68.702021 
L 132.665356 84.596478 
L 135.279607 104.796514 
L 139.387715 138.610734 
L 144.616216 181.493891 
L 147.230467 201.275584 
L 149.471253 216.679641 
L 151.338575 228.138628 
L 153.205897 238.14107 
L 154.699754 244.981842 
L 156.193612 250.710918 
L 157.314005 254.241076 
L 158.434398 257.090278 
L 159.554791 259.241479 
L 160.30172 260.281307 
L 161.048649 261.002341 
L 161.795577 261.402663 
L 162.542506 261.481209 
L 163.289435 261.237771 
L 164.036364 260.672995 
L 164.783292 259.788383 
L 165.530221 258.586289 
L 166.650614 256.195087 
L 167.771007 253.111241 
L 168.8914 249.353195 
L 170.385258 243.333132 
L 171.879115 236.218899 
L 173.372973 228.08612 
L 175.240295 216.620477 
L 177.481081 201.209736 
L 180.095332 181.422243 
L 183.456511 154.117819 
L 190.552334 95.887473 
L 193.166585 76.393345 
L 195.407371 61.317219 
L 197.274693 50.183064 
L 198.76855 42.346025 
L 200.262408 35.5513 
L 201.756265 29.871115 
L 202.876658 26.379182 
L 203.997052 23.569286 
L 205.117445 21.458235 
L 205.864373 20.445525 
L 206.611302 19.751807 
L 207.358231 19.378923 
L 208.10516 19.327867 
L 208.852088 19.598775 
L 209.599017 20.190924 
L 210.345946 21.102742 
L 211.092875 22.331802 
L 212.213268 24.762846 
L 213.333661 27.885595 
L 214.454054 31.681371 
L 215.947912 37.74953 
L 217.441769 44.908862 
L 218.935627 53.083266 
L 220.802948 64.595383 
L 223.043735 80.052738 
L 225.657985 99.880613 
L 229.392629 130.320895 
L 235.741523 182.495253 
L 238.355774 202.194923 
L 240.59656 217.504771 
L 242.463882 228.870081 
L 244.331204 238.766704 
L 245.825061 245.515251 
L 247.318919 251.146433 
L 248.439312 254.600074 
L 249.559705 257.37061 
L 250.680098 259.44147 
L 251.427027 260.427042 
L 252.173956 261.093432 
L 252.920885 261.438869 
L 253.667813 261.462433 
L 254.414742 261.164063 
L 255.161671 260.544551 
L 255.9086 259.605545 
L 256.655528 258.349542 
L 257.775921 255.878703 
L 258.896314 252.717112 
L 260.016708 248.883679 
L 261.510565 242.767543 
L 263.004423 235.56325 
L 264.49828 227.347381 
L 266.365602 215.789013 
L 268.606388 200.285342 
L 271.220639 180.417471 
L 274.955283 149.948601 
L 281.304177 97.806148 
L 283.918428 78.148062 
L 286.159214 62.885764 
L 288.026536 51.567624 
L 289.893857 41.724199 
L 291.387715 35.02196 
L 292.881572 29.439889 
L 294.001966 26.024608 
L 295.122359 23.293485 
L 296.242752 21.262857 
L 296.989681 20.304442 
L 297.736609 19.665393 
L 298.483538 19.347409 
L 299.230467 19.351337 
L 299.977396 19.677165 
L 300.724324 20.324027 
L 301.471253 21.290203 
L 302.218182 22.573124 
L 303.338575 25.08371 
L 304.458968 28.284082 
L 305.579361 32.155098 
L 307.073219 38.319092 
L 308.567076 45.568206 
L 310.060934 53.825382 
L 311.928256 65.429777 
L 314.169042 80.979462 
L 316.783292 100.886946 
L 320.517936 131.383813 
L 326.86683 183.49335 
L 329.481081 203.109471 
L 331.721867 218.323923 
L 333.589189 229.594674 
L 335.456511 239.38471 
L 336.950369 246.040511 
L 338.444226 251.573362 
L 339.564619 254.950217 
L 340.685012 257.641874 
L 341.805405 259.632231 
L 342.552334 260.563471 
L 343.299263 261.175166 
L 344.046192 261.46569 
L 344.79312 261.434271 
L 345.540049 261.080992 
L 346.286978 260.406792 
L 347.033907 259.413465 
L 347.780835 258.103651 
L 348.901229 255.553366 
L 350.021622 252.314275 
L 351.142015 248.405752 
L 352.635872 242.194018 
L 354.12973 234.900224 
L 355.623587 226.601901 
L 357.490909 214.951704 
L 359.731695 199.356306 
L 362.345946 179.409596 
L 366.08059 148.885323 
L 372.429484 96.809711 
L 375.043735 77.235936 
L 377.284521 62.069625 
L 379.151843 50.846481 
L 381.019165 41.110023 
L 382.513022 34.500791 
L 384.00688 29.017266 
L 385.127273 25.678902 
L 386.247666 23.026764 
L 387.368059 21.076716 
L 388.114988 20.17267 
L 388.861916 19.58834 
L 389.608845 19.325281 
L 390.355774 19.384191 
L 391.102703 19.764915 
L 391.849631 20.46644 
L 392.59656 21.486899 
L 393.343489 22.82358 
L 394.463882 25.413514 
L 395.584275 28.691262 
L 396.704668 32.637217 
L 398.198526 38.896569 
L 398.945455 42.435479 
L 398.945455 42.435479 
" clip-path="url(#p826f232599)" style="fill: none; stroke: #ff0000; stroke-width: 2; stroke-linecap: square"/>
   </g>
  </g>
 </g>
 <defs>
  <clipPath id="p826f232599">
   <rect x="7.2" y="7.2" width="410.4" height="266.4"/>
  </clipPath>
 </defs>
</svg>
