<?xml version="1.0" encoding="utf-8" standalone="no"?>
<!DOCTYPE svg PUBLIC "-//W3C//DTD SVG 1.1//EN"
  "http://www.w3.org/Graphics/SVG/1.1/DTD/svg11.dtd">
<svg xmlns:xlink="http://www.w3.org/1999/xlink" width="349.2pt" height="236.16pt" viewBox="0 0 349.2 236.16" xmlns="http://www.w3.org/2000/svg" version="1.1">
 <metadata>
  <rdf:RDF xmlns:dc="http://purl.org/dc/elements/1.1/" xmlns:cc="http://creativecommons.org/ns#" xmlns:rdf="http://www.w3.org/1999/02/22-rdf-syntax-ns#">
   <cc:Work>
    <dc:type rdf:resource="http://purl.org/dc/dcmitype/StillImage"/>
    <dc:date>2024-12-03T15:18:39.565818</dc:date>
    <dc:format>image/svg+xml</dc:format>
    <dc:creator>
     <cc:Agent>
      <dc:title>Matplotlib v3.5.1, https://matplotlib.org/</dc:title>
     </cc:Agent>
    </dc:creator>
   </cc:Work>
  </rdf:RDF>
 </metadata>
 <defs>
  <style type="text/css">*{stroke-linejoin: round; stroke-linecap: butt}</style>
 </defs>
 <g id="figure_1">
  <g id="patch_1">
   <path d="M 0 236.16 
L 349.2 236.16 
L 349.2 0 
L 0 0 
z
" style="fill: #ffffff"/>
  </g>
  <g id="axes_1">
   <g id="line2d_1">
    <path d="M 22.418182 17.28 
L 26.687812 31.850808 
L 30.957442 45.623658 
L 35.227072 58.631748 
L 39.496702 70.907302 
L 43.766333 82.481571 
L 48.035963 93.384836 
L 52.305593 103.646404 
L 56.575223 113.294609 
L 60.844853 122.356814 
L 65.114484 130.859411 
L 69.384114 138.827817 
L 73.653744 146.286479 
L 77.923374 153.258869 
L 82.193004 159.76749 
L 86.462634 165.83387 
L 90.732265 171.478566 
L 95.001895 176.721164 
L 99.271525 181.580274 
L 103.541155 186.073537 
L 107.810785 190.217622 
L 112.080415 194.028222 
L 116.350046 197.520062 
L 120.619676 200.706892 
L 124.889306 203.60149 
L 129.158936 206.215664 
L 133.428566 208.560247 
L 137.698196 210.6451 
L 141.967827 212.479114 
L 146.237457 214.070205 
L 150.507087 215.425318 
L 154.776717 216.550426 
L 159.046347 217.45053 
L 163.315977 218.129656 
L 167.585608 218.590861 
L 171.855238 218.836229 
L 176.124868 218.86687 
L 180.394498 218.682924 
L 184.664128 218.283556 
L 188.933758 217.666962 
L 193.203389 216.830364 
L 197.473019 215.770011 
L 201.742649 214.48118 
L 206.012279 212.958177 
L 210.281909 211.194336 
L 214.551539 209.182015 
L 218.82117 206.912605 
L 223.0908 204.37652 
L 227.36043 201.563205 
L 231.63006 198.461131 
L 235.89969 195.057798 
L 240.16932 191.339731 
L 244.438951 187.292487 
L 248.708581 182.900648 
L 252.978211 178.147822 
L 257.247841 173.01665 
L 261.517471 167.488794 
L 265.787101 161.544951 
L 270.056732 155.164839 
L 274.326362 148.327207 
L 278.595992 141.009833 
L 282.865622 133.189521 
L 287.135252 124.842101 
L 291.404882 115.942434 
L 295.674513 106.464407 
L 299.944143 96.380934 
L 304.213773 85.66396 
L 308.483403 74.284453 
L 312.753033 62.212413 
L 317.022664 49.416865 
L 321.292294 35.865862 
L 325.561924 21.526486 
L 326.781818 17.28 
L 326.781818 17.28 
" clip-path="url(#pb8f30f13a7)" style="fill: none; stroke: #ff0000; stroke-width: 2; stroke-linecap: square"/>
   </g>
  </g>
 </g>
 <defs>
  <clipPath id="pb8f30f13a7">
   <rect x="7.2" y="7.2" width="334.8" height="221.76"/>
  </clipPath>
 </defs>
</svg>
