<?xml version="1.0" encoding="utf-8" standalone="no"?>
<!DOCTYPE svg PUBLIC "-//W3C//DTD SVG 1.1//EN"
  "http://www.w3.org/Graphics/SVG/1.1/DTD/svg11.dtd">
<svg xmlns:xlink="http://www.w3.org/1999/xlink" width="349.2pt" height="236.16pt" viewBox="0 0 349.2 236.16" xmlns="http://www.w3.org/2000/svg" version="1.1">
 <metadata>
  <rdf:RDF xmlns:dc="http://purl.org/dc/elements/1.1/" xmlns:cc="http://creativecommons.org/ns#" xmlns:rdf="http://www.w3.org/1999/02/22-rdf-syntax-ns#">
   <cc:Work>
    <dc:type rdf:resource="http://purl.org/dc/dcmitype/StillImage"/>
    <dc:date>2024-12-03T15:17:45.125147</dc:date>
    <dc:format>image/svg+xml</dc:format>
    <dc:creator>
     <cc:Agent>
      <dc:title>Matplotlib v3.5.1, https://matplotlib.org/</dc:title>
     </cc:Agent>
    </dc:creator>
   </cc:Work>
  </rdf:RDF>
 </metadata>
 <defs>
  <style type="text/css">*{stroke-linejoin: round; stroke-linecap: butt}</style>
 </defs>
 <g id="figure_1">
  <g id="patch_1">
   <path d="M 0 236.16 
L 349.2 236.16 
L 349.2 0 
L 0 0 
z
" style="fill: #ffffff"/>
  </g>
  <g id="axes_1">
   <g id="line2d_1">
    <path d="M 22.418182 17.28 
L 26.077865 35.984007 
L 29.737548 53.35531 
L 32.787284 66.8602 
L 35.837019 79.52135 
L 38.886755 91.374655 
L 41.936491 102.455234 
L 44.986227 112.797422 
L 48.035963 122.434775 
L 51.085699 131.400068 
L 54.135435 139.725296 
L 57.18517 147.441675 
L 60.234906 154.579638 
L 63.284642 161.16884 
L 66.334378 167.238154 
L 69.384114 172.815674 
L 72.43385 177.928711 
L 75.483585 182.6038 
L 78.533321 186.866691 
L 81.583057 190.742358 
L 84.632793 194.25499 
L 87.682529 197.428 
L 90.732265 200.284018 
L 93.782 202.844894 
L 96.831736 205.131698 
L 99.881472 207.16472 
L 102.931208 208.963469 
L 106.590891 210.839042 
L 110.250574 212.435071 
L 113.910257 213.780816 
L 117.56994 214.903923 
L 121.83957 215.967454 
L 126.1092 216.80185 
L 130.988778 217.520333 
L 136.478302 218.086168 
L 142.577774 218.484774 
L 149.89714 218.740032 
L 160.266242 218.864134 
L 187.713864 218.868884 
L 199.912807 218.725688 
L 207.842121 218.421019 
L 213.941592 217.979576 
L 219.431117 217.3617 
L 224.310694 216.584704 
L 228.580324 215.688599 
L 232.849954 214.552652 
L 236.509637 213.358304 
L 240.16932 211.932282 
L 243.829003 210.246403 
L 246.878739 208.62155 
L 249.928475 206.77747 
L 252.978211 204.695278 
L 256.027947 202.355307 
L 259.077683 199.737114 
L 262.127418 196.819471 
L 265.177154 193.580372 
L 268.22689 189.99703 
L 271.276626 186.045879 
L 274.326362 181.702571 
L 277.376098 176.941977 
L 280.425833 171.738191 
L 283.475569 166.064523 
L 286.525305 159.893503 
L 289.575041 153.196884 
L 292.624777 145.945635 
L 295.674513 138.109946 
L 298.724248 129.659227 
L 301.773984 120.562106 
L 304.82372 110.786434 
L 307.873456 100.299277 
L 310.923192 89.066925 
L 313.972928 77.054885 
L 317.022664 64.227884 
L 320.072399 50.549869 
L 323.122135 35.984007 
L 326.171871 20.492685 
L 326.781818 17.28 
L 326.781818 17.28 
" clip-path="url(#pbddcb8ebe2)" style="fill: none; stroke: #ff0000; stroke-width: 2; stroke-linecap: square"/>
   </g>
  </g>
 </g>
 <defs>
  <clipPath id="pbddcb8ebe2">
   <rect x="7.2" y="7.2" width="334.8" height="221.76"/>
  </clipPath>
 </defs>
</svg>
