<?xml version="1.0" encoding="utf-8" standalone="no"?>
<!DOCTYPE svg PUBLIC "-//W3C//DTD SVG 1.1//EN"
  "http://www.w3.org/Graphics/SVG/1.1/DTD/svg11.dtd">
<svg xmlns:xlink="http://www.w3.org/1999/xlink" width="349.2pt" height="236.16pt" viewBox="0 0 349.2 236.16" xmlns="http://www.w3.org/2000/svg" version="1.1">
 <metadata>
  <rdf:RDF xmlns:dc="http://purl.org/dc/elements/1.1/" xmlns:cc="http://creativecommons.org/ns#" xmlns:rdf="http://www.w3.org/1999/02/22-rdf-syntax-ns#">
   <cc:Work>
    <dc:type rdf:resource="http://purl.org/dc/dcmitype/StillImage"/>
    <dc:date>2024-12-03T15:15:58.341764</dc:date>
    <dc:format>image/svg+xml</dc:format>
    <dc:creator>
     <cc:Agent>
      <dc:title>Matplotlib v3.5.1, https://matplotlib.org/</dc:title>
     </cc:Agent>
    </dc:creator>
   </cc:Work>
  </rdf:RDF>
 </metadata>
 <defs>
  <style type="text/css">*{stroke-linejoin: round; stroke-linecap: butt}</style>
 </defs>
 <g id="figure_1">
  <g id="patch_1">
   <path d="M 0 236.16 
L 349.2 236.16 
L 349.2 0 
L 0 0 
z
" style="fill: #ffffff"/>
  </g>
  <g id="axes_1">
   <g id="line2d_1">
    <path d="M 22.418182 17.28 
L 25.467918 41.043611 
L 28.517653 62.88138 
L 31.567389 82.881944 
L 34.617125 101.132109 
L 37.056914 114.52912 
L 39.496702 126.902958 
L 41.936491 138.295538 
L 44.37628 148.748022 
L 46.816069 158.300823 
L 49.255857 166.993604 
L 51.695646 174.865279 
L 54.135435 181.954008 
L 56.575223 188.297206 
L 59.015012 193.931535 
L 61.454801 198.892906 
L 63.894589 203.216483 
L 65.724431 206.061341 
L 67.554272 208.581052 
L 69.384114 210.78962 
L 71.213955 212.700811 
L 73.043797 214.328152 
L 74.873638 215.684936 
L 76.70348 216.784216 
L 78.533321 217.638808 
L 80.363163 218.261293 
L 82.193004 218.664012 
L 84.022846 218.85907 
L 85.852687 218.858333 
L 87.682529 218.673432 
L 90.122317 218.160077 
L 92.562106 217.365892 
L 95.001895 216.316477 
L 97.441683 215.036678 
L 100.491419 213.149594 
L 103.541155 210.985552 
L 107.200838 208.084358 
L 111.470468 204.370399 
L 116.959993 199.23871 
L 136.478302 180.596225 
L 140.747932 176.941244 
L 145.017562 173.581782 
L 148.677245 170.977259 
L 152.336928 168.65716 
L 155.386664 166.959165 
L 158.4364 165.488569 
L 161.486136 164.255994 
L 164.535872 163.270231 
L 167.585608 162.538238 
L 170.635343 162.065144 
L 173.685079 161.854245 
L 176.734815 161.907007 
L 179.784551 162.223062 
L 182.834287 162.800213 
L 185.884023 163.634432 
L 188.933758 164.719858 
L 191.983494 166.048799 
L 195.03323 167.611732 
L 198.082966 169.397302 
L 201.742649 171.815174 
L 205.402332 174.508294 
L 209.671962 177.957831 
L 214.551539 182.238665 
L 220.041064 187.375017 
L 239.559373 205.999109 
L 243.829003 209.572395 
L 247.488686 212.31473 
L 250.538422 214.317945 
L 253.588158 216.017171 
L 256.027947 217.126483 
L 258.467735 217.986846 
L 260.907524 218.572849 
L 262.737366 218.816595 
L 264.567207 218.88 
L 266.397049 218.751514 
L 268.22689 218.419349 
L 270.056732 217.871479 
L 271.886573 217.095641 
L 273.716415 216.079336 
L 275.546256 214.809826 
L 277.376098 213.274135 
L 279.205939 211.459053 
L 281.035781 209.351129 
L 282.865622 206.936676 
L 284.695464 204.20177 
L 286.525305 201.132251 
L 288.355147 197.713718 
L 290.794935 192.587433 
L 293.234724 186.779283 
L 295.674513 180.253168 
L 298.114301 172.972239 
L 300.55409 164.898895 
L 302.993879 155.994786 
L 305.433667 146.220812 
L 307.873456 135.537122 
L 310.313245 123.903116 
L 312.753033 111.277443 
L 315.192822 97.618003 
L 317.632611 82.881944 
L 320.072399 67.025665 
L 323.122135 45.56237 
L 326.171871 22.191106 
L 326.781818 17.28 
L 326.781818 17.28 
" clip-path="url(#p2e095cd52b)" style="fill: none; stroke: #ff0000; stroke-width: 2; stroke-linecap: square"/>
   </g>
  </g>
 </g>
 <defs>
  <clipPath id="p2e095cd52b">
   <rect x="7.2" y="7.2" width="334.8" height="221.76"/>
  </clipPath>
 </defs>
</svg>
