<?xml version="1.0" encoding="utf-8" standalone="no"?>
<!DOCTYPE svg PUBLIC "-//W3C//DTD SVG 1.1//EN"
  "http://www.w3.org/Graphics/SVG/1.1/DTD/svg11.dtd">
<svg xmlns:xlink="http://www.w3.org/1999/xlink" width="349.2pt" height="236.16pt" viewBox="0 0 349.2 236.16" xmlns="http://www.w3.org/2000/svg" version="1.1">
 <metadata>
  <rdf:RDF xmlns:dc="http://purl.org/dc/elements/1.1/" xmlns:cc="http://creativecommons.org/ns#" xmlns:rdf="http://www.w3.org/1999/02/22-rdf-syntax-ns#">
   <cc:Work>
    <dc:type rdf:resource="http://purl.org/dc/dcmitype/StillImage"/>
    <dc:date>2024-12-03T15:32:02.307411</dc:date>
    <dc:format>image/svg+xml</dc:format>
    <dc:creator>
     <cc:Agent>
      <dc:title>Matplotlib v3.5.1, https://matplotlib.org/</dc:title>
     </cc:Agent>
    </dc:creator>
   </cc:Work>
  </rdf:RDF>
 </metadata>
 <defs>
  <style type="text/css">*{stroke-linejoin: round; stroke-linecap: butt}</style>
 </defs>
 <g id="figure_1">
  <g id="patch_1">
   <path d="M 0 236.16 
L 349.2 236.16 
L 349.2 0 
L 0 0 
z
" style="fill: #ffffff"/>
  </g>
  <g id="axes_1">
   <g id="line2d_1">
    <path d="M 22.418182 17.28 
L 27.297759 31.724043 
L 32.177336 45.476537 
L 37.056914 58.559431 
L 41.936491 70.993935 
L 46.816069 82.80052 
L 51.695646 93.998918 
L 56.575223 104.608121 
L 61.454801 114.646381 
L 66.334378 124.131213 
L 71.213955 133.07939 
L 76.093533 141.506947 
L 80.363163 148.466031 
L 84.632793 155.048019 
L 88.902423 161.262261 
L 93.172053 167.117671 
L 97.441683 172.622733 
L 101.711314 177.785494 
L 105.980944 182.613571 
L 110.250574 187.114145 
L 114.520204 191.293965 
L 118.789834 195.159346 
L 123.059464 198.71617 
L 127.329095 201.969886 
L 131.598725 204.925508 
L 135.868355 207.587617 
L 140.137985 209.960363 
L 144.407615 212.04746 
L 148.677245 213.85219 
L 152.336928 215.17653 
L 155.996611 216.297056 
L 159.656294 217.215073 
L 163.315977 217.931655 
L 166.97566 218.44764 
L 170.635343 218.763631 
L 174.295026 218.88 
L 177.954709 218.796882 
L 181.614392 218.514181 
L 185.274075 218.031564 
L 188.933758 217.348467 
L 192.593441 216.46409 
L 196.253124 215.3774 
L 199.912807 214.087129 
L 203.57249 212.591778 
L 207.842121 210.585673 
L 212.111751 208.294901 
L 216.381381 205.715871 
L 220.651011 202.844558 
L 224.920641 199.676505 
L 229.190271 196.206821 
L 233.459902 192.43018 
L 237.729532 188.340825 
L 241.999162 183.932565 
L 246.268792 179.198774 
L 250.538422 174.132395 
L 254.808052 168.725936 
L 259.077683 162.971471 
L 263.347313 156.860644 
L 267.616943 150.384661 
L 271.886573 143.534298 
L 276.156203 136.299897 
L 280.425833 128.671364 
L 284.695464 120.638175 
L 289.575041 110.947813 
L 294.454618 100.697541 
L 299.334196 89.869569 
L 304.213773 78.445366 
L 309.09335 66.405664 
L 313.972928 53.730452 
L 318.852505 40.398984 
L 323.732082 26.389771 
L 326.781818 17.28 
L 326.781818 17.28 
" clip-path="url(#pd3cbb13cab)" style="fill: none; stroke: #ff0000; stroke-width: 2; stroke-linecap: square"/>
   </g>
  </g>
 </g>
 <defs>
  <clipPath id="pd3cbb13cab">
   <rect x="7.2" y="7.2" width="334.8" height="221.76"/>
  </clipPath>
 </defs>
</svg>
