<?xml version="1.0" encoding="utf-8" standalone="no"?>
<!DOCTYPE svg PUBLIC "-//W3C//DTD SVG 1.1//EN"
  "http://www.w3.org/Graphics/SVG/1.1/DTD/svg11.dtd">
<svg xmlns:xlink="http://www.w3.org/1999/xlink" width="349.2pt" height="236.16pt" viewBox="0 0 349.2 236.16" xmlns="http://www.w3.org/2000/svg" version="1.1">
 <metadata>
  <rdf:RDF xmlns:dc="http://purl.org/dc/elements/1.1/" xmlns:cc="http://creativecommons.org/ns#" xmlns:rdf="http://www.w3.org/1999/02/22-rdf-syntax-ns#">
   <cc:Work>
    <dc:type rdf:resource="http://purl.org/dc/dcmitype/StillImage"/>
    <dc:date>2024-12-03T15:26:46.970301</dc:date>
    <dc:format>image/svg+xml</dc:format>
    <dc:creator>
     <cc:Agent>
      <dc:title>Matplotlib v3.5.1, https://matplotlib.org/</dc:title>
     </cc:Agent>
    </dc:creator>
   </cc:Work>
  </rdf:RDF>
 </metadata>
 <defs>
  <style type="text/css">*{stroke-linejoin: round; stroke-linecap: butt}</style>
 </defs>
 <g id="figure_1">
  <g id="patch_1">
   <path d="M 0 236.16 
L 349.2 236.16 
L 349.2 0 
L 0 0 
z
" style="fill: #ffffff"/>
  </g>
  <g id="axes_1">
   <g id="line2d_1">
    <path d="M 22.418182 17.28 
L 25.467918 40.873925 
L 28.517653 62.608018 
L 31.567389 82.561657 
L 34.617125 100.812692 
L 37.666861 117.437445 
L 40.10665 129.616638 
L 42.546438 140.840501 
L 44.986227 151.145998 
L 47.426016 160.569469 
L 49.865804 169.146628 
L 52.305593 176.912564 
L 54.745382 183.90174 
L 57.18517 190.147993 
L 59.624959 195.684533 
L 62.064748 200.543948 
L 63.894589 203.763394 
L 65.724431 206.633199 
L 67.554272 209.166417 
L 69.384114 211.375905 
L 71.213955 213.27432 
L 73.043797 214.874124 
L 74.873638 216.187577 
L 76.70348 217.226746 
L 78.533321 218.003495 
L 80.363163 218.529494 
L 82.193004 218.816213 
L 84.022846 218.874924 
L 85.852687 218.716702 
L 87.682529 218.352423 
L 89.51237 217.792767 
L 91.342212 217.048213 
L 93.782 215.7856 
L 96.221789 214.236364 
L 98.661578 212.423705 
L 101.101366 210.370199 
L 104.151102 207.498003 
L 107.200838 204.325227 
L 110.860521 200.177296 
L 115.130151 194.951713 
L 120.009729 188.591629 
L 126.719147 179.414965 
L 143.797668 155.825594 
L 149.287193 148.71223 
L 154.16677 142.752323 
L 158.4364 137.875029 
L 162.70603 133.355068 
L 166.365713 129.791323 
L 170.025396 126.533465 
L 173.685079 123.596446 
L 176.734815 121.402611 
L 179.784551 119.444959 
L 182.834287 117.727102 
L 185.884023 116.251123 
L 188.933758 115.017579 
L 191.983494 114.025499 
L 195.03323 113.272384 
L 198.082966 112.754208 
L 201.132702 112.465418 
L 204.182438 112.398931 
L 207.232173 112.546139 
L 210.281909 112.896907 
L 213.941592 113.569995 
L 217.601275 114.496273 
L 221.260958 115.649515 
L 225.530588 117.242429 
L 230.410166 119.32489 
L 236.509637 122.191851 
L 249.928475 128.588587 
L 254.198105 130.346783 
L 257.857788 131.630361 
L 260.907524 132.496002 
L 263.95726 133.136775 
L 267.006996 133.51413 
L 269.446784 133.599474 
L 271.886573 133.469388 
L 274.326362 133.102025 
L 276.76615 132.474909 
L 279.205939 131.564942 
L 281.645728 130.348396 
L 284.085516 128.800922 
L 285.915358 127.408142 
L 288.355147 125.221065 
L 290.794935 122.632867 
L 293.234724 119.616849 
L 295.674513 116.14569 
L 298.114301 112.191439 
L 300.55409 107.725523 
L 302.993879 102.718741 
L 305.433667 97.141267 
L 307.873456 90.962649 
L 310.313245 84.15181 
L 312.753033 76.677047 
L 315.192822 68.506031 
L 317.632611 59.605808 
L 320.072399 49.942797 
L 322.512188 39.482794 
L 324.951977 28.190966 
L 326.781818 19.154904 
L 326.781818 19.154904 
" clip-path="url(#p209bb5a86d)" style="fill: none; stroke: #ff0000; stroke-width: 2; stroke-linecap: square"/>
   </g>
  </g>
 </g>
 <defs>
  <clipPath id="p209bb5a86d">
   <rect x="7.2" y="7.2" width="334.8" height="221.76"/>
  </clipPath>
 </defs>
</svg>
