<?xml version="1.0" encoding="utf-8" standalone="no"?>
<!DOCTYPE svg PUBLIC "-//W3C//DTD SVG 1.1//EN"
  "http://www.w3.org/Graphics/SVG/1.1/DTD/svg11.dtd">
<svg xmlns:xlink="http://www.w3.org/1999/xlink" width="424.8pt" height="280.8pt" viewBox="0 0 424.8 280.8" xmlns="http://www.w3.org/2000/svg" version="1.1">
 <metadata>
  <rdf:RDF xmlns:dc="http://purl.org/dc/elements/1.1/" xmlns:cc="http://creativecommons.org/ns#" xmlns:rdf="http://www.w3.org/1999/02/22-rdf-syntax-ns#">
   <cc:Work>
    <dc:type rdf:resource="http://purl.org/dc/dcmitype/StillImage"/>
    <dc:date>2024-12-04T14:40:22.088736</dc:date>
    <dc:format>image/svg+xml</dc:format>
    <dc:creator>
     <cc:Agent>
      <dc:title>Matplotlib v3.7.1, https://matplotlib.org/</dc:title>
     </cc:Agent>
    </dc:creator>
   </cc:Work>
  </rdf:RDF>
 </metadata>
 <defs>
  <style type="text/css">*{stroke-linejoin: round; stroke-linecap: butt}</style>
 </defs>
 <g id="figure_1">
  <g id="patch_1">
   <path d="M 0 280.8 
L 424.8 280.8 
L 424.8 0 
L 0 0 
L 0 280.8 
z
" style="fill: none"/>
  </g>
  <g id="axes_1">
   <g id="line2d_1">
    <path d="M 25.854545 19.309091 
L 26.601474 19.448371 
L 27.348403 19.866268 
L 28.095332 20.560018 
L 28.84226 21.526121 
L 29.962654 23.476497 
L 31.083047 26.012724 
L 32.20344 29.114034 
L 33.697297 34.08595 
L 35.191155 39.953158 
L 37.058477 48.430436 
L 38.925799 58.022253 
L 41.166585 70.743664 
L 44.1543 89.189022 
L 53.864373 150.603949 
L 56.10516 162.887269 
L 57.972482 172.047409 
L 59.839803 180.053144 
L 61.333661 185.52946 
L 62.827518 190.112051 
L 63.947912 192.930544 
L 65.068305 195.198469 
L 66.188698 196.901239 
L 66.935627 197.716886 
L 67.682555 198.274082 
L 68.429484 198.571232 
L 69.176413 198.60749 
L 69.923342 198.38275 
L 70.67027 197.897656 
L 71.417199 197.153593 
L 72.164128 196.152687 
L 73.284521 194.176204 
L 74.404914 191.641141 
L 75.525307 188.563804 
L 77.019165 183.65187 
L 78.513022 177.867704 
L 80.380344 169.512764 
L 82.247666 160.048854 
L 84.488452 147.468731 
L 87.476167 129.160242 
L 97.93317 63.29624 
L 100.173956 51.303322 
L 102.041278 42.46063 
L 103.535135 36.265142 
L 105.028993 30.936687 
L 106.52285 26.545039 
L 107.643243 23.902506 
L 108.763636 21.842239 
L 109.510565 20.801207 
L 110.257494 20.031427 
L 111.004423 19.536602 
L 111.751351 19.319701 
L 112.49828 19.382947 
L 113.245209 19.727814 
L 113.992138 20.35502 
L 114.739066 21.264522 
L 115.485995 22.45552 
L 116.606388 24.766197 
L 117.726781 27.698098 
L 118.847174 31.238986 
L 120.341032 36.879394 
L 121.834889 43.525881 
L 123.328747 51.119679 
L 125.196069 61.837808 
L 127.436855 76.288563 
L 130.051106 94.943695 
L 133.412285 120.911195 
L 142.37543 191.520984 
L 144.989681 209.826438 
L 147.230467 223.864108 
L 149.097789 234.149946 
L 150.591646 241.335193 
L 152.085504 247.513122 
L 153.579361 252.620831 
L 154.699754 255.717551 
L 155.820147 258.165001 
L 156.940541 259.949138 
L 157.687469 260.76484 
L 158.434398 261.279024 
L 159.181327 261.490377 
L 159.928256 261.39836 
L 160.675184 261.003208 
L 161.422113 260.305929 
L 162.169042 259.308303 
L 162.915971 258.012876 
L 164.036364 255.518793 
L 165.156757 252.376582 
L 166.27715 248.604265 
L 167.771007 242.632233 
L 169.264865 235.63968 
L 171.132187 225.573194 
L 172.999509 214.183782 
L 175.240295 199.025629 
L 177.854545 179.724913 
L 181.589189 150.275066 
L 187.938084 99.954217 
L 190.552334 80.885427 
L 192.79312 65.971764 
L 194.660442 54.800228 
L 196.527764 44.946918 
L 198.021622 38.109096 
L 199.515479 32.266644 
L 201.009337 27.469553 
L 202.12973 24.581426 
L 203.250123 22.315246 
L 204.370516 20.679196 
L 205.117445 19.940877 
L 205.864373 19.48497 
L 206.611302 19.311058 
L 207.358231 19.417962 
L 208.10516 19.803755 
L 208.852088 20.465758 
L 209.599017 21.400557 
L 210.71941 23.304988 
L 211.839803 25.796728 
L 212.960197 28.855275 
L 214.454054 33.773291 
L 215.947912 39.590682 
L 217.441769 46.232543 
L 219.309091 55.566302 
L 221.549877 68.040105 
L 224.164128 83.916333 
L 228.6457 112.828301 
L 233.127273 141.255771 
L 235.741523 156.42952 
L 237.98231 168.092784 
L 239.849631 176.632721 
L 241.343489 182.580977 
L 242.837346 187.669264 
L 244.331204 191.839339 
L 245.451597 194.335217 
L 246.57199 196.271491 
L 247.318919 197.245151 
L 248.065848 197.961706 
L 248.812776 198.41911 
L 249.559705 198.616055 
L 250.306634 198.551978 
L 251.053563 198.227063 
L 251.800491 197.642238 
L 252.54742 196.799174 
L 253.294349 195.700281 
L 254.414742 193.579328 
L 255.535135 190.903633 
L 256.655528 187.690409 
L 258.149386 182.606186 
L 259.643243 176.661705 
L 261.510565 168.126015 
L 263.377887 158.506222 
L 265.618673 145.775849 
L 268.606388 127.335881 
L 278.316462 65.916698 
L 280.557248 53.650592 
L 282.42457 44.530414 
L 284.291892 36.600592 
L 285.785749 31.219994 
L 287.279607 26.772428 
L 288.4 24.085835 
L 289.520393 21.97998 
L 290.640786 20.473059 
L 291.387715 19.80855 
L 292.134644 19.420225 
L 292.881572 19.310766 
L 293.628501 19.482111 
L 294.37543 19.935442 
L 295.122359 20.671185 
L 295.869287 21.689007 
L 296.989681 23.742038 
L 298.110074 26.42022 
L 299.230467 29.712866 
L 300.35086 33.605542 
L 301.844717 39.697353 
L 303.338575 46.77058 
L 305.205897 56.894615 
L 307.073219 68.306405 
L 309.314005 83.462332 
L 311.928256 102.742692 
L 315.662899 132.16836 
L 322.011794 182.51659 
L 324.626044 201.604345 
L 326.86683 216.516192 
L 328.734152 227.659475 
L 330.601474 237.446738 
L 332.095332 244.195018 
L 333.589189 249.906868 
L 334.709582 253.47519 
L 335.829975 256.407105 
L 336.950369 258.685795 
L 337.697297 259.835404 
L 338.444226 260.685867 
L 339.191155 261.235013 
L 339.938084 261.481441 
L 340.685012 261.424522 
L 341.431941 261.064401 
L 342.17887 260.401996 
L 342.925799 259.439 
L 343.672727 258.177869 
L 344.79312 255.734414 
L 345.913514 252.641593 
L 347.033907 248.917146 
L 348.527764 243.006106 
L 350.021622 236.07074 
L 351.515479 228.181616 
L 353.382801 217.102005 
L 355.623587 202.254239 
L 358.237838 183.222488 
L 361.599017 156.95987 
L 369.441769 94.994407 
L 372.05602 76.334867 
L 374.296806 61.879245 
L 376.164128 51.156384 
L 378.03145 41.804415 
L 379.525307 35.39983 
L 381.019165 30.014092 
L 382.139558 26.670919 
L 383.259951 23.941151 
L 384.380344 21.835791 
L 385.127273 20.782825 
L 385.874201 20.011843 
L 386.62113 19.523272 
L 387.368059 19.316784 
L 388.114988 19.391287 
L 388.861916 19.744939 
L 389.608845 20.37515 
L 390.355774 21.27859 
L 391.102703 22.451198 
L 392.223096 24.704157 
L 393.343489 27.532755 
L 394.463882 30.91448 
L 395.95774 36.238813 
L 397.451597 42.430519 
L 398.945455 49.410777 
L 398.945455 49.410777 
" clip-path="url(#p3b27099b6b)" style="fill: none; stroke: #1e4375; stroke-width: 2; stroke-linecap: square"/>
   </g>
  </g>
 </g>
 <defs>
  <clipPath id="p3b27099b6b">
   <rect x="7.2" y="7.2" width="410.4" height="266.4"/>
  </clipPath>
 </defs>
</svg>
