<?xml version="1.0" encoding="utf-8" standalone="no"?>
<!DOCTYPE svg PUBLIC "-//W3C//DTD SVG 1.1//EN"
  "http://www.w3.org/Graphics/SVG/1.1/DTD/svg11.dtd">
<svg xmlns:xlink="http://www.w3.org/1999/xlink" width="856.8pt" height="280.8pt" viewBox="0 0 856.8 280.8" xmlns="http://www.w3.org/2000/svg" version="1.1">
 <metadata>
  <rdf:RDF xmlns:dc="http://purl.org/dc/elements/1.1/" xmlns:cc="http://creativecommons.org/ns#" xmlns:rdf="http://www.w3.org/1999/02/22-rdf-syntax-ns#">
   <cc:Work>
    <dc:type rdf:resource="http://purl.org/dc/dcmitype/StillImage"/>
    <dc:date>2024-12-11T15:28:08.252346</dc:date>
    <dc:format>image/svg+xml</dc:format>
    <dc:creator>
     <cc:Agent>
      <dc:title>Matplotlib v3.7.1, https://matplotlib.org/</dc:title>
     </cc:Agent>
    </dc:creator>
   </cc:Work>
  </rdf:RDF>
 </metadata>
 <defs>
  <style type="text/css">*{stroke-linejoin: round; stroke-linecap: butt}</style>
 </defs>
 <g id="figure_1">
  <g id="patch_1">
   <path d="M 0 280.8 
L 856.8 280.8 
L 856.8 0 
L 0 0 
L 0 280.8 
z
" style="fill: none"/>
  </g>
  <g id="axes_1">
   <g id="line2d_1">
    <path d="M 45.490909 19.309091 
L 47.024079 19.555362 
L 48.557248 19.957204 
L 50.857002 20.848672 
L 53.156757 22.080982 
L 55.456511 23.645997 
L 57.756265 25.533629 
L 60.05602 27.731908 
L 62.355774 30.227055 
L 64.655528 33.003565 
L 67.721867 37.113427 
L 70.788206 41.648104 
L 73.854545 46.558523 
L 77.687469 53.144095 
L 82.286978 61.556932 
L 88.419656 73.307432 
L 99.151843 93.942395 
L 103.751351 102.275013 
L 107.584275 108.775591 
L 110.650614 113.610717 
L 113.716953 118.067912 
L 116.783292 122.10264 
L 119.083047 124.827342 
L 121.382801 127.277087 
L 123.682555 129.43876 
L 125.98231 131.301067 
L 128.282064 132.854601 
L 130.581818 134.091902 
L 132.881572 135.007501 
L 135.181327 135.59795 
L 137.481081 135.861844 
L 139.780835 135.799834 
L 142.08059 135.414615 
L 144.380344 134.710915 
L 146.680098 133.695469 
L 148.979853 132.37697 
L 151.279607 130.766025 
L 153.579361 128.875087 
L 155.879115 126.718383 
L 158.17887 124.311825 
L 161.245209 120.744887 
L 164.311548 116.810599 
L 168.144472 111.452302 
L 171.977396 105.703112 
L 177.343489 97.212394 
L 190.37543 76.334906 
L 194.208354 70.641015 
L 198.041278 65.361494 
L 201.107617 61.509631 
L 204.173956 58.044845 
L 206.47371 55.729402 
L 208.773464 53.677569 
L 211.073219 51.906531 
L 213.372973 50.431848 
L 215.672727 49.267362 
L 217.972482 48.425108 
L 220.272236 47.915239 
L 221.805405 47.764119 
L 223.338575 47.766355 
L 224.871744 47.923485 
L 226.404914 48.236642 
L 227.938084 48.70655 
L 230.237838 49.705892 
L 232.537592 51.057844 
L 234.837346 52.759626 
L 237.137101 54.806382 
L 239.436855 57.191202 
L 241.736609 59.905156 
L 244.036364 62.937347 
L 246.336118 66.274967 
L 249.402457 71.174674 
L 252.468796 76.551604 
L 255.535135 82.361086 
L 259.368059 90.155604 
L 263.200983 98.443072 
L 268.567076 110.655277 
L 278.532678 134.153129 
L 284.665356 148.339682 
L 289.264865 158.458374 
L 293.097789 166.380417 
L 296.164128 172.302221 
L 299.230467 177.795816 
L 302.296806 182.811533 
L 305.363145 187.304392 
L 307.662899 190.306746 
L 309.962654 192.977714 
L 312.262408 195.30438 
L 314.562162 197.275758 
L 316.861916 198.882846 
L 319.161671 200.118686 
L 320.69484 200.733837 
L 322.22801 201.180854 
L 323.761179 201.459232 
L 325.294349 201.568887 
L 326.827518 201.510157 
L 328.360688 201.283798 
L 329.893857 200.890987 
L 331.427027 200.333314 
L 333.726781 199.192178 
L 336.026536 197.693163 
L 338.32629 195.846734 
L 340.626044 193.665301 
L 342.925799 191.163143 
L 345.225553 188.356326 
L 347.525307 185.26261 
L 350.591646 180.725025 
L 353.657985 175.76186 
L 357.490909 169.042106 
L 361.323833 161.855347 
L 366.689926 151.239128 
L 383.554791 117.33524 
L 387.387715 110.289184 
L 391.220639 103.740522 
L 394.286978 98.930673 
L 397.353317 94.555751 
L 399.653071 91.586894 
L 401.952826 88.904629 
L 404.25258 86.524076 
L 406.552334 84.458538 
L 408.852088 82.719427 
L 411.151843 81.3162 
L 413.451597 80.256309 
L 415.751351 79.545159 
L 417.284521 79.266537 
L 418.81769 79.144906 
L 420.35086 79.180327 
L 421.884029 79.372445 
L 423.417199 79.720493 
L 425.716953 80.532257 
L 428.016708 81.686461 
L 430.316462 83.175424 
L 432.616216 84.989506 
L 434.915971 87.117164 
L 437.215725 89.545029 
L 439.515479 92.257989 
L 442.581818 96.289552 
L 445.648157 100.754009 
L 448.714496 105.602999 
L 452.54742 112.125075 
L 457.146929 120.482464 
L 463.279607 132.196069 
L 474.778378 154.299911 
L 479.377887 162.606907 
L 483.210811 169.078848 
L 486.27715 173.886666 
L 489.343489 178.312977 
L 492.409828 182.313597 
L 494.709582 185.010834 
L 497.009337 187.431692 
L 499.309091 189.563237 
L 501.608845 191.394366 
L 503.9086 192.91587 
L 506.208354 194.120489 
L 508.508108 195.00296 
L 510.807862 195.560044 
L 513.107617 195.790545 
L 515.407371 195.695323 
L 517.707125 195.277284 
L 520.00688 194.541361 
L 522.306634 193.49449 
L 524.606388 192.145566 
L 526.906143 190.505385 
L 529.205897 188.586587 
L 531.505651 186.403573 
L 533.805405 183.972424 
L 536.871744 180.375642 
L 539.938084 176.415182 
L 543.771007 171.029793 
L 547.603931 165.260209 
L 552.970025 156.752905 
L 565.235381 137.070711 
L 569.834889 130.224102 
L 573.667813 124.973625 
L 576.734152 121.149654 
L 579.800491 117.716597 
L 582.100246 115.427279 
L 584.4 113.4034 
L 586.699754 111.661982 
L 588.999509 110.218416 
L 591.299263 109.086361 
L 593.599017 108.277665 
L 595.898771 107.802284 
L 597.431941 107.674573 
L 598.965111 107.700479 
L 600.49828 107.881479 
L 602.03145 108.218645 
L 603.564619 108.712636 
L 605.864373 109.748105 
L 608.164128 111.135995 
L 610.463882 112.873314 
L 612.763636 114.954994 
L 615.063391 117.373916 
L 617.363145 120.120948 
L 619.662899 123.184993 
L 621.962654 126.553053 
L 625.028993 131.49083 
L 628.095332 136.902581 
L 631.161671 142.743257 
L 634.994595 150.571155 
L 639.594103 160.596447 
L 644.960197 172.91075 
L 661.825061 212.217427 
L 666.42457 222.099028 
L 670.257494 229.764865 
L 673.323833 235.446037 
L 676.390172 240.669814 
L 679.456511 245.389169 
L 681.756265 248.572156 
L 684.05602 251.431867 
L 686.355774 253.954333 
L 688.655528 256.127471 
L 690.955283 257.941152 
L 693.255037 259.387259 
L 695.554791 260.459736 
L 697.087961 260.965107 
L 698.62113 261.301966 
L 700.1543 261.470085 
L 701.687469 261.469653 
L 703.220639 261.301283 
L 704.753808 260.966005 
L 706.286978 260.465268 
L 707.820147 259.80093 
L 710.119902 258.502743 
L 712.419656 256.850992 
L 714.71941 254.856999 
L 717.019165 252.533997 
L 719.318919 249.897053 
L 721.618673 246.962983 
L 724.685012 242.620836 
L 727.751351 237.831451 
L 730.81769 232.647179 
L 734.650614 225.697432 
L 739.250123 216.82421 
L 745.382801 204.439043 
L 756.114988 182.712869 
L 760.714496 173.949852 
L 764.54742 167.119625 
L 767.613759 162.044349 
L 770.680098 157.371406 
L 773.746437 153.148444 
L 776.046192 150.302455 
L 778.345946 147.749861 
L 780.6457 145.505003 
L 782.945455 143.580367 
L 785.245209 141.98652 
L 787.544963 140.732054 
L 789.844717 139.823531 
L 791.377887 139.41235 
L 792.911057 139.15779 
L 794.444226 139.060257 
L 795.977396 139.119748 
L 797.510565 139.335845 
L 799.043735 139.70772 
L 801.343489 140.554798 
L 803.643243 141.743622 
L 805.942998 143.266309 
L 808.242752 145.113019 
L 810.542506 147.272022 
L 811.309091 148.058797 
L 811.309091 148.058797 
" clip-path="url(#p5a45b41250)" style="fill: none; stroke: #1e4375; stroke-width: 2; stroke-linecap: square"/>
   </g>
  </g>
 </g>
 <defs>
  <clipPath id="p5a45b41250">
   <rect x="7.2" y="7.2" width="842.4" height="266.4"/>
  </clipPath>
 </defs>
</svg>
