<?xml version="1.0" encoding="utf-8" standalone="no"?>
<!DOCTYPE svg PUBLIC "-//W3C//DTD SVG 1.1//EN"
  "http://www.w3.org/Graphics/SVG/1.1/DTD/svg11.dtd">
<svg xmlns:xlink="http://www.w3.org/1999/xlink" width="424.8pt" height="280.8pt" viewBox="0 0 424.8 280.8" xmlns="http://www.w3.org/2000/svg" version="1.1">
 <metadata>
  <rdf:RDF xmlns:dc="http://purl.org/dc/elements/1.1/" xmlns:cc="http://creativecommons.org/ns#" xmlns:rdf="http://www.w3.org/1999/02/22-rdf-syntax-ns#">
   <cc:Work>
    <dc:type rdf:resource="http://purl.org/dc/dcmitype/StillImage"/>
    <dc:date>2024-12-11T15:32:01.959759</dc:date>
    <dc:format>image/svg+xml</dc:format>
    <dc:creator>
     <cc:Agent>
      <dc:title>Matplotlib v3.7.1, https://matplotlib.org/</dc:title>
     </cc:Agent>
    </dc:creator>
   </cc:Work>
  </rdf:RDF>
 </metadata>
 <defs>
  <style type="text/css">*{stroke-linejoin: round; stroke-linecap: butt}</style>
 </defs>
 <g id="figure_1">
  <g id="patch_1">
   <path d="M 0 280.8 
L 424.8 280.8 
L 424.8 0 
L 0 0 
L 0 280.8 
z
" style="fill: none"/>
  </g>
  <g id="axes_1">
   <g id="line2d_1">
    <path d="M 25.854545 19.309091 
L 26.601474 19.555362 
L 27.721867 20.216068 
L 28.84226 21.221932 
L 29.962654 22.566145 
L 31.083047 24.239914 
L 32.576904 26.965447 
L 34.070762 30.227055 
L 35.564619 33.988678 
L 37.431941 39.330636 
L 39.672727 46.558523 
L 42.286978 55.895075 
L 45.648157 68.856019 
L 53.490909 99.553825 
L 56.10516 108.775591 
L 58.345946 115.889446 
L 60.213268 121.135824 
L 62.08059 125.675159 
L 63.574447 128.750946 
L 65.068305 131.301067 
L 66.188698 132.854601 
L 67.309091 134.091902 
L 68.429484 135.007501 
L 69.549877 135.59795 
L 70.67027 135.861844 
L 71.790663 135.799834 
L 72.911057 135.414615 
L 74.03145 134.710915 
L 75.151843 133.695469 
L 76.272236 132.37697 
L 77.392629 130.766025 
L 78.886486 128.184963 
L 80.380344 125.140723 
L 82.247666 120.744887 
L 84.114988 115.775373 
L 86.355774 109.193387 
L 89.343489 99.675313 
L 97.93317 71.750249 
L 100.173956 65.361494 
L 102.041278 60.605194 
L 103.9086 56.47282 
L 105.402457 53.677569 
L 106.896314 51.381322 
L 108.016708 50.008587 
L 109.137101 48.950266 
L 110.257494 48.217774 
L 111.377887 47.820622 
L 112.124816 47.745962 
L 112.871744 47.825478 
L 113.618673 48.060505 
L 114.739066 48.70655 
L 115.859459 49.705892 
L 116.979853 51.057844 
L 118.100246 52.759626 
L 119.220639 54.806382 
L 120.714496 58.059781 
L 122.208354 61.892009 
L 123.702211 66.274967 
L 125.569533 72.475827 
L 127.436855 79.405257 
L 129.677641 88.553755 
L 132.291892 100.149816 
L 136.026536 117.839008 
L 143.122359 151.775417 
L 146.110074 164.839285 
L 148.35086 173.71778 
L 150.218182 180.366337 
L 152.085504 186.232465 
L 153.579361 190.306746 
L 155.073219 193.792108 
L 156.567076 196.658706 
L 157.687469 198.388098 
L 158.807862 199.748333 
L 159.928256 200.733837 
L 161.048649 201.341138 
L 161.795577 201.535139 
L 162.542506 201.560533 
L 163.289435 201.417868 
L 164.036364 201.10811 
L 165.156757 200.333314 
L 166.27715 199.192178 
L 167.397543 197.693163 
L 168.517936 195.846734 
L 170.011794 192.866127 
L 171.505651 189.32472 
L 172.999509 185.26261 
L 174.86683 179.522088 
L 177.107617 171.792566 
L 179.721867 161.855347 
L 183.083047 148.129163 
L 190.552334 117.33524 
L 193.166585 107.603935 
L 195.407371 100.094203 
L 197.274693 94.555751 
L 199.142015 89.765904 
L 200.635872 86.524076 
L 202.12973 83.842057 
L 203.250123 82.213954 
L 204.370516 80.924445 
L 205.490909 79.980303 
L 206.611302 79.386244 
L 207.358231 79.186084 
L 208.10516 79.142998 
L 208.852088 79.256837 
L 209.599017 79.527041 
L 210.71941 80.223299 
L 211.839803 81.264111 
L 212.960197 82.642463 
L 214.08059 84.349362 
L 215.574447 87.117164 
L 217.068305 90.418467 
L 218.562162 94.216802 
L 220.429484 99.599885 
L 222.67027 106.869285 
L 225.284521 116.242301 
L 228.6457 129.229589 
L 236.488452 159.895352 
L 239.102703 169.078848 
L 241.343489 176.150379 
L 243.210811 181.35559 
L 245.078133 185.849171 
L 246.57199 188.885591 
L 248.065848 191.394366 
L 249.186241 192.91587 
L 250.306634 194.120489 
L 251.427027 195.00296 
L 252.54742 195.560044 
L 253.667813 195.790545 
L 254.788206 195.695323 
L 255.9086 195.277284 
L 257.028993 194.541361 
L 258.149386 193.49449 
L 259.269779 192.145566 
L 260.390172 190.505385 
L 261.884029 187.887512 
L 263.377887 184.809319 
L 265.245209 180.375642 
L 267.112531 175.374024 
L 269.353317 168.761892 
L 272.341032 159.219101 
L 280.557248 132.44855 
L 282.798034 125.98471 
L 284.665356 121.149654 
L 286.532678 116.925113 
L 288.026536 114.047449 
L 289.520393 111.661982 
L 290.640786 110.218416 
L 291.761179 109.086361 
L 292.881572 108.277665 
L 294.001966 107.802284 
L 294.748894 107.674573 
L 295.495823 107.700479 
L 296.242752 107.881479 
L 297.363145 108.446012 
L 298.483538 109.363704 
L 299.603931 110.634349 
L 300.724324 112.255652 
L 301.844717 114.223236 
L 303.338575 117.373916 
L 304.832432 121.107676 
L 306.32629 125.397466 
L 308.193612 131.49083 
L 310.060934 138.324404 
L 312.30172 147.375508 
L 314.915971 158.885235 
L 318.650614 176.50742 
L 326.493366 213.908364 
L 329.107617 225.234647 
L 331.348403 234.066686 
L 333.215725 240.669814 
L 335.083047 246.485147 
L 336.576904 250.51545 
L 338.070762 253.954333 
L 339.564619 256.772414 
L 340.685012 258.464371 
L 341.805405 259.786504 
L 342.925799 260.733455 
L 344.046192 261.301966 
L 344.79312 261.470085 
L 345.540049 261.469653 
L 346.286978 261.301283 
L 347.033907 260.966005 
L 348.1543 260.153416 
L 349.274693 258.975259 
L 350.395086 257.440202 
L 351.515479 255.558912 
L 353.009337 252.533997 
L 354.503194 248.951164 
L 356.370516 243.750254 
L 358.237838 237.831451 
L 360.478624 229.924383 
L 363.092875 219.834956 
L 366.827518 204.439043 
L 372.802948 179.734299 
L 375.417199 169.792034 
L 377.657985 162.044349 
L 379.525307 156.271722 
L 381.392629 151.219278 
L 382.886486 147.749861 
L 384.380344 144.827315 
L 385.874201 142.480477 
L 386.994595 141.112053 
L 388.114988 140.087613 
L 389.235381 139.41235 
L 390.355774 139.089385 
L 391.102703 139.070391 
L 391.849631 139.208263 
L 392.970025 139.70772 
L 394.090418 140.554798 
L 395.210811 141.743622 
L 396.331204 143.266309 
L 397.451597 145.113019 
L 398.945455 148.058797 
L 398.945455 148.058797 
" clip-path="url(#pebb24043fb)" style="fill: none; stroke: #1e4375; stroke-width: 4; stroke-linecap: square"/>
   </g>
  </g>
 </g>
 <defs>
  <clipPath id="pebb24043fb">
   <rect x="7.2" y="7.2" width="410.4" height="266.4"/>
  </clipPath>
 </defs>
</svg>
