<?xml version="1.0" encoding="utf-8" standalone="no"?>
<!DOCTYPE svg PUBLIC "-//W3C//DTD SVG 1.1//EN"
  "http://www.w3.org/Graphics/SVG/1.1/DTD/svg11.dtd">
<svg xmlns:xlink="http://www.w3.org/1999/xlink" width="856.8pt" height="280.8pt" viewBox="0 0 856.8 280.8" xmlns="http://www.w3.org/2000/svg" version="1.1">
 <metadata>
  <rdf:RDF xmlns:dc="http://purl.org/dc/elements/1.1/" xmlns:cc="http://creativecommons.org/ns#" xmlns:rdf="http://www.w3.org/1999/02/22-rdf-syntax-ns#">
   <cc:Work>
    <dc:type rdf:resource="http://purl.org/dc/dcmitype/StillImage"/>
    <dc:date>2024-12-11T15:26:09.066889</dc:date>
    <dc:format>image/svg+xml</dc:format>
    <dc:creator>
     <cc:Agent>
      <dc:title>Matplotlib v3.7.1, https://matplotlib.org/</dc:title>
     </cc:Agent>
    </dc:creator>
   </cc:Work>
  </rdf:RDF>
 </metadata>
 <defs>
  <style type="text/css">*{stroke-linejoin: round; stroke-linecap: butt}</style>
 </defs>
 <g id="figure_1">
  <g id="patch_1">
   <path d="M 0 280.8 
L 856.8 280.8 
L 856.8 0 
L 0 0 
L 0 280.8 
z
" style="fill: none"/>
  </g>
  <g id="axes_1">
   <g id="line2d_1">
    <path d="M 45.490909 39.915231 
L 47.790663 36.339552 
L 50.090418 33.116901 
L 52.390172 30.247441 
L 54.689926 27.729203 
L 56.989681 25.558131 
L 59.289435 23.728138 
L 61.589189 22.231176 
L 63.888943 21.057322 
L 66.188698 20.194869 
L 68.488452 19.630433 
L 70.788206 19.349067 
L 73.087961 19.334385 
L 75.387715 19.568698 
L 77.687469 20.033154 
L 79.987224 20.707882 
L 82.286978 21.572152 
L 85.353317 22.982222 
L 88.419656 24.638847 
L 92.25258 26.975176 
L 97.618673 30.554605 
L 107.584275 37.28269 
L 111.417199 39.618809 
L 115.250123 41.690151 
L 118.316462 43.11089 
L 121.382801 44.289706 
L 124.44914 45.202757 
L 127.515479 45.831744 
L 129.815233 46.109311 
L 132.114988 46.216826 
L 134.414742 46.153092 
L 136.714496 45.918818 
L 139.780835 45.345959 
L 142.847174 44.486179 
L 145.913514 43.356683 
L 148.979853 41.980273 
L 152.046192 40.385055 
L 155.879115 38.134145 
L 160.478624 35.155868 
L 175.043735 25.435686 
L 178.876658 23.282656 
L 181.942998 21.821178 
L 185.009337 20.648579 
L 187.309091 19.989406 
L 189.608845 19.542079 
L 191.9086 19.326392 
L 194.208354 19.361113 
L 196.508108 19.663837 
L 198.807862 20.250841 
L 201.107617 21.136956 
L 203.407371 22.33544 
L 205.707125 23.857866 
L 208.00688 25.714015 
L 210.306634 27.911785 
L 212.606388 30.457108 
L 214.906143 33.353881 
L 217.205897 36.603909 
L 219.505651 40.206863 
L 221.805405 44.160244 
L 224.871744 49.968128 
L 227.938084 56.373295 
L 231.004423 63.35177 
L 234.070762 70.872867 
L 237.903686 80.980049 
L 241.736609 91.790325 
L 246.336118 105.548698 
L 251.702211 122.432397 
L 259.368059 147.431918 
L 268.567076 177.350298 
L 273.93317 194.000871 
L 277.766093 205.249363 
L 281.599017 215.799938 
L 284.665356 223.647562 
L 287.731695 230.898191 
L 290.798034 237.491915 
L 293.097789 241.972935 
L 295.397543 246.032445 
L 297.697297 249.651304 
L 299.997052 252.8124 
L 302.296806 255.500748 
L 303.829975 257.023941 
L 305.363145 258.328078 
L 306.896314 259.410397 
L 308.429484 260.268605 
L 309.962654 260.900882 
L 311.495823 261.305887 
L 313.028993 261.482759 
L 314.562162 261.431124 
L 316.095332 261.15109 
L 317.628501 260.643254 
L 319.161671 259.908691 
L 320.69484 258.94896 
L 322.22801 257.766097 
L 323.761179 256.362606 
L 325.294349 254.741459 
L 327.594103 251.909251 
L 329.893857 248.60858 
L 332.193612 244.855082 
L 334.493366 240.66649 
L 336.79312 236.062534 
L 339.859459 229.315409 
L 342.925799 221.92449 
L 345.992138 213.950756 
L 349.825061 203.263875 
L 353.657985 191.904129 
L 358.257494 177.584884 
L 365.156757 155.230602 
L 377.422113 115.339718 
L 382.788206 98.793798 
L 386.62113 87.597544 
L 390.454054 77.043887 
L 394.286978 67.227862 
L 397.353317 59.960773 
L 400.419656 53.251735 
L 403.485995 47.128262 
L 406.552334 41.611085 
L 408.852088 37.879673 
L 411.151843 34.500526 
L 413.451597 31.474763 
L 415.751351 28.801355 
L 418.051106 26.477163 
L 420.35086 24.496992 
L 422.650614 22.853653 
L 424.950369 21.538043 
L 427.250123 20.539232 
L 429.549877 19.844565 
L 431.849631 19.439773 
L 434.149386 19.309091 
L 436.44914 19.43539 
L 438.748894 19.800316 
L 441.048649 20.384429 
L 443.348403 21.167362 
L 446.414742 22.483909 
L 449.481081 24.064511 
L 453.314005 26.330791 
L 457.913514 29.338445 
L 470.945455 38.088438 
L 474.778378 40.344233 
L 478.611302 42.311469 
L 481.677641 43.634366 
L 484.74398 44.704722 
L 487.810319 45.500977 
L 490.876658 46.007221 
L 493.176413 46.19031 
L 495.476167 46.202444 
L 497.775921 46.043488 
L 500.84226 45.568744 
L 503.9086 44.802641 
L 506.974939 43.760475 
L 510.041278 42.463217 
L 513.107617 40.937247 
L 516.940541 38.756539 
L 521.540049 35.834864 
L 529.205897 30.605202 
L 535.338575 26.535231 
L 539.171499 24.245744 
L 542.237838 22.640192 
L 545.304177 21.293112 
L 547.603931 20.483714 
L 549.903686 19.870183 
L 552.20344 19.473009 
L 554.503194 19.31177 
L 556.802948 19.404984 
L 559.102703 19.769962 
L 561.402457 20.42267 
L 563.702211 21.377596 
L 566.001966 22.647632 
L 568.30172 24.243958 
L 570.601474 26.175941 
L 572.901229 28.451045 
L 575.200983 31.074754 
L 577.500737 34.0505 
L 579.800491 37.379615 
L 582.100246 41.061285 
L 584.4 45.092525 
L 587.466339 51.002042 
L 590.532678 57.505293 
L 593.599017 64.577166 
L 596.665356 72.185866 
L 600.49828 82.392786 
L 604.331204 93.290129 
L 608.930713 107.133757 
L 614.296806 124.087049 
L 622.729238 151.643619 
L 631.161671 178.98355 
L 635.761179 193.24048 
L 639.594103 204.529965 
L 643.427027 215.130616 
L 646.493366 223.02448 
L 649.559705 230.326481 
L 652.626044 236.976314 
L 654.925799 241.502263 
L 657.225553 245.608915 
L 659.525307 249.276917 
L 661.825061 252.488928 
L 664.124816 255.229726 
L 665.657985 256.788617 
L 667.191155 258.12895 
L 668.724324 259.247887 
L 670.257494 260.143058 
L 671.790663 260.812564 
L 673.323833 261.254984 
L 674.857002 261.469381 
L 676.390172 261.455298 
L 677.923342 261.212766 
L 679.456511 260.7423 
L 680.989681 260.044898 
L 682.52285 259.122038 
L 684.05602 257.97568 
L 685.589189 256.60825 
L 687.122359 255.022643 
L 689.422113 252.24261 
L 691.721867 248.992533 
L 694.021622 245.287811 
L 696.321376 241.145953 
L 698.62113 236.586477 
L 701.687469 229.894806 
L 704.753808 222.554544 
L 707.820147 214.626285 
L 711.653071 203.988459 
L 715.485995 192.668633 
L 720.085504 178.38471 
L 726.218182 158.569048 
L 740.016708 113.716379 
L 744.616216 99.549648 
L 749.215725 86.140884 
L 753.048649 75.681055 
L 756.114988 67.848709 
L 759.181327 60.5372 
L 762.247666 53.781186 
L 765.314005 47.60873 
L 768.380344 42.041125 
L 770.680098 38.271285 
L 772.979853 34.853456 
L 775.279607 31.788994 
L 777.579361 29.077103 
L 779.879115 26.714874 
L 782.17887 24.697333 
L 784.478624 23.017506 
L 786.778378 21.666496 
L 789.078133 20.633569 
L 791.377887 19.906253 
L 793.677641 19.47045 
L 795.977396 19.310553 
L 798.27715 19.409576 
L 800.576904 19.749291 
L 802.876658 20.310372 
L 805.176413 21.072544 
L 808.242752 22.365075 
L 811.309091 23.925968 
L 811.309091 23.925968 
" clip-path="url(#p830f1a63a6)" style="fill: none; stroke: #1e4375; stroke-width: 2; stroke-linecap: square"/>
   </g>
  </g>
 </g>
 <defs>
  <clipPath id="p830f1a63a6">
   <rect x="7.2" y="7.2" width="842.4" height="266.4"/>
  </clipPath>
 </defs>
</svg>
